%TF.GenerationSoftware,KiCad,Pcbnew,6.0.10-86aedd382b~118~ubuntu20.04.1*%
%TF.CreationDate,2023-03-05T00:00:34-08:00*%
%TF.ProjectId,ep2c35_trial,65703263-3335-45f7-9472-69616c2e6b69,rev?*%
%TF.SameCoordinates,Original*%
%TF.FileFunction,Legend,Top*%
%TF.FilePolarity,Positive*%
%FSLAX46Y46*%
G04 Gerber Fmt 4.6, Leading zero omitted, Abs format (unit mm)*
G04 Created by KiCad (PCBNEW 6.0.10-86aedd382b~118~ubuntu20.04.1) date 2023-03-05 00:00:34*
%MOMM*%
%LPD*%
G01*
G04 APERTURE LIST*
G04 Aperture macros list*
%AMRoundRect*
0 Rectangle with rounded corners*
0 $1 Rounding radius*
0 $2 $3 $4 $5 $6 $7 $8 $9 X,Y pos of 4 corners*
0 Add a 4 corners polygon primitive as box body*
4,1,4,$2,$3,$4,$5,$6,$7,$8,$9,$2,$3,0*
0 Add four circle primitives for the rounded corners*
1,1,$1+$1,$2,$3*
1,1,$1+$1,$4,$5*
1,1,$1+$1,$6,$7*
1,1,$1+$1,$8,$9*
0 Add four rect primitives between the rounded corners*
20,1,$1+$1,$2,$3,$4,$5,0*
20,1,$1+$1,$4,$5,$6,$7,0*
20,1,$1+$1,$6,$7,$8,$9,0*
20,1,$1+$1,$8,$9,$2,$3,0*%
G04 Aperture macros list end*
%ADD10C,0.150000*%
%ADD11C,0.120000*%
%ADD12C,0.127000*%
%ADD13C,0.200000*%
%ADD14RoundRect,0.140000X0.140000X0.170000X-0.140000X0.170000X-0.140000X-0.170000X0.140000X-0.170000X0*%
%ADD15RoundRect,0.250000X-0.250000X-0.475000X0.250000X-0.475000X0.250000X0.475000X-0.250000X0.475000X0*%
%ADD16R,1.700000X1.700000*%
%ADD17O,1.700000X1.700000*%
%ADD18RoundRect,0.140000X0.170000X-0.140000X0.170000X0.140000X-0.170000X0.140000X-0.170000X-0.140000X0*%
%ADD19RoundRect,0.135000X-0.135000X-0.185000X0.135000X-0.185000X0.135000X0.185000X-0.135000X0.185000X0*%
%ADD20RoundRect,0.200000X-0.200000X-0.275000X0.200000X-0.275000X0.200000X0.275000X-0.200000X0.275000X0*%
%ADD21RoundRect,0.140000X-0.140000X-0.170000X0.140000X-0.170000X0.140000X0.170000X-0.140000X0.170000X0*%
%ADD22C,1.000000*%
%ADD23RoundRect,0.135000X0.185000X-0.135000X0.185000X0.135000X-0.185000X0.135000X-0.185000X-0.135000X0*%
%ADD24RoundRect,0.140000X-0.170000X0.140000X-0.170000X-0.140000X0.170000X-0.140000X0.170000X0.140000X0*%
%ADD25R,0.700000X2.200000*%
%ADD26RoundRect,0.250000X0.475000X-0.250000X0.475000X0.250000X-0.475000X0.250000X-0.475000X-0.250000X0*%
%ADD27RoundRect,0.250000X-0.325000X-0.650000X0.325000X-0.650000X0.325000X0.650000X-0.325000X0.650000X0*%
%ADD28R,1.000000X1.000000*%
%ADD29O,1.000000X1.000000*%
%ADD30RoundRect,0.200000X0.200000X0.275000X-0.200000X0.275000X-0.200000X-0.275000X0.200000X-0.275000X0*%
%ADD31RoundRect,0.135000X-0.185000X0.135000X-0.185000X-0.135000X0.185000X-0.135000X0.185000X0.135000X0*%
%ADD32R,2.500000X3.325000*%
%ADD33RoundRect,0.050000X0.387500X0.050000X-0.387500X0.050000X-0.387500X-0.050000X0.387500X-0.050000X0*%
%ADD34RoundRect,0.050000X0.050000X0.387500X-0.050000X0.387500X-0.050000X-0.387500X0.050000X-0.387500X0*%
%ADD35R,3.900000X4.700000*%
%ADD36RoundRect,0.250000X0.250000X0.475000X-0.250000X0.475000X-0.250000X-0.475000X0.250000X-0.475000X0*%
%ADD37RoundRect,0.250000X0.650000X-0.325000X0.650000X0.325000X-0.650000X0.325000X-0.650000X-0.325000X0*%
%ADD38RoundRect,0.150000X-0.650000X-0.150000X0.650000X-0.150000X0.650000X0.150000X-0.650000X0.150000X0*%
%ADD39R,2.000000X1.800000*%
%ADD40R,1.200000X1.200000*%
%ADD41C,0.460000*%
%ADD42R,8.450000X8.012500*%
%ADD43R,0.400000X1.350000*%
%ADD44O,0.900000X1.800000*%
%ADD45C,0.500000*%
G04 APERTURE END LIST*
D10*
%TO.C,C5*%
X133943333Y-57057142D02*
X133895714Y-57104761D01*
X133752857Y-57152380D01*
X133657619Y-57152380D01*
X133514761Y-57104761D01*
X133419523Y-57009523D01*
X133371904Y-56914285D01*
X133324285Y-56723809D01*
X133324285Y-56580952D01*
X133371904Y-56390476D01*
X133419523Y-56295238D01*
X133514761Y-56200000D01*
X133657619Y-56152380D01*
X133752857Y-56152380D01*
X133895714Y-56200000D01*
X133943333Y-56247619D01*
X134848095Y-56152380D02*
X134371904Y-56152380D01*
X134324285Y-56628571D01*
X134371904Y-56580952D01*
X134467142Y-56533333D01*
X134705238Y-56533333D01*
X134800476Y-56580952D01*
X134848095Y-56628571D01*
X134895714Y-56723809D01*
X134895714Y-56961904D01*
X134848095Y-57057142D01*
X134800476Y-57104761D01*
X134705238Y-57152380D01*
X134467142Y-57152380D01*
X134371904Y-57104761D01*
X134324285Y-57057142D01*
%TO.C,C28*%
X161457142Y-82257142D02*
X161409523Y-82304761D01*
X161266666Y-82352380D01*
X161171428Y-82352380D01*
X161028571Y-82304761D01*
X160933333Y-82209523D01*
X160885714Y-82114285D01*
X160838095Y-81923809D01*
X160838095Y-81780952D01*
X160885714Y-81590476D01*
X160933333Y-81495238D01*
X161028571Y-81400000D01*
X161171428Y-81352380D01*
X161266666Y-81352380D01*
X161409523Y-81400000D01*
X161457142Y-81447619D01*
X161838095Y-81447619D02*
X161885714Y-81400000D01*
X161980952Y-81352380D01*
X162219047Y-81352380D01*
X162314285Y-81400000D01*
X162361904Y-81447619D01*
X162409523Y-81542857D01*
X162409523Y-81638095D01*
X162361904Y-81780952D01*
X161790476Y-82352380D01*
X162409523Y-82352380D01*
X162980952Y-81780952D02*
X162885714Y-81733333D01*
X162838095Y-81685714D01*
X162790476Y-81590476D01*
X162790476Y-81542857D01*
X162838095Y-81447619D01*
X162885714Y-81400000D01*
X162980952Y-81352380D01*
X163171428Y-81352380D01*
X163266666Y-81400000D01*
X163314285Y-81447619D01*
X163361904Y-81542857D01*
X163361904Y-81590476D01*
X163314285Y-81685714D01*
X163266666Y-81733333D01*
X163171428Y-81780952D01*
X162980952Y-81780952D01*
X162885714Y-81828571D01*
X162838095Y-81876190D01*
X162790476Y-81971428D01*
X162790476Y-82161904D01*
X162838095Y-82257142D01*
X162885714Y-82304761D01*
X162980952Y-82352380D01*
X163171428Y-82352380D01*
X163266666Y-82304761D01*
X163314285Y-82257142D01*
X163361904Y-82161904D01*
X163361904Y-81971428D01*
X163314285Y-81876190D01*
X163266666Y-81828571D01*
X163171428Y-81780952D01*
%TO.C,J6*%
X128766666Y-69127380D02*
X128766666Y-69841666D01*
X128719047Y-69984523D01*
X128623809Y-70079761D01*
X128480952Y-70127380D01*
X128385714Y-70127380D01*
X129671428Y-69127380D02*
X129480952Y-69127380D01*
X129385714Y-69175000D01*
X129338095Y-69222619D01*
X129242857Y-69365476D01*
X129195238Y-69555952D01*
X129195238Y-69936904D01*
X129242857Y-70032142D01*
X129290476Y-70079761D01*
X129385714Y-70127380D01*
X129576190Y-70127380D01*
X129671428Y-70079761D01*
X129719047Y-70032142D01*
X129766666Y-69936904D01*
X129766666Y-69698809D01*
X129719047Y-69603571D01*
X129671428Y-69555952D01*
X129576190Y-69508333D01*
X129385714Y-69508333D01*
X129290476Y-69555952D01*
X129242857Y-69603571D01*
X129195238Y-69698809D01*
%TO.C,C19*%
X158487142Y-54220357D02*
X158534761Y-54267976D01*
X158582380Y-54410833D01*
X158582380Y-54506071D01*
X158534761Y-54648928D01*
X158439523Y-54744166D01*
X158344285Y-54791785D01*
X158153809Y-54839404D01*
X158010952Y-54839404D01*
X157820476Y-54791785D01*
X157725238Y-54744166D01*
X157630000Y-54648928D01*
X157582380Y-54506071D01*
X157582380Y-54410833D01*
X157630000Y-54267976D01*
X157677619Y-54220357D01*
X158582380Y-53267976D02*
X158582380Y-53839404D01*
X158582380Y-53553690D02*
X157582380Y-53553690D01*
X157725238Y-53648928D01*
X157820476Y-53744166D01*
X157868095Y-53839404D01*
X158582380Y-52791785D02*
X158582380Y-52601309D01*
X158534761Y-52506071D01*
X158487142Y-52458452D01*
X158344285Y-52363214D01*
X158153809Y-52315595D01*
X157772857Y-52315595D01*
X157677619Y-52363214D01*
X157630000Y-52410833D01*
X157582380Y-52506071D01*
X157582380Y-52696547D01*
X157630000Y-52791785D01*
X157677619Y-52839404D01*
X157772857Y-52887023D01*
X158010952Y-52887023D01*
X158106190Y-52839404D01*
X158153809Y-52791785D01*
X158201428Y-52696547D01*
X158201428Y-52506071D01*
X158153809Y-52410833D01*
X158106190Y-52363214D01*
X158010952Y-52315595D01*
%TO.C,C22*%
X160307142Y-62842857D02*
X160354761Y-62890476D01*
X160402380Y-63033333D01*
X160402380Y-63128571D01*
X160354761Y-63271428D01*
X160259523Y-63366666D01*
X160164285Y-63414285D01*
X159973809Y-63461904D01*
X159830952Y-63461904D01*
X159640476Y-63414285D01*
X159545238Y-63366666D01*
X159450000Y-63271428D01*
X159402380Y-63128571D01*
X159402380Y-63033333D01*
X159450000Y-62890476D01*
X159497619Y-62842857D01*
X159497619Y-62461904D02*
X159450000Y-62414285D01*
X159402380Y-62319047D01*
X159402380Y-62080952D01*
X159450000Y-61985714D01*
X159497619Y-61938095D01*
X159592857Y-61890476D01*
X159688095Y-61890476D01*
X159830952Y-61938095D01*
X160402380Y-62509523D01*
X160402380Y-61890476D01*
X159497619Y-61509523D02*
X159450000Y-61461904D01*
X159402380Y-61366666D01*
X159402380Y-61128571D01*
X159450000Y-61033333D01*
X159497619Y-60985714D01*
X159592857Y-60938095D01*
X159688095Y-60938095D01*
X159830952Y-60985714D01*
X160402380Y-61557142D01*
X160402380Y-60938095D01*
%TO.C,R44*%
X176047142Y-63882380D02*
X175713809Y-63406190D01*
X175475714Y-63882380D02*
X175475714Y-62882380D01*
X175856666Y-62882380D01*
X175951904Y-62930000D01*
X175999523Y-62977619D01*
X176047142Y-63072857D01*
X176047142Y-63215714D01*
X175999523Y-63310952D01*
X175951904Y-63358571D01*
X175856666Y-63406190D01*
X175475714Y-63406190D01*
X176904285Y-63215714D02*
X176904285Y-63882380D01*
X176666190Y-62834761D02*
X176428095Y-63549047D01*
X177047142Y-63549047D01*
X177856666Y-63215714D02*
X177856666Y-63882380D01*
X177618571Y-62834761D02*
X177380476Y-63549047D01*
X177999523Y-63549047D01*
%TO.C,R39*%
X176047142Y-76582380D02*
X175713809Y-76106190D01*
X175475714Y-76582380D02*
X175475714Y-75582380D01*
X175856666Y-75582380D01*
X175951904Y-75630000D01*
X175999523Y-75677619D01*
X176047142Y-75772857D01*
X176047142Y-75915714D01*
X175999523Y-76010952D01*
X175951904Y-76058571D01*
X175856666Y-76106190D01*
X175475714Y-76106190D01*
X176380476Y-75582380D02*
X176999523Y-75582380D01*
X176666190Y-75963333D01*
X176809047Y-75963333D01*
X176904285Y-76010952D01*
X176951904Y-76058571D01*
X176999523Y-76153809D01*
X176999523Y-76391904D01*
X176951904Y-76487142D01*
X176904285Y-76534761D01*
X176809047Y-76582380D01*
X176523333Y-76582380D01*
X176428095Y-76534761D01*
X176380476Y-76487142D01*
X177475714Y-76582380D02*
X177666190Y-76582380D01*
X177761428Y-76534761D01*
X177809047Y-76487142D01*
X177904285Y-76344285D01*
X177951904Y-76153809D01*
X177951904Y-75772857D01*
X177904285Y-75677619D01*
X177856666Y-75630000D01*
X177761428Y-75582380D01*
X177570952Y-75582380D01*
X177475714Y-75630000D01*
X177428095Y-75677619D01*
X177380476Y-75772857D01*
X177380476Y-76010952D01*
X177428095Y-76106190D01*
X177475714Y-76153809D01*
X177570952Y-76201428D01*
X177761428Y-76201428D01*
X177856666Y-76153809D01*
X177904285Y-76106190D01*
X177951904Y-76010952D01*
%TO.C,R33*%
X176047142Y-91882380D02*
X175713809Y-91406190D01*
X175475714Y-91882380D02*
X175475714Y-90882380D01*
X175856666Y-90882380D01*
X175951904Y-90930000D01*
X175999523Y-90977619D01*
X176047142Y-91072857D01*
X176047142Y-91215714D01*
X175999523Y-91310952D01*
X175951904Y-91358571D01*
X175856666Y-91406190D01*
X175475714Y-91406190D01*
X176380476Y-90882380D02*
X176999523Y-90882380D01*
X176666190Y-91263333D01*
X176809047Y-91263333D01*
X176904285Y-91310952D01*
X176951904Y-91358571D01*
X176999523Y-91453809D01*
X176999523Y-91691904D01*
X176951904Y-91787142D01*
X176904285Y-91834761D01*
X176809047Y-91882380D01*
X176523333Y-91882380D01*
X176428095Y-91834761D01*
X176380476Y-91787142D01*
X177332857Y-90882380D02*
X177951904Y-90882380D01*
X177618571Y-91263333D01*
X177761428Y-91263333D01*
X177856666Y-91310952D01*
X177904285Y-91358571D01*
X177951904Y-91453809D01*
X177951904Y-91691904D01*
X177904285Y-91787142D01*
X177856666Y-91834761D01*
X177761428Y-91882380D01*
X177475714Y-91882380D01*
X177380476Y-91834761D01*
X177332857Y-91787142D01*
%TO.C,FB2*%
X133791666Y-53828571D02*
X133458333Y-53828571D01*
X133458333Y-54352380D02*
X133458333Y-53352380D01*
X133934523Y-53352380D01*
X134648809Y-53828571D02*
X134791666Y-53876190D01*
X134839285Y-53923809D01*
X134886904Y-54019047D01*
X134886904Y-54161904D01*
X134839285Y-54257142D01*
X134791666Y-54304761D01*
X134696428Y-54352380D01*
X134315476Y-54352380D01*
X134315476Y-53352380D01*
X134648809Y-53352380D01*
X134744047Y-53400000D01*
X134791666Y-53447619D01*
X134839285Y-53542857D01*
X134839285Y-53638095D01*
X134791666Y-53733333D01*
X134744047Y-53780952D01*
X134648809Y-53828571D01*
X134315476Y-53828571D01*
X135267857Y-53447619D02*
X135315476Y-53400000D01*
X135410714Y-53352380D01*
X135648809Y-53352380D01*
X135744047Y-53400000D01*
X135791666Y-53447619D01*
X135839285Y-53542857D01*
X135839285Y-53638095D01*
X135791666Y-53780952D01*
X135220238Y-54352380D01*
X135839285Y-54352380D01*
%TO.C,R46*%
X176047142Y-58882380D02*
X175713809Y-58406190D01*
X175475714Y-58882380D02*
X175475714Y-57882380D01*
X175856666Y-57882380D01*
X175951904Y-57930000D01*
X175999523Y-57977619D01*
X176047142Y-58072857D01*
X176047142Y-58215714D01*
X175999523Y-58310952D01*
X175951904Y-58358571D01*
X175856666Y-58406190D01*
X175475714Y-58406190D01*
X176904285Y-58215714D02*
X176904285Y-58882380D01*
X176666190Y-57834761D02*
X176428095Y-58549047D01*
X177047142Y-58549047D01*
X177856666Y-57882380D02*
X177666190Y-57882380D01*
X177570952Y-57930000D01*
X177523333Y-57977619D01*
X177428095Y-58120476D01*
X177380476Y-58310952D01*
X177380476Y-58691904D01*
X177428095Y-58787142D01*
X177475714Y-58834761D01*
X177570952Y-58882380D01*
X177761428Y-58882380D01*
X177856666Y-58834761D01*
X177904285Y-58787142D01*
X177951904Y-58691904D01*
X177951904Y-58453809D01*
X177904285Y-58358571D01*
X177856666Y-58310952D01*
X177761428Y-58263333D01*
X177570952Y-58263333D01*
X177475714Y-58310952D01*
X177428095Y-58358571D01*
X177380476Y-58453809D01*
%TO.C,C13*%
X136157142Y-58307142D02*
X136109523Y-58354761D01*
X135966666Y-58402380D01*
X135871428Y-58402380D01*
X135728571Y-58354761D01*
X135633333Y-58259523D01*
X135585714Y-58164285D01*
X135538095Y-57973809D01*
X135538095Y-57830952D01*
X135585714Y-57640476D01*
X135633333Y-57545238D01*
X135728571Y-57450000D01*
X135871428Y-57402380D01*
X135966666Y-57402380D01*
X136109523Y-57450000D01*
X136157142Y-57497619D01*
X137109523Y-58402380D02*
X136538095Y-58402380D01*
X136823809Y-58402380D02*
X136823809Y-57402380D01*
X136728571Y-57545238D01*
X136633333Y-57640476D01*
X136538095Y-57688095D01*
X137442857Y-57402380D02*
X138061904Y-57402380D01*
X137728571Y-57783333D01*
X137871428Y-57783333D01*
X137966666Y-57830952D01*
X138014285Y-57878571D01*
X138061904Y-57973809D01*
X138061904Y-58211904D01*
X138014285Y-58307142D01*
X137966666Y-58354761D01*
X137871428Y-58402380D01*
X137585714Y-58402380D01*
X137490476Y-58354761D01*
X137442857Y-58307142D01*
%TO.C,C17*%
X151807142Y-58892857D02*
X151854761Y-58940476D01*
X151902380Y-59083333D01*
X151902380Y-59178571D01*
X151854761Y-59321428D01*
X151759523Y-59416666D01*
X151664285Y-59464285D01*
X151473809Y-59511904D01*
X151330952Y-59511904D01*
X151140476Y-59464285D01*
X151045238Y-59416666D01*
X150950000Y-59321428D01*
X150902380Y-59178571D01*
X150902380Y-59083333D01*
X150950000Y-58940476D01*
X150997619Y-58892857D01*
X151902380Y-57940476D02*
X151902380Y-58511904D01*
X151902380Y-58226190D02*
X150902380Y-58226190D01*
X151045238Y-58321428D01*
X151140476Y-58416666D01*
X151188095Y-58511904D01*
X150902380Y-57607142D02*
X150902380Y-56940476D01*
X151902380Y-57369047D01*
%TO.C,TP1*%
X133488095Y-64704380D02*
X134059523Y-64704380D01*
X133773809Y-65704380D02*
X133773809Y-64704380D01*
X134392857Y-65704380D02*
X134392857Y-64704380D01*
X134773809Y-64704380D01*
X134869047Y-64752000D01*
X134916666Y-64799619D01*
X134964285Y-64894857D01*
X134964285Y-65037714D01*
X134916666Y-65132952D01*
X134869047Y-65180571D01*
X134773809Y-65228190D01*
X134392857Y-65228190D01*
X135916666Y-65704380D02*
X135345238Y-65704380D01*
X135630952Y-65704380D02*
X135630952Y-64704380D01*
X135535714Y-64847238D01*
X135440476Y-64942476D01*
X135345238Y-64990095D01*
%TO.C,C9*%
X146733333Y-54507142D02*
X146685714Y-54554761D01*
X146542857Y-54602380D01*
X146447619Y-54602380D01*
X146304761Y-54554761D01*
X146209523Y-54459523D01*
X146161904Y-54364285D01*
X146114285Y-54173809D01*
X146114285Y-54030952D01*
X146161904Y-53840476D01*
X146209523Y-53745238D01*
X146304761Y-53650000D01*
X146447619Y-53602380D01*
X146542857Y-53602380D01*
X146685714Y-53650000D01*
X146733333Y-53697619D01*
X147209523Y-54602380D02*
X147400000Y-54602380D01*
X147495238Y-54554761D01*
X147542857Y-54507142D01*
X147638095Y-54364285D01*
X147685714Y-54173809D01*
X147685714Y-53792857D01*
X147638095Y-53697619D01*
X147590476Y-53650000D01*
X147495238Y-53602380D01*
X147304761Y-53602380D01*
X147209523Y-53650000D01*
X147161904Y-53697619D01*
X147114285Y-53792857D01*
X147114285Y-54030952D01*
X147161904Y-54126190D01*
X147209523Y-54173809D01*
X147304761Y-54221428D01*
X147495238Y-54221428D01*
X147590476Y-54173809D01*
X147638095Y-54126190D01*
X147685714Y-54030952D01*
%TO.C,R4*%
X131202380Y-55366666D02*
X130726190Y-55700000D01*
X131202380Y-55938095D02*
X130202380Y-55938095D01*
X130202380Y-55557142D01*
X130250000Y-55461904D01*
X130297619Y-55414285D01*
X130392857Y-55366666D01*
X130535714Y-55366666D01*
X130630952Y-55414285D01*
X130678571Y-55461904D01*
X130726190Y-55557142D01*
X130726190Y-55938095D01*
X130535714Y-54509523D02*
X131202380Y-54509523D01*
X130154761Y-54747619D02*
X130869047Y-54985714D01*
X130869047Y-54366666D01*
%TO.C,C16*%
X140907142Y-54542857D02*
X140954761Y-54590476D01*
X141002380Y-54733333D01*
X141002380Y-54828571D01*
X140954761Y-54971428D01*
X140859523Y-55066666D01*
X140764285Y-55114285D01*
X140573809Y-55161904D01*
X140430952Y-55161904D01*
X140240476Y-55114285D01*
X140145238Y-55066666D01*
X140050000Y-54971428D01*
X140002380Y-54828571D01*
X140002380Y-54733333D01*
X140050000Y-54590476D01*
X140097619Y-54542857D01*
X141002380Y-53590476D02*
X141002380Y-54161904D01*
X141002380Y-53876190D02*
X140002380Y-53876190D01*
X140145238Y-53971428D01*
X140240476Y-54066666D01*
X140288095Y-54161904D01*
X140002380Y-52733333D02*
X140002380Y-52923809D01*
X140050000Y-53019047D01*
X140097619Y-53066666D01*
X140240476Y-53161904D01*
X140430952Y-53209523D01*
X140811904Y-53209523D01*
X140907142Y-53161904D01*
X140954761Y-53114285D01*
X141002380Y-53019047D01*
X141002380Y-52828571D01*
X140954761Y-52733333D01*
X140907142Y-52685714D01*
X140811904Y-52638095D01*
X140573809Y-52638095D01*
X140478571Y-52685714D01*
X140430952Y-52733333D01*
X140383333Y-52828571D01*
X140383333Y-53019047D01*
X140430952Y-53114285D01*
X140478571Y-53161904D01*
X140573809Y-53209523D01*
%TO.C,C14*%
X148957142Y-55357142D02*
X148909523Y-55404761D01*
X148766666Y-55452380D01*
X148671428Y-55452380D01*
X148528571Y-55404761D01*
X148433333Y-55309523D01*
X148385714Y-55214285D01*
X148338095Y-55023809D01*
X148338095Y-54880952D01*
X148385714Y-54690476D01*
X148433333Y-54595238D01*
X148528571Y-54500000D01*
X148671428Y-54452380D01*
X148766666Y-54452380D01*
X148909523Y-54500000D01*
X148957142Y-54547619D01*
X149909523Y-55452380D02*
X149338095Y-55452380D01*
X149623809Y-55452380D02*
X149623809Y-54452380D01*
X149528571Y-54595238D01*
X149433333Y-54690476D01*
X149338095Y-54738095D01*
X150766666Y-54785714D02*
X150766666Y-55452380D01*
X150528571Y-54404761D02*
X150290476Y-55119047D01*
X150909523Y-55119047D01*
%TO.C,U5*%
X167238095Y-55452380D02*
X167238095Y-56261904D01*
X167285714Y-56357142D01*
X167333333Y-56404761D01*
X167428571Y-56452380D01*
X167619047Y-56452380D01*
X167714285Y-56404761D01*
X167761904Y-56357142D01*
X167809523Y-56261904D01*
X167809523Y-55452380D01*
X168761904Y-55452380D02*
X168285714Y-55452380D01*
X168238095Y-55928571D01*
X168285714Y-55880952D01*
X168380952Y-55833333D01*
X168619047Y-55833333D01*
X168714285Y-55880952D01*
X168761904Y-55928571D01*
X168809523Y-56023809D01*
X168809523Y-56261904D01*
X168761904Y-56357142D01*
X168714285Y-56404761D01*
X168619047Y-56452380D01*
X168380952Y-56452380D01*
X168285714Y-56404761D01*
X168238095Y-56357142D01*
%TO.C,R43*%
X176047142Y-66482380D02*
X175713809Y-66006190D01*
X175475714Y-66482380D02*
X175475714Y-65482380D01*
X175856666Y-65482380D01*
X175951904Y-65530000D01*
X175999523Y-65577619D01*
X176047142Y-65672857D01*
X176047142Y-65815714D01*
X175999523Y-65910952D01*
X175951904Y-65958571D01*
X175856666Y-66006190D01*
X175475714Y-66006190D01*
X176904285Y-65815714D02*
X176904285Y-66482380D01*
X176666190Y-65434761D02*
X176428095Y-66149047D01*
X177047142Y-66149047D01*
X177332857Y-65482380D02*
X177951904Y-65482380D01*
X177618571Y-65863333D01*
X177761428Y-65863333D01*
X177856666Y-65910952D01*
X177904285Y-65958571D01*
X177951904Y-66053809D01*
X177951904Y-66291904D01*
X177904285Y-66387142D01*
X177856666Y-66434761D01*
X177761428Y-66482380D01*
X177475714Y-66482380D01*
X177380476Y-66434761D01*
X177332857Y-66387142D01*
%TO.C,R34*%
X176047142Y-89282380D02*
X175713809Y-88806190D01*
X175475714Y-89282380D02*
X175475714Y-88282380D01*
X175856666Y-88282380D01*
X175951904Y-88330000D01*
X175999523Y-88377619D01*
X176047142Y-88472857D01*
X176047142Y-88615714D01*
X175999523Y-88710952D01*
X175951904Y-88758571D01*
X175856666Y-88806190D01*
X175475714Y-88806190D01*
X176380476Y-88282380D02*
X176999523Y-88282380D01*
X176666190Y-88663333D01*
X176809047Y-88663333D01*
X176904285Y-88710952D01*
X176951904Y-88758571D01*
X176999523Y-88853809D01*
X176999523Y-89091904D01*
X176951904Y-89187142D01*
X176904285Y-89234761D01*
X176809047Y-89282380D01*
X176523333Y-89282380D01*
X176428095Y-89234761D01*
X176380476Y-89187142D01*
X177856666Y-88615714D02*
X177856666Y-89282380D01*
X177618571Y-88234761D02*
X177380476Y-88949047D01*
X177999523Y-88949047D01*
%TO.C,C8*%
X137083333Y-59607142D02*
X137035714Y-59654761D01*
X136892857Y-59702380D01*
X136797619Y-59702380D01*
X136654761Y-59654761D01*
X136559523Y-59559523D01*
X136511904Y-59464285D01*
X136464285Y-59273809D01*
X136464285Y-59130952D01*
X136511904Y-58940476D01*
X136559523Y-58845238D01*
X136654761Y-58750000D01*
X136797619Y-58702380D01*
X136892857Y-58702380D01*
X137035714Y-58750000D01*
X137083333Y-58797619D01*
X137654761Y-59130952D02*
X137559523Y-59083333D01*
X137511904Y-59035714D01*
X137464285Y-58940476D01*
X137464285Y-58892857D01*
X137511904Y-58797619D01*
X137559523Y-58750000D01*
X137654761Y-58702380D01*
X137845238Y-58702380D01*
X137940476Y-58750000D01*
X137988095Y-58797619D01*
X138035714Y-58892857D01*
X138035714Y-58940476D01*
X137988095Y-59035714D01*
X137940476Y-59083333D01*
X137845238Y-59130952D01*
X137654761Y-59130952D01*
X137559523Y-59178571D01*
X137511904Y-59226190D01*
X137464285Y-59321428D01*
X137464285Y-59511904D01*
X137511904Y-59607142D01*
X137559523Y-59654761D01*
X137654761Y-59702380D01*
X137845238Y-59702380D01*
X137940476Y-59654761D01*
X137988095Y-59607142D01*
X138035714Y-59511904D01*
X138035714Y-59321428D01*
X137988095Y-59226190D01*
X137940476Y-59178571D01*
X137845238Y-59130952D01*
%TO.C,R9*%
X127952380Y-78296666D02*
X127476190Y-78630000D01*
X127952380Y-78868095D02*
X126952380Y-78868095D01*
X126952380Y-78487142D01*
X127000000Y-78391904D01*
X127047619Y-78344285D01*
X127142857Y-78296666D01*
X127285714Y-78296666D01*
X127380952Y-78344285D01*
X127428571Y-78391904D01*
X127476190Y-78487142D01*
X127476190Y-78868095D01*
X127952380Y-77820476D02*
X127952380Y-77630000D01*
X127904761Y-77534761D01*
X127857142Y-77487142D01*
X127714285Y-77391904D01*
X127523809Y-77344285D01*
X127142857Y-77344285D01*
X127047619Y-77391904D01*
X127000000Y-77439523D01*
X126952380Y-77534761D01*
X126952380Y-77725238D01*
X127000000Y-77820476D01*
X127047619Y-77868095D01*
X127142857Y-77915714D01*
X127380952Y-77915714D01*
X127476190Y-77868095D01*
X127523809Y-77820476D01*
X127571428Y-77725238D01*
X127571428Y-77534761D01*
X127523809Y-77439523D01*
X127476190Y-77391904D01*
X127380952Y-77344285D01*
%TO.C,R48*%
X176147142Y-53782380D02*
X175813809Y-53306190D01*
X175575714Y-53782380D02*
X175575714Y-52782380D01*
X175956666Y-52782380D01*
X176051904Y-52830000D01*
X176099523Y-52877619D01*
X176147142Y-52972857D01*
X176147142Y-53115714D01*
X176099523Y-53210952D01*
X176051904Y-53258571D01*
X175956666Y-53306190D01*
X175575714Y-53306190D01*
X177004285Y-53115714D02*
X177004285Y-53782380D01*
X176766190Y-52734761D02*
X176528095Y-53449047D01*
X177147142Y-53449047D01*
X177670952Y-53210952D02*
X177575714Y-53163333D01*
X177528095Y-53115714D01*
X177480476Y-53020476D01*
X177480476Y-52972857D01*
X177528095Y-52877619D01*
X177575714Y-52830000D01*
X177670952Y-52782380D01*
X177861428Y-52782380D01*
X177956666Y-52830000D01*
X178004285Y-52877619D01*
X178051904Y-52972857D01*
X178051904Y-53020476D01*
X178004285Y-53115714D01*
X177956666Y-53163333D01*
X177861428Y-53210952D01*
X177670952Y-53210952D01*
X177575714Y-53258571D01*
X177528095Y-53306190D01*
X177480476Y-53401428D01*
X177480476Y-53591904D01*
X177528095Y-53687142D01*
X177575714Y-53734761D01*
X177670952Y-53782380D01*
X177861428Y-53782380D01*
X177956666Y-53734761D01*
X178004285Y-53687142D01*
X178051904Y-53591904D01*
X178051904Y-53401428D01*
X178004285Y-53306190D01*
X177956666Y-53258571D01*
X177861428Y-53210952D01*
%TO.C,C29*%
X167357142Y-80642857D02*
X167404761Y-80690476D01*
X167452380Y-80833333D01*
X167452380Y-80928571D01*
X167404761Y-81071428D01*
X167309523Y-81166666D01*
X167214285Y-81214285D01*
X167023809Y-81261904D01*
X166880952Y-81261904D01*
X166690476Y-81214285D01*
X166595238Y-81166666D01*
X166500000Y-81071428D01*
X166452380Y-80928571D01*
X166452380Y-80833333D01*
X166500000Y-80690476D01*
X166547619Y-80642857D01*
X166547619Y-80261904D02*
X166500000Y-80214285D01*
X166452380Y-80119047D01*
X166452380Y-79880952D01*
X166500000Y-79785714D01*
X166547619Y-79738095D01*
X166642857Y-79690476D01*
X166738095Y-79690476D01*
X166880952Y-79738095D01*
X167452380Y-80309523D01*
X167452380Y-79690476D01*
X167452380Y-79214285D02*
X167452380Y-79023809D01*
X167404761Y-78928571D01*
X167357142Y-78880952D01*
X167214285Y-78785714D01*
X167023809Y-78738095D01*
X166642857Y-78738095D01*
X166547619Y-78785714D01*
X166500000Y-78833333D01*
X166452380Y-78928571D01*
X166452380Y-79119047D01*
X166500000Y-79214285D01*
X166547619Y-79261904D01*
X166642857Y-79309523D01*
X166880952Y-79309523D01*
X166976190Y-79261904D01*
X167023809Y-79214285D01*
X167071428Y-79119047D01*
X167071428Y-78928571D01*
X167023809Y-78833333D01*
X166976190Y-78785714D01*
X166880952Y-78738095D01*
%TO.C,R3*%
X120602380Y-56516666D02*
X120126190Y-56850000D01*
X120602380Y-57088095D02*
X119602380Y-57088095D01*
X119602380Y-56707142D01*
X119650000Y-56611904D01*
X119697619Y-56564285D01*
X119792857Y-56516666D01*
X119935714Y-56516666D01*
X120030952Y-56564285D01*
X120078571Y-56611904D01*
X120126190Y-56707142D01*
X120126190Y-57088095D01*
X119602380Y-56183333D02*
X119602380Y-55564285D01*
X119983333Y-55897619D01*
X119983333Y-55754761D01*
X120030952Y-55659523D01*
X120078571Y-55611904D01*
X120173809Y-55564285D01*
X120411904Y-55564285D01*
X120507142Y-55611904D01*
X120554761Y-55659523D01*
X120602380Y-55754761D01*
X120602380Y-56040476D01*
X120554761Y-56135714D01*
X120507142Y-56183333D01*
%TO.C,C21*%
X140807142Y-56357142D02*
X140759523Y-56404761D01*
X140616666Y-56452380D01*
X140521428Y-56452380D01*
X140378571Y-56404761D01*
X140283333Y-56309523D01*
X140235714Y-56214285D01*
X140188095Y-56023809D01*
X140188095Y-55880952D01*
X140235714Y-55690476D01*
X140283333Y-55595238D01*
X140378571Y-55500000D01*
X140521428Y-55452380D01*
X140616666Y-55452380D01*
X140759523Y-55500000D01*
X140807142Y-55547619D01*
X141188095Y-55547619D02*
X141235714Y-55500000D01*
X141330952Y-55452380D01*
X141569047Y-55452380D01*
X141664285Y-55500000D01*
X141711904Y-55547619D01*
X141759523Y-55642857D01*
X141759523Y-55738095D01*
X141711904Y-55880952D01*
X141140476Y-56452380D01*
X141759523Y-56452380D01*
X142711904Y-56452380D02*
X142140476Y-56452380D01*
X142426190Y-56452380D02*
X142426190Y-55452380D01*
X142330952Y-55595238D01*
X142235714Y-55690476D01*
X142140476Y-55738095D01*
%TO.C,C24*%
X122957142Y-78637142D02*
X122909523Y-78684761D01*
X122766666Y-78732380D01*
X122671428Y-78732380D01*
X122528571Y-78684761D01*
X122433333Y-78589523D01*
X122385714Y-78494285D01*
X122338095Y-78303809D01*
X122338095Y-78160952D01*
X122385714Y-77970476D01*
X122433333Y-77875238D01*
X122528571Y-77780000D01*
X122671428Y-77732380D01*
X122766666Y-77732380D01*
X122909523Y-77780000D01*
X122957142Y-77827619D01*
X123338095Y-77827619D02*
X123385714Y-77780000D01*
X123480952Y-77732380D01*
X123719047Y-77732380D01*
X123814285Y-77780000D01*
X123861904Y-77827619D01*
X123909523Y-77922857D01*
X123909523Y-78018095D01*
X123861904Y-78160952D01*
X123290476Y-78732380D01*
X123909523Y-78732380D01*
X124766666Y-78065714D02*
X124766666Y-78732380D01*
X124528571Y-77684761D02*
X124290476Y-78399047D01*
X124909523Y-78399047D01*
%TO.C,C7*%
X142607142Y-52466666D02*
X142654761Y-52514285D01*
X142702380Y-52657142D01*
X142702380Y-52752380D01*
X142654761Y-52895238D01*
X142559523Y-52990476D01*
X142464285Y-53038095D01*
X142273809Y-53085714D01*
X142130952Y-53085714D01*
X141940476Y-53038095D01*
X141845238Y-52990476D01*
X141750000Y-52895238D01*
X141702380Y-52752380D01*
X141702380Y-52657142D01*
X141750000Y-52514285D01*
X141797619Y-52466666D01*
X141702380Y-52133333D02*
X141702380Y-51466666D01*
X142702380Y-51895238D01*
%TO.C,J2*%
X171216666Y-99202380D02*
X171216666Y-99916666D01*
X171169047Y-100059523D01*
X171073809Y-100154761D01*
X170930952Y-100202380D01*
X170835714Y-100202380D01*
X171645238Y-99297619D02*
X171692857Y-99250000D01*
X171788095Y-99202380D01*
X172026190Y-99202380D01*
X172121428Y-99250000D01*
X172169047Y-99297619D01*
X172216666Y-99392857D01*
X172216666Y-99488095D01*
X172169047Y-99630952D01*
X171597619Y-100202380D01*
X172216666Y-100202380D01*
%TO.C,R37*%
X176047142Y-81682380D02*
X175713809Y-81206190D01*
X175475714Y-81682380D02*
X175475714Y-80682380D01*
X175856666Y-80682380D01*
X175951904Y-80730000D01*
X175999523Y-80777619D01*
X176047142Y-80872857D01*
X176047142Y-81015714D01*
X175999523Y-81110952D01*
X175951904Y-81158571D01*
X175856666Y-81206190D01*
X175475714Y-81206190D01*
X176380476Y-80682380D02*
X176999523Y-80682380D01*
X176666190Y-81063333D01*
X176809047Y-81063333D01*
X176904285Y-81110952D01*
X176951904Y-81158571D01*
X176999523Y-81253809D01*
X176999523Y-81491904D01*
X176951904Y-81587142D01*
X176904285Y-81634761D01*
X176809047Y-81682380D01*
X176523333Y-81682380D01*
X176428095Y-81634761D01*
X176380476Y-81587142D01*
X177332857Y-80682380D02*
X177999523Y-80682380D01*
X177570952Y-81682380D01*
%TO.C,J9*%
X169666666Y-78452380D02*
X169666666Y-79166666D01*
X169619047Y-79309523D01*
X169523809Y-79404761D01*
X169380952Y-79452380D01*
X169285714Y-79452380D01*
X170190476Y-79452380D02*
X170380952Y-79452380D01*
X170476190Y-79404761D01*
X170523809Y-79357142D01*
X170619047Y-79214285D01*
X170666666Y-79023809D01*
X170666666Y-78642857D01*
X170619047Y-78547619D01*
X170571428Y-78500000D01*
X170476190Y-78452380D01*
X170285714Y-78452380D01*
X170190476Y-78500000D01*
X170142857Y-78547619D01*
X170095238Y-78642857D01*
X170095238Y-78880952D01*
X170142857Y-78976190D01*
X170190476Y-79023809D01*
X170285714Y-79071428D01*
X170476190Y-79071428D01*
X170571428Y-79023809D01*
X170619047Y-78976190D01*
X170666666Y-78880952D01*
%TO.C,R45*%
X176047142Y-61382380D02*
X175713809Y-60906190D01*
X175475714Y-61382380D02*
X175475714Y-60382380D01*
X175856666Y-60382380D01*
X175951904Y-60430000D01*
X175999523Y-60477619D01*
X176047142Y-60572857D01*
X176047142Y-60715714D01*
X175999523Y-60810952D01*
X175951904Y-60858571D01*
X175856666Y-60906190D01*
X175475714Y-60906190D01*
X176904285Y-60715714D02*
X176904285Y-61382380D01*
X176666190Y-60334761D02*
X176428095Y-61049047D01*
X177047142Y-61049047D01*
X177904285Y-60382380D02*
X177428095Y-60382380D01*
X177380476Y-60858571D01*
X177428095Y-60810952D01*
X177523333Y-60763333D01*
X177761428Y-60763333D01*
X177856666Y-60810952D01*
X177904285Y-60858571D01*
X177951904Y-60953809D01*
X177951904Y-61191904D01*
X177904285Y-61287142D01*
X177856666Y-61334761D01*
X177761428Y-61382380D01*
X177523333Y-61382380D01*
X177428095Y-61334761D01*
X177380476Y-61287142D01*
%TO.C,R47*%
X176147142Y-56282380D02*
X175813809Y-55806190D01*
X175575714Y-56282380D02*
X175575714Y-55282380D01*
X175956666Y-55282380D01*
X176051904Y-55330000D01*
X176099523Y-55377619D01*
X176147142Y-55472857D01*
X176147142Y-55615714D01*
X176099523Y-55710952D01*
X176051904Y-55758571D01*
X175956666Y-55806190D01*
X175575714Y-55806190D01*
X177004285Y-55615714D02*
X177004285Y-56282380D01*
X176766190Y-55234761D02*
X176528095Y-55949047D01*
X177147142Y-55949047D01*
X177432857Y-55282380D02*
X178099523Y-55282380D01*
X177670952Y-56282380D01*
%TO.C,R7*%
X149383333Y-60782380D02*
X149050000Y-60306190D01*
X148811904Y-60782380D02*
X148811904Y-59782380D01*
X149192857Y-59782380D01*
X149288095Y-59830000D01*
X149335714Y-59877619D01*
X149383333Y-59972857D01*
X149383333Y-60115714D01*
X149335714Y-60210952D01*
X149288095Y-60258571D01*
X149192857Y-60306190D01*
X148811904Y-60306190D01*
X149716666Y-59782380D02*
X150383333Y-59782380D01*
X149954761Y-60782380D01*
%TO.C,U6*%
X157417380Y-75811904D02*
X158226904Y-75811904D01*
X158322142Y-75764285D01*
X158369761Y-75716666D01*
X158417380Y-75621428D01*
X158417380Y-75430952D01*
X158369761Y-75335714D01*
X158322142Y-75288095D01*
X158226904Y-75240476D01*
X157417380Y-75240476D01*
X157417380Y-74335714D02*
X157417380Y-74526190D01*
X157465000Y-74621428D01*
X157512619Y-74669047D01*
X157655476Y-74764285D01*
X157845952Y-74811904D01*
X158226904Y-74811904D01*
X158322142Y-74764285D01*
X158369761Y-74716666D01*
X158417380Y-74621428D01*
X158417380Y-74430952D01*
X158369761Y-74335714D01*
X158322142Y-74288095D01*
X158226904Y-74240476D01*
X157988809Y-74240476D01*
X157893571Y-74288095D01*
X157845952Y-74335714D01*
X157798333Y-74430952D01*
X157798333Y-74621428D01*
X157845952Y-74716666D01*
X157893571Y-74764285D01*
X157988809Y-74811904D01*
%TO.C,C25*%
X162557142Y-68892857D02*
X162604761Y-68940476D01*
X162652380Y-69083333D01*
X162652380Y-69178571D01*
X162604761Y-69321428D01*
X162509523Y-69416666D01*
X162414285Y-69464285D01*
X162223809Y-69511904D01*
X162080952Y-69511904D01*
X161890476Y-69464285D01*
X161795238Y-69416666D01*
X161700000Y-69321428D01*
X161652380Y-69178571D01*
X161652380Y-69083333D01*
X161700000Y-68940476D01*
X161747619Y-68892857D01*
X161747619Y-68511904D02*
X161700000Y-68464285D01*
X161652380Y-68369047D01*
X161652380Y-68130952D01*
X161700000Y-68035714D01*
X161747619Y-67988095D01*
X161842857Y-67940476D01*
X161938095Y-67940476D01*
X162080952Y-67988095D01*
X162652380Y-68559523D01*
X162652380Y-67940476D01*
X161652380Y-67035714D02*
X161652380Y-67511904D01*
X162128571Y-67559523D01*
X162080952Y-67511904D01*
X162033333Y-67416666D01*
X162033333Y-67178571D01*
X162080952Y-67083333D01*
X162128571Y-67035714D01*
X162223809Y-66988095D01*
X162461904Y-66988095D01*
X162557142Y-67035714D01*
X162604761Y-67083333D01*
X162652380Y-67178571D01*
X162652380Y-67416666D01*
X162604761Y-67511904D01*
X162557142Y-67559523D01*
%TO.C,R32*%
X176047142Y-96982380D02*
X175713809Y-96506190D01*
X175475714Y-96982380D02*
X175475714Y-95982380D01*
X175856666Y-95982380D01*
X175951904Y-96030000D01*
X175999523Y-96077619D01*
X176047142Y-96172857D01*
X176047142Y-96315714D01*
X175999523Y-96410952D01*
X175951904Y-96458571D01*
X175856666Y-96506190D01*
X175475714Y-96506190D01*
X176380476Y-95982380D02*
X176999523Y-95982380D01*
X176666190Y-96363333D01*
X176809047Y-96363333D01*
X176904285Y-96410952D01*
X176951904Y-96458571D01*
X176999523Y-96553809D01*
X176999523Y-96791904D01*
X176951904Y-96887142D01*
X176904285Y-96934761D01*
X176809047Y-96982380D01*
X176523333Y-96982380D01*
X176428095Y-96934761D01*
X176380476Y-96887142D01*
X177380476Y-96077619D02*
X177428095Y-96030000D01*
X177523333Y-95982380D01*
X177761428Y-95982380D01*
X177856666Y-96030000D01*
X177904285Y-96077619D01*
X177951904Y-96172857D01*
X177951904Y-96268095D01*
X177904285Y-96410952D01*
X177332857Y-96982380D01*
X177951904Y-96982380D01*
%TO.C,R40*%
X176047142Y-74082380D02*
X175713809Y-73606190D01*
X175475714Y-74082380D02*
X175475714Y-73082380D01*
X175856666Y-73082380D01*
X175951904Y-73130000D01*
X175999523Y-73177619D01*
X176047142Y-73272857D01*
X176047142Y-73415714D01*
X175999523Y-73510952D01*
X175951904Y-73558571D01*
X175856666Y-73606190D01*
X175475714Y-73606190D01*
X176904285Y-73415714D02*
X176904285Y-74082380D01*
X176666190Y-73034761D02*
X176428095Y-73749047D01*
X177047142Y-73749047D01*
X177618571Y-73082380D02*
X177713809Y-73082380D01*
X177809047Y-73130000D01*
X177856666Y-73177619D01*
X177904285Y-73272857D01*
X177951904Y-73463333D01*
X177951904Y-73701428D01*
X177904285Y-73891904D01*
X177856666Y-73987142D01*
X177809047Y-74034761D01*
X177713809Y-74082380D01*
X177618571Y-74082380D01*
X177523333Y-74034761D01*
X177475714Y-73987142D01*
X177428095Y-73891904D01*
X177380476Y-73701428D01*
X177380476Y-73463333D01*
X177428095Y-73272857D01*
X177475714Y-73177619D01*
X177523333Y-73130000D01*
X177618571Y-73082380D01*
%TO.C,R35*%
X176067142Y-86782380D02*
X175733809Y-86306190D01*
X175495714Y-86782380D02*
X175495714Y-85782380D01*
X175876666Y-85782380D01*
X175971904Y-85830000D01*
X176019523Y-85877619D01*
X176067142Y-85972857D01*
X176067142Y-86115714D01*
X176019523Y-86210952D01*
X175971904Y-86258571D01*
X175876666Y-86306190D01*
X175495714Y-86306190D01*
X176400476Y-85782380D02*
X177019523Y-85782380D01*
X176686190Y-86163333D01*
X176829047Y-86163333D01*
X176924285Y-86210952D01*
X176971904Y-86258571D01*
X177019523Y-86353809D01*
X177019523Y-86591904D01*
X176971904Y-86687142D01*
X176924285Y-86734761D01*
X176829047Y-86782380D01*
X176543333Y-86782380D01*
X176448095Y-86734761D01*
X176400476Y-86687142D01*
X177924285Y-85782380D02*
X177448095Y-85782380D01*
X177400476Y-86258571D01*
X177448095Y-86210952D01*
X177543333Y-86163333D01*
X177781428Y-86163333D01*
X177876666Y-86210952D01*
X177924285Y-86258571D01*
X177971904Y-86353809D01*
X177971904Y-86591904D01*
X177924285Y-86687142D01*
X177876666Y-86734761D01*
X177781428Y-86782380D01*
X177543333Y-86782380D01*
X177448095Y-86734761D01*
X177400476Y-86687142D01*
%TO.C,FB1*%
X133791666Y-55328571D02*
X133458333Y-55328571D01*
X133458333Y-55852380D02*
X133458333Y-54852380D01*
X133934523Y-54852380D01*
X134648809Y-55328571D02*
X134791666Y-55376190D01*
X134839285Y-55423809D01*
X134886904Y-55519047D01*
X134886904Y-55661904D01*
X134839285Y-55757142D01*
X134791666Y-55804761D01*
X134696428Y-55852380D01*
X134315476Y-55852380D01*
X134315476Y-54852380D01*
X134648809Y-54852380D01*
X134744047Y-54900000D01*
X134791666Y-54947619D01*
X134839285Y-55042857D01*
X134839285Y-55138095D01*
X134791666Y-55233333D01*
X134744047Y-55280952D01*
X134648809Y-55328571D01*
X134315476Y-55328571D01*
X135839285Y-55852380D02*
X135267857Y-55852380D01*
X135553571Y-55852380D02*
X135553571Y-54852380D01*
X135458333Y-54995238D01*
X135363095Y-55090476D01*
X135267857Y-55138095D01*
%TO.C,R8*%
X126702380Y-78296666D02*
X126226190Y-78630000D01*
X126702380Y-78868095D02*
X125702380Y-78868095D01*
X125702380Y-78487142D01*
X125750000Y-78391904D01*
X125797619Y-78344285D01*
X125892857Y-78296666D01*
X126035714Y-78296666D01*
X126130952Y-78344285D01*
X126178571Y-78391904D01*
X126226190Y-78487142D01*
X126226190Y-78868095D01*
X126130952Y-77725238D02*
X126083333Y-77820476D01*
X126035714Y-77868095D01*
X125940476Y-77915714D01*
X125892857Y-77915714D01*
X125797619Y-77868095D01*
X125750000Y-77820476D01*
X125702380Y-77725238D01*
X125702380Y-77534761D01*
X125750000Y-77439523D01*
X125797619Y-77391904D01*
X125892857Y-77344285D01*
X125940476Y-77344285D01*
X126035714Y-77391904D01*
X126083333Y-77439523D01*
X126130952Y-77534761D01*
X126130952Y-77725238D01*
X126178571Y-77820476D01*
X126226190Y-77868095D01*
X126321428Y-77915714D01*
X126511904Y-77915714D01*
X126607142Y-77868095D01*
X126654761Y-77820476D01*
X126702380Y-77725238D01*
X126702380Y-77534761D01*
X126654761Y-77439523D01*
X126607142Y-77391904D01*
X126511904Y-77344285D01*
X126321428Y-77344285D01*
X126226190Y-77391904D01*
X126178571Y-77439523D01*
X126130952Y-77534761D01*
%TO.C,Y1*%
X157276190Y-56213690D02*
X157752380Y-56213690D01*
X156752380Y-56547023D02*
X157276190Y-56213690D01*
X156752380Y-55880357D01*
X157752380Y-55023214D02*
X157752380Y-55594642D01*
X157752380Y-55308928D02*
X156752380Y-55308928D01*
X156895238Y-55404166D01*
X156990476Y-55499404D01*
X157038095Y-55594642D01*
%TO.C,U3*%
X148638095Y-63902380D02*
X148638095Y-64711904D01*
X148685714Y-64807142D01*
X148733333Y-64854761D01*
X148828571Y-64902380D01*
X149019047Y-64902380D01*
X149114285Y-64854761D01*
X149161904Y-64807142D01*
X149209523Y-64711904D01*
X149209523Y-63902380D01*
X149590476Y-63902380D02*
X150209523Y-63902380D01*
X149876190Y-64283333D01*
X150019047Y-64283333D01*
X150114285Y-64330952D01*
X150161904Y-64378571D01*
X150209523Y-64473809D01*
X150209523Y-64711904D01*
X150161904Y-64807142D01*
X150114285Y-64854761D01*
X150019047Y-64902380D01*
X149733333Y-64902380D01*
X149638095Y-64854761D01*
X149590476Y-64807142D01*
%TO.C,R41*%
X176047142Y-71482380D02*
X175713809Y-71006190D01*
X175475714Y-71482380D02*
X175475714Y-70482380D01*
X175856666Y-70482380D01*
X175951904Y-70530000D01*
X175999523Y-70577619D01*
X176047142Y-70672857D01*
X176047142Y-70815714D01*
X175999523Y-70910952D01*
X175951904Y-70958571D01*
X175856666Y-71006190D01*
X175475714Y-71006190D01*
X176904285Y-70815714D02*
X176904285Y-71482380D01*
X176666190Y-70434761D02*
X176428095Y-71149047D01*
X177047142Y-71149047D01*
X177951904Y-71482380D02*
X177380476Y-71482380D01*
X177666190Y-71482380D02*
X177666190Y-70482380D01*
X177570952Y-70625238D01*
X177475714Y-70720476D01*
X177380476Y-70768095D01*
%TO.C,C23*%
X118357142Y-78257142D02*
X118309523Y-78304761D01*
X118166666Y-78352380D01*
X118071428Y-78352380D01*
X117928571Y-78304761D01*
X117833333Y-78209523D01*
X117785714Y-78114285D01*
X117738095Y-77923809D01*
X117738095Y-77780952D01*
X117785714Y-77590476D01*
X117833333Y-77495238D01*
X117928571Y-77400000D01*
X118071428Y-77352380D01*
X118166666Y-77352380D01*
X118309523Y-77400000D01*
X118357142Y-77447619D01*
X118738095Y-77447619D02*
X118785714Y-77400000D01*
X118880952Y-77352380D01*
X119119047Y-77352380D01*
X119214285Y-77400000D01*
X119261904Y-77447619D01*
X119309523Y-77542857D01*
X119309523Y-77638095D01*
X119261904Y-77780952D01*
X118690476Y-78352380D01*
X119309523Y-78352380D01*
X119642857Y-77352380D02*
X120261904Y-77352380D01*
X119928571Y-77733333D01*
X120071428Y-77733333D01*
X120166666Y-77780952D01*
X120214285Y-77828571D01*
X120261904Y-77923809D01*
X120261904Y-78161904D01*
X120214285Y-78257142D01*
X120166666Y-78304761D01*
X120071428Y-78352380D01*
X119785714Y-78352380D01*
X119690476Y-78304761D01*
X119642857Y-78257142D01*
%TO.C,FB3*%
X171966666Y-70928571D02*
X171633333Y-70928571D01*
X171633333Y-71452380D02*
X171633333Y-70452380D01*
X172109523Y-70452380D01*
X172823809Y-70928571D02*
X172966666Y-70976190D01*
X173014285Y-71023809D01*
X173061904Y-71119047D01*
X173061904Y-71261904D01*
X173014285Y-71357142D01*
X172966666Y-71404761D01*
X172871428Y-71452380D01*
X172490476Y-71452380D01*
X172490476Y-70452380D01*
X172823809Y-70452380D01*
X172919047Y-70500000D01*
X172966666Y-70547619D01*
X173014285Y-70642857D01*
X173014285Y-70738095D01*
X172966666Y-70833333D01*
X172919047Y-70880952D01*
X172823809Y-70928571D01*
X172490476Y-70928571D01*
X173395238Y-70452380D02*
X174014285Y-70452380D01*
X173680952Y-70833333D01*
X173823809Y-70833333D01*
X173919047Y-70880952D01*
X173966666Y-70928571D01*
X174014285Y-71023809D01*
X174014285Y-71261904D01*
X173966666Y-71357142D01*
X173919047Y-71404761D01*
X173823809Y-71452380D01*
X173538095Y-71452380D01*
X173442857Y-71404761D01*
X173395238Y-71357142D01*
%TO.C,C26*%
X163857142Y-69207142D02*
X163809523Y-69254761D01*
X163666666Y-69302380D01*
X163571428Y-69302380D01*
X163428571Y-69254761D01*
X163333333Y-69159523D01*
X163285714Y-69064285D01*
X163238095Y-68873809D01*
X163238095Y-68730952D01*
X163285714Y-68540476D01*
X163333333Y-68445238D01*
X163428571Y-68350000D01*
X163571428Y-68302380D01*
X163666666Y-68302380D01*
X163809523Y-68350000D01*
X163857142Y-68397619D01*
X164238095Y-68397619D02*
X164285714Y-68350000D01*
X164380952Y-68302380D01*
X164619047Y-68302380D01*
X164714285Y-68350000D01*
X164761904Y-68397619D01*
X164809523Y-68492857D01*
X164809523Y-68588095D01*
X164761904Y-68730952D01*
X164190476Y-69302380D01*
X164809523Y-69302380D01*
X165666666Y-68302380D02*
X165476190Y-68302380D01*
X165380952Y-68350000D01*
X165333333Y-68397619D01*
X165238095Y-68540476D01*
X165190476Y-68730952D01*
X165190476Y-69111904D01*
X165238095Y-69207142D01*
X165285714Y-69254761D01*
X165380952Y-69302380D01*
X165571428Y-69302380D01*
X165666666Y-69254761D01*
X165714285Y-69207142D01*
X165761904Y-69111904D01*
X165761904Y-68873809D01*
X165714285Y-68778571D01*
X165666666Y-68730952D01*
X165571428Y-68683333D01*
X165380952Y-68683333D01*
X165285714Y-68730952D01*
X165238095Y-68778571D01*
X165190476Y-68873809D01*
%TO.C,U4*%
X124688095Y-54292380D02*
X124688095Y-55101904D01*
X124735714Y-55197142D01*
X124783333Y-55244761D01*
X124878571Y-55292380D01*
X125069047Y-55292380D01*
X125164285Y-55244761D01*
X125211904Y-55197142D01*
X125259523Y-55101904D01*
X125259523Y-54292380D01*
X126164285Y-54625714D02*
X126164285Y-55292380D01*
X125926190Y-54244761D02*
X125688095Y-54959047D01*
X126307142Y-54959047D01*
%TO.C,J3*%
X181836666Y-103952380D02*
X181836666Y-104666666D01*
X181789047Y-104809523D01*
X181693809Y-104904761D01*
X181550952Y-104952380D01*
X181455714Y-104952380D01*
X182217619Y-103952380D02*
X182836666Y-103952380D01*
X182503333Y-104333333D01*
X182646190Y-104333333D01*
X182741428Y-104380952D01*
X182789047Y-104428571D01*
X182836666Y-104523809D01*
X182836666Y-104761904D01*
X182789047Y-104857142D01*
X182741428Y-104904761D01*
X182646190Y-104952380D01*
X182360476Y-104952380D01*
X182265238Y-104904761D01*
X182217619Y-104857142D01*
%TO.C,R1*%
X146733333Y-53452380D02*
X146400000Y-52976190D01*
X146161904Y-53452380D02*
X146161904Y-52452380D01*
X146542857Y-52452380D01*
X146638095Y-52500000D01*
X146685714Y-52547619D01*
X146733333Y-52642857D01*
X146733333Y-52785714D01*
X146685714Y-52880952D01*
X146638095Y-52928571D01*
X146542857Y-52976190D01*
X146161904Y-52976190D01*
X147685714Y-53452380D02*
X147114285Y-53452380D01*
X147400000Y-53452380D02*
X147400000Y-52452380D01*
X147304761Y-52595238D01*
X147209523Y-52690476D01*
X147114285Y-52738095D01*
%TO.C,C20*%
X158437142Y-58670357D02*
X158484761Y-58717976D01*
X158532380Y-58860833D01*
X158532380Y-58956071D01*
X158484761Y-59098928D01*
X158389523Y-59194166D01*
X158294285Y-59241785D01*
X158103809Y-59289404D01*
X157960952Y-59289404D01*
X157770476Y-59241785D01*
X157675238Y-59194166D01*
X157580000Y-59098928D01*
X157532380Y-58956071D01*
X157532380Y-58860833D01*
X157580000Y-58717976D01*
X157627619Y-58670357D01*
X157627619Y-58289404D02*
X157580000Y-58241785D01*
X157532380Y-58146547D01*
X157532380Y-57908452D01*
X157580000Y-57813214D01*
X157627619Y-57765595D01*
X157722857Y-57717976D01*
X157818095Y-57717976D01*
X157960952Y-57765595D01*
X158532380Y-58337023D01*
X158532380Y-57717976D01*
X157532380Y-57098928D02*
X157532380Y-57003690D01*
X157580000Y-56908452D01*
X157627619Y-56860833D01*
X157722857Y-56813214D01*
X157913333Y-56765595D01*
X158151428Y-56765595D01*
X158341904Y-56813214D01*
X158437142Y-56860833D01*
X158484761Y-56908452D01*
X158532380Y-57003690D01*
X158532380Y-57098928D01*
X158484761Y-57194166D01*
X158437142Y-57241785D01*
X158341904Y-57289404D01*
X158151428Y-57337023D01*
X157913333Y-57337023D01*
X157722857Y-57289404D01*
X157627619Y-57241785D01*
X157580000Y-57194166D01*
X157532380Y-57098928D01*
%TO.C,J5*%
X131552380Y-48833333D02*
X132266666Y-48833333D01*
X132409523Y-48880952D01*
X132504761Y-48976190D01*
X132552380Y-49119047D01*
X132552380Y-49214285D01*
X131552380Y-47880952D02*
X131552380Y-48357142D01*
X132028571Y-48404761D01*
X131980952Y-48357142D01*
X131933333Y-48261904D01*
X131933333Y-48023809D01*
X131980952Y-47928571D01*
X132028571Y-47880952D01*
X132123809Y-47833333D01*
X132361904Y-47833333D01*
X132457142Y-47880952D01*
X132504761Y-47928571D01*
X132552380Y-48023809D01*
X132552380Y-48261904D01*
X132504761Y-48357142D01*
X132457142Y-48404761D01*
%TO.C,J1*%
X143216666Y-99302380D02*
X143216666Y-100016666D01*
X143169047Y-100159523D01*
X143073809Y-100254761D01*
X142930952Y-100302380D01*
X142835714Y-100302380D01*
X144216666Y-100302380D02*
X143645238Y-100302380D01*
X143930952Y-100302380D02*
X143930952Y-99302380D01*
X143835714Y-99445238D01*
X143740476Y-99540476D01*
X143645238Y-99588095D01*
%TO.C,X1*%
X156790476Y-59602380D02*
X157457142Y-60602380D01*
X157457142Y-59602380D02*
X156790476Y-60602380D01*
X158361904Y-60602380D02*
X157790476Y-60602380D01*
X158076190Y-60602380D02*
X158076190Y-59602380D01*
X157980952Y-59745238D01*
X157885714Y-59840476D01*
X157790476Y-59888095D01*
%TO.C,C18*%
X146507142Y-66757142D02*
X146459523Y-66804761D01*
X146316666Y-66852380D01*
X146221428Y-66852380D01*
X146078571Y-66804761D01*
X145983333Y-66709523D01*
X145935714Y-66614285D01*
X145888095Y-66423809D01*
X145888095Y-66280952D01*
X145935714Y-66090476D01*
X145983333Y-65995238D01*
X146078571Y-65900000D01*
X146221428Y-65852380D01*
X146316666Y-65852380D01*
X146459523Y-65900000D01*
X146507142Y-65947619D01*
X147459523Y-66852380D02*
X146888095Y-66852380D01*
X147173809Y-66852380D02*
X147173809Y-65852380D01*
X147078571Y-65995238D01*
X146983333Y-66090476D01*
X146888095Y-66138095D01*
X148030952Y-66280952D02*
X147935714Y-66233333D01*
X147888095Y-66185714D01*
X147840476Y-66090476D01*
X147840476Y-66042857D01*
X147888095Y-65947619D01*
X147935714Y-65900000D01*
X148030952Y-65852380D01*
X148221428Y-65852380D01*
X148316666Y-65900000D01*
X148364285Y-65947619D01*
X148411904Y-66042857D01*
X148411904Y-66090476D01*
X148364285Y-66185714D01*
X148316666Y-66233333D01*
X148221428Y-66280952D01*
X148030952Y-66280952D01*
X147935714Y-66328571D01*
X147888095Y-66376190D01*
X147840476Y-66471428D01*
X147840476Y-66661904D01*
X147888095Y-66757142D01*
X147935714Y-66804761D01*
X148030952Y-66852380D01*
X148221428Y-66852380D01*
X148316666Y-66804761D01*
X148364285Y-66757142D01*
X148411904Y-66661904D01*
X148411904Y-66471428D01*
X148364285Y-66376190D01*
X148316666Y-66328571D01*
X148221428Y-66280952D01*
%TO.C,U2*%
X115888095Y-73552380D02*
X115888095Y-74361904D01*
X115935714Y-74457142D01*
X115983333Y-74504761D01*
X116078571Y-74552380D01*
X116269047Y-74552380D01*
X116364285Y-74504761D01*
X116411904Y-74457142D01*
X116459523Y-74361904D01*
X116459523Y-73552380D01*
X116888095Y-73647619D02*
X116935714Y-73600000D01*
X117030952Y-73552380D01*
X117269047Y-73552380D01*
X117364285Y-73600000D01*
X117411904Y-73647619D01*
X117459523Y-73742857D01*
X117459523Y-73838095D01*
X117411904Y-73980952D01*
X116840476Y-74552380D01*
X117459523Y-74552380D01*
%TO.C,J8*%
X165666666Y-70852380D02*
X165666666Y-71566666D01*
X165619047Y-71709523D01*
X165523809Y-71804761D01*
X165380952Y-71852380D01*
X165285714Y-71852380D01*
X166285714Y-71280952D02*
X166190476Y-71233333D01*
X166142857Y-71185714D01*
X166095238Y-71090476D01*
X166095238Y-71042857D01*
X166142857Y-70947619D01*
X166190476Y-70900000D01*
X166285714Y-70852380D01*
X166476190Y-70852380D01*
X166571428Y-70900000D01*
X166619047Y-70947619D01*
X166666666Y-71042857D01*
X166666666Y-71090476D01*
X166619047Y-71185714D01*
X166571428Y-71233333D01*
X166476190Y-71280952D01*
X166285714Y-71280952D01*
X166190476Y-71328571D01*
X166142857Y-71376190D01*
X166095238Y-71471428D01*
X166095238Y-71661904D01*
X166142857Y-71757142D01*
X166190476Y-71804761D01*
X166285714Y-71852380D01*
X166476190Y-71852380D01*
X166571428Y-71804761D01*
X166619047Y-71757142D01*
X166666666Y-71661904D01*
X166666666Y-71471428D01*
X166619047Y-71376190D01*
X166571428Y-71328571D01*
X166476190Y-71280952D01*
%TO.C,R36*%
X176047142Y-84282380D02*
X175713809Y-83806190D01*
X175475714Y-84282380D02*
X175475714Y-83282380D01*
X175856666Y-83282380D01*
X175951904Y-83330000D01*
X175999523Y-83377619D01*
X176047142Y-83472857D01*
X176047142Y-83615714D01*
X175999523Y-83710952D01*
X175951904Y-83758571D01*
X175856666Y-83806190D01*
X175475714Y-83806190D01*
X176380476Y-83282380D02*
X176999523Y-83282380D01*
X176666190Y-83663333D01*
X176809047Y-83663333D01*
X176904285Y-83710952D01*
X176951904Y-83758571D01*
X176999523Y-83853809D01*
X176999523Y-84091904D01*
X176951904Y-84187142D01*
X176904285Y-84234761D01*
X176809047Y-84282380D01*
X176523333Y-84282380D01*
X176428095Y-84234761D01*
X176380476Y-84187142D01*
X177856666Y-83282380D02*
X177666190Y-83282380D01*
X177570952Y-83330000D01*
X177523333Y-83377619D01*
X177428095Y-83520476D01*
X177380476Y-83710952D01*
X177380476Y-84091904D01*
X177428095Y-84187142D01*
X177475714Y-84234761D01*
X177570952Y-84282380D01*
X177761428Y-84282380D01*
X177856666Y-84234761D01*
X177904285Y-84187142D01*
X177951904Y-84091904D01*
X177951904Y-83853809D01*
X177904285Y-83758571D01*
X177856666Y-83710952D01*
X177761428Y-83663333D01*
X177570952Y-83663333D01*
X177475714Y-83710952D01*
X177428095Y-83758571D01*
X177380476Y-83853809D01*
%TO.C,J4*%
X152016666Y-47402380D02*
X152016666Y-48116666D01*
X151969047Y-48259523D01*
X151873809Y-48354761D01*
X151730952Y-48402380D01*
X151635714Y-48402380D01*
X152921428Y-47735714D02*
X152921428Y-48402380D01*
X152683333Y-47354761D02*
X152445238Y-48069047D01*
X153064285Y-48069047D01*
%TO.C,C11*%
X146507142Y-68007142D02*
X146459523Y-68054761D01*
X146316666Y-68102380D01*
X146221428Y-68102380D01*
X146078571Y-68054761D01*
X145983333Y-67959523D01*
X145935714Y-67864285D01*
X145888095Y-67673809D01*
X145888095Y-67530952D01*
X145935714Y-67340476D01*
X145983333Y-67245238D01*
X146078571Y-67150000D01*
X146221428Y-67102380D01*
X146316666Y-67102380D01*
X146459523Y-67150000D01*
X146507142Y-67197619D01*
X147459523Y-68102380D02*
X146888095Y-68102380D01*
X147173809Y-68102380D02*
X147173809Y-67102380D01*
X147078571Y-67245238D01*
X146983333Y-67340476D01*
X146888095Y-67388095D01*
X148411904Y-68102380D02*
X147840476Y-68102380D01*
X148126190Y-68102380D02*
X148126190Y-67102380D01*
X148030952Y-67245238D01*
X147935714Y-67340476D01*
X147840476Y-67388095D01*
%TO.C,U1*%
X143738095Y-68252380D02*
X143738095Y-69061904D01*
X143785714Y-69157142D01*
X143833333Y-69204761D01*
X143928571Y-69252380D01*
X144119047Y-69252380D01*
X144214285Y-69204761D01*
X144261904Y-69157142D01*
X144309523Y-69061904D01*
X144309523Y-68252380D01*
X145309523Y-69252380D02*
X144738095Y-69252380D01*
X145023809Y-69252380D02*
X145023809Y-68252380D01*
X144928571Y-68395238D01*
X144833333Y-68490476D01*
X144738095Y-68538095D01*
%TO.C,C10*%
X137957142Y-66457142D02*
X137909523Y-66504761D01*
X137766666Y-66552380D01*
X137671428Y-66552380D01*
X137528571Y-66504761D01*
X137433333Y-66409523D01*
X137385714Y-66314285D01*
X137338095Y-66123809D01*
X137338095Y-65980952D01*
X137385714Y-65790476D01*
X137433333Y-65695238D01*
X137528571Y-65600000D01*
X137671428Y-65552380D01*
X137766666Y-65552380D01*
X137909523Y-65600000D01*
X137957142Y-65647619D01*
X138909523Y-66552380D02*
X138338095Y-66552380D01*
X138623809Y-66552380D02*
X138623809Y-65552380D01*
X138528571Y-65695238D01*
X138433333Y-65790476D01*
X138338095Y-65838095D01*
X139528571Y-65552380D02*
X139623809Y-65552380D01*
X139719047Y-65600000D01*
X139766666Y-65647619D01*
X139814285Y-65742857D01*
X139861904Y-65933333D01*
X139861904Y-66171428D01*
X139814285Y-66361904D01*
X139766666Y-66457142D01*
X139719047Y-66504761D01*
X139623809Y-66552380D01*
X139528571Y-66552380D01*
X139433333Y-66504761D01*
X139385714Y-66457142D01*
X139338095Y-66361904D01*
X139290476Y-66171428D01*
X139290476Y-65933333D01*
X139338095Y-65742857D01*
X139385714Y-65647619D01*
X139433333Y-65600000D01*
X139528571Y-65552380D01*
%TO.C,R31*%
X168052380Y-67442857D02*
X167576190Y-67776190D01*
X168052380Y-68014285D02*
X167052380Y-68014285D01*
X167052380Y-67633333D01*
X167100000Y-67538095D01*
X167147619Y-67490476D01*
X167242857Y-67442857D01*
X167385714Y-67442857D01*
X167480952Y-67490476D01*
X167528571Y-67538095D01*
X167576190Y-67633333D01*
X167576190Y-68014285D01*
X167052380Y-67109523D02*
X167052380Y-66490476D01*
X167433333Y-66823809D01*
X167433333Y-66680952D01*
X167480952Y-66585714D01*
X167528571Y-66538095D01*
X167623809Y-66490476D01*
X167861904Y-66490476D01*
X167957142Y-66538095D01*
X168004761Y-66585714D01*
X168052380Y-66680952D01*
X168052380Y-66966666D01*
X168004761Y-67061904D01*
X167957142Y-67109523D01*
X168052380Y-65538095D02*
X168052380Y-66109523D01*
X168052380Y-65823809D02*
X167052380Y-65823809D01*
X167195238Y-65919047D01*
X167290476Y-66014285D01*
X167338095Y-66109523D01*
%TO.C,J7*%
X168966666Y-63202380D02*
X168966666Y-63916666D01*
X168919047Y-64059523D01*
X168823809Y-64154761D01*
X168680952Y-64202380D01*
X168585714Y-64202380D01*
X169347619Y-63202380D02*
X170014285Y-63202380D01*
X169585714Y-64202380D01*
%TO.C,C30*%
X172207142Y-69407142D02*
X172159523Y-69454761D01*
X172016666Y-69502380D01*
X171921428Y-69502380D01*
X171778571Y-69454761D01*
X171683333Y-69359523D01*
X171635714Y-69264285D01*
X171588095Y-69073809D01*
X171588095Y-68930952D01*
X171635714Y-68740476D01*
X171683333Y-68645238D01*
X171778571Y-68550000D01*
X171921428Y-68502380D01*
X172016666Y-68502380D01*
X172159523Y-68550000D01*
X172207142Y-68597619D01*
X172540476Y-68502380D02*
X173159523Y-68502380D01*
X172826190Y-68883333D01*
X172969047Y-68883333D01*
X173064285Y-68930952D01*
X173111904Y-68978571D01*
X173159523Y-69073809D01*
X173159523Y-69311904D01*
X173111904Y-69407142D01*
X173064285Y-69454761D01*
X172969047Y-69502380D01*
X172683333Y-69502380D01*
X172588095Y-69454761D01*
X172540476Y-69407142D01*
X173778571Y-68502380D02*
X173873809Y-68502380D01*
X173969047Y-68550000D01*
X174016666Y-68597619D01*
X174064285Y-68692857D01*
X174111904Y-68883333D01*
X174111904Y-69121428D01*
X174064285Y-69311904D01*
X174016666Y-69407142D01*
X173969047Y-69454761D01*
X173873809Y-69502380D01*
X173778571Y-69502380D01*
X173683333Y-69454761D01*
X173635714Y-69407142D01*
X173588095Y-69311904D01*
X173540476Y-69121428D01*
X173540476Y-68883333D01*
X173588095Y-68692857D01*
X173635714Y-68597619D01*
X173683333Y-68550000D01*
X173778571Y-68502380D01*
%TO.C,C6*%
X143857142Y-52526666D02*
X143904761Y-52574285D01*
X143952380Y-52717142D01*
X143952380Y-52812380D01*
X143904761Y-52955238D01*
X143809523Y-53050476D01*
X143714285Y-53098095D01*
X143523809Y-53145714D01*
X143380952Y-53145714D01*
X143190476Y-53098095D01*
X143095238Y-53050476D01*
X143000000Y-52955238D01*
X142952380Y-52812380D01*
X142952380Y-52717142D01*
X143000000Y-52574285D01*
X143047619Y-52526666D01*
X142952380Y-51669523D02*
X142952380Y-51860000D01*
X143000000Y-51955238D01*
X143047619Y-52002857D01*
X143190476Y-52098095D01*
X143380952Y-52145714D01*
X143761904Y-52145714D01*
X143857142Y-52098095D01*
X143904761Y-52050476D01*
X143952380Y-51955238D01*
X143952380Y-51764761D01*
X143904761Y-51669523D01*
X143857142Y-51621904D01*
X143761904Y-51574285D01*
X143523809Y-51574285D01*
X143428571Y-51621904D01*
X143380952Y-51669523D01*
X143333333Y-51764761D01*
X143333333Y-51955238D01*
X143380952Y-52050476D01*
X143428571Y-52098095D01*
X143523809Y-52145714D01*
%TO.C,C15*%
X127257142Y-62307142D02*
X127209523Y-62354761D01*
X127066666Y-62402380D01*
X126971428Y-62402380D01*
X126828571Y-62354761D01*
X126733333Y-62259523D01*
X126685714Y-62164285D01*
X126638095Y-61973809D01*
X126638095Y-61830952D01*
X126685714Y-61640476D01*
X126733333Y-61545238D01*
X126828571Y-61450000D01*
X126971428Y-61402380D01*
X127066666Y-61402380D01*
X127209523Y-61450000D01*
X127257142Y-61497619D01*
X128209523Y-62402380D02*
X127638095Y-62402380D01*
X127923809Y-62402380D02*
X127923809Y-61402380D01*
X127828571Y-61545238D01*
X127733333Y-61640476D01*
X127638095Y-61688095D01*
X129114285Y-61402380D02*
X128638095Y-61402380D01*
X128590476Y-61878571D01*
X128638095Y-61830952D01*
X128733333Y-61783333D01*
X128971428Y-61783333D01*
X129066666Y-61830952D01*
X129114285Y-61878571D01*
X129161904Y-61973809D01*
X129161904Y-62211904D01*
X129114285Y-62307142D01*
X129066666Y-62354761D01*
X128971428Y-62402380D01*
X128733333Y-62402380D01*
X128638095Y-62354761D01*
X128590476Y-62307142D01*
%TO.C,C12*%
X138107142Y-60907142D02*
X138059523Y-60954761D01*
X137916666Y-61002380D01*
X137821428Y-61002380D01*
X137678571Y-60954761D01*
X137583333Y-60859523D01*
X137535714Y-60764285D01*
X137488095Y-60573809D01*
X137488095Y-60430952D01*
X137535714Y-60240476D01*
X137583333Y-60145238D01*
X137678571Y-60050000D01*
X137821428Y-60002380D01*
X137916666Y-60002380D01*
X138059523Y-60050000D01*
X138107142Y-60097619D01*
X139059523Y-61002380D02*
X138488095Y-61002380D01*
X138773809Y-61002380D02*
X138773809Y-60002380D01*
X138678571Y-60145238D01*
X138583333Y-60240476D01*
X138488095Y-60288095D01*
X139440476Y-60097619D02*
X139488095Y-60050000D01*
X139583333Y-60002380D01*
X139821428Y-60002380D01*
X139916666Y-60050000D01*
X139964285Y-60097619D01*
X140011904Y-60192857D01*
X140011904Y-60288095D01*
X139964285Y-60430952D01*
X139392857Y-61002380D01*
X140011904Y-61002380D01*
%TO.C,R38*%
X176047142Y-79182380D02*
X175713809Y-78706190D01*
X175475714Y-79182380D02*
X175475714Y-78182380D01*
X175856666Y-78182380D01*
X175951904Y-78230000D01*
X175999523Y-78277619D01*
X176047142Y-78372857D01*
X176047142Y-78515714D01*
X175999523Y-78610952D01*
X175951904Y-78658571D01*
X175856666Y-78706190D01*
X175475714Y-78706190D01*
X176380476Y-78182380D02*
X176999523Y-78182380D01*
X176666190Y-78563333D01*
X176809047Y-78563333D01*
X176904285Y-78610952D01*
X176951904Y-78658571D01*
X176999523Y-78753809D01*
X176999523Y-78991904D01*
X176951904Y-79087142D01*
X176904285Y-79134761D01*
X176809047Y-79182380D01*
X176523333Y-79182380D01*
X176428095Y-79134761D01*
X176380476Y-79087142D01*
X177570952Y-78610952D02*
X177475714Y-78563333D01*
X177428095Y-78515714D01*
X177380476Y-78420476D01*
X177380476Y-78372857D01*
X177428095Y-78277619D01*
X177475714Y-78230000D01*
X177570952Y-78182380D01*
X177761428Y-78182380D01*
X177856666Y-78230000D01*
X177904285Y-78277619D01*
X177951904Y-78372857D01*
X177951904Y-78420476D01*
X177904285Y-78515714D01*
X177856666Y-78563333D01*
X177761428Y-78610952D01*
X177570952Y-78610952D01*
X177475714Y-78658571D01*
X177428095Y-78706190D01*
X177380476Y-78801428D01*
X177380476Y-78991904D01*
X177428095Y-79087142D01*
X177475714Y-79134761D01*
X177570952Y-79182380D01*
X177761428Y-79182380D01*
X177856666Y-79134761D01*
X177904285Y-79087142D01*
X177951904Y-78991904D01*
X177951904Y-78801428D01*
X177904285Y-78706190D01*
X177856666Y-78658571D01*
X177761428Y-78610952D01*
%TO.C,R42*%
X176047142Y-68982380D02*
X175713809Y-68506190D01*
X175475714Y-68982380D02*
X175475714Y-67982380D01*
X175856666Y-67982380D01*
X175951904Y-68030000D01*
X175999523Y-68077619D01*
X176047142Y-68172857D01*
X176047142Y-68315714D01*
X175999523Y-68410952D01*
X175951904Y-68458571D01*
X175856666Y-68506190D01*
X175475714Y-68506190D01*
X176904285Y-68315714D02*
X176904285Y-68982380D01*
X176666190Y-67934761D02*
X176428095Y-68649047D01*
X177047142Y-68649047D01*
X177380476Y-68077619D02*
X177428095Y-68030000D01*
X177523333Y-67982380D01*
X177761428Y-67982380D01*
X177856666Y-68030000D01*
X177904285Y-68077619D01*
X177951904Y-68172857D01*
X177951904Y-68268095D01*
X177904285Y-68410952D01*
X177332857Y-68982380D01*
X177951904Y-68982380D01*
%TO.C,R10*%
X166802380Y-67442857D02*
X166326190Y-67776190D01*
X166802380Y-68014285D02*
X165802380Y-68014285D01*
X165802380Y-67633333D01*
X165850000Y-67538095D01*
X165897619Y-67490476D01*
X165992857Y-67442857D01*
X166135714Y-67442857D01*
X166230952Y-67490476D01*
X166278571Y-67538095D01*
X166326190Y-67633333D01*
X166326190Y-68014285D01*
X166802380Y-66490476D02*
X166802380Y-67061904D01*
X166802380Y-66776190D02*
X165802380Y-66776190D01*
X165945238Y-66871428D01*
X166040476Y-66966666D01*
X166088095Y-67061904D01*
X165802380Y-65871428D02*
X165802380Y-65776190D01*
X165850000Y-65680952D01*
X165897619Y-65633333D01*
X165992857Y-65585714D01*
X166183333Y-65538095D01*
X166421428Y-65538095D01*
X166611904Y-65585714D01*
X166707142Y-65633333D01*
X166754761Y-65680952D01*
X166802380Y-65776190D01*
X166802380Y-65871428D01*
X166754761Y-65966666D01*
X166707142Y-66014285D01*
X166611904Y-66061904D01*
X166421428Y-66109523D01*
X166183333Y-66109523D01*
X165992857Y-66061904D01*
X165897619Y-66014285D01*
X165850000Y-65966666D01*
X165802380Y-65871428D01*
%TO.C,C27*%
X158157142Y-82257142D02*
X158109523Y-82304761D01*
X157966666Y-82352380D01*
X157871428Y-82352380D01*
X157728571Y-82304761D01*
X157633333Y-82209523D01*
X157585714Y-82114285D01*
X157538095Y-81923809D01*
X157538095Y-81780952D01*
X157585714Y-81590476D01*
X157633333Y-81495238D01*
X157728571Y-81400000D01*
X157871428Y-81352380D01*
X157966666Y-81352380D01*
X158109523Y-81400000D01*
X158157142Y-81447619D01*
X158538095Y-81447619D02*
X158585714Y-81400000D01*
X158680952Y-81352380D01*
X158919047Y-81352380D01*
X159014285Y-81400000D01*
X159061904Y-81447619D01*
X159109523Y-81542857D01*
X159109523Y-81638095D01*
X159061904Y-81780952D01*
X158490476Y-82352380D01*
X159109523Y-82352380D01*
X159442857Y-81352380D02*
X160109523Y-81352380D01*
X159680952Y-82352380D01*
D11*
%TO.C,C5*%
X137037836Y-57060000D02*
X136822164Y-57060000D01*
X137037836Y-56340000D02*
X136822164Y-56340000D01*
%TO.C,C28*%
X162188748Y-79465000D02*
X162711252Y-79465000D01*
X162188748Y-80935000D02*
X162711252Y-80935000D01*
%TO.C,J6*%
X131280000Y-67925000D02*
X131280000Y-69255000D01*
X128620000Y-66655000D02*
X128620000Y-64055000D01*
X131280000Y-66655000D02*
X128620000Y-66655000D01*
X131280000Y-66655000D02*
X131280000Y-64055000D01*
X131280000Y-64055000D02*
X128620000Y-64055000D01*
X131280000Y-69255000D02*
X129950000Y-69255000D01*
%TO.C,C19*%
X156570000Y-53755336D02*
X156570000Y-53539664D01*
X157290000Y-53755336D02*
X157290000Y-53539664D01*
%TO.C,C22*%
X159440000Y-64707836D02*
X159440000Y-64492164D01*
X160160000Y-64707836D02*
X160160000Y-64492164D01*
%TO.C,R44*%
X176536359Y-64980000D02*
X176843641Y-64980000D01*
X176536359Y-64220000D02*
X176843641Y-64220000D01*
%TO.C,R39*%
X176536359Y-77680000D02*
X176843641Y-77680000D01*
X176536359Y-76920000D02*
X176843641Y-76920000D01*
%TO.C,R33*%
X176536359Y-92220000D02*
X176843641Y-92220000D01*
X176536359Y-92980000D02*
X176843641Y-92980000D01*
%TO.C,FB2*%
X137337742Y-53327500D02*
X137812258Y-53327500D01*
X137337742Y-54372500D02*
X137812258Y-54372500D01*
%TO.C,R46*%
X176536359Y-59220000D02*
X176843641Y-59220000D01*
X176536359Y-59980000D02*
X176843641Y-59980000D01*
%TO.C,C13*%
X139112164Y-57640000D02*
X139327836Y-57640000D01*
X139112164Y-58360000D02*
X139327836Y-58360000D01*
%TO.C,C17*%
X149637836Y-57510000D02*
X149422164Y-57510000D01*
X149637836Y-56790000D02*
X149422164Y-56790000D01*
%TO.C,TP1*%
X135450000Y-66700000D02*
G75*
G03*
X135450000Y-66700000I-700000J0D01*
G01*
%TO.C,C9*%
X145187836Y-53740000D02*
X144972164Y-53740000D01*
X145187836Y-54460000D02*
X144972164Y-54460000D01*
%TO.C,R4*%
X130270000Y-57313641D02*
X130270000Y-57006359D01*
X131030000Y-57313641D02*
X131030000Y-57006359D01*
%TO.C,C16*%
X141240000Y-54112164D02*
X141240000Y-54327836D01*
X141960000Y-54112164D02*
X141960000Y-54327836D01*
%TO.C,C14*%
X149627836Y-56510000D02*
X149412164Y-56510000D01*
X149627836Y-55790000D02*
X149412164Y-55790000D01*
D10*
%TO.C,U5*%
X161620000Y-61115000D02*
X161620000Y-56965000D01*
X161620000Y-61115000D02*
X161670000Y-61115000D01*
X166770000Y-56965000D02*
X166625000Y-56965000D01*
X161620000Y-56965000D02*
X161765000Y-56965000D01*
X166770000Y-61115000D02*
X166770000Y-56965000D01*
X161670000Y-61115000D02*
X161670000Y-62515000D01*
X166770000Y-61115000D02*
X166625000Y-61115000D01*
D11*
%TO.C,R43*%
X176536359Y-67580000D02*
X176843641Y-67580000D01*
X176536359Y-66820000D02*
X176843641Y-66820000D01*
%TO.C,R34*%
X176536359Y-89620000D02*
X176843641Y-89620000D01*
X176536359Y-90380000D02*
X176843641Y-90380000D01*
%TO.C,C8*%
X139112164Y-59360000D02*
X139327836Y-59360000D01*
X139112164Y-58640000D02*
X139327836Y-58640000D01*
%TO.C,R9*%
X127630000Y-76363641D02*
X127630000Y-76056359D01*
X126870000Y-76363641D02*
X126870000Y-76056359D01*
%TO.C,R48*%
X176636359Y-54120000D02*
X176943641Y-54120000D01*
X176636359Y-54880000D02*
X176943641Y-54880000D01*
%TO.C,C29*%
X164565000Y-80311252D02*
X164565000Y-79788748D01*
X166035000Y-80311252D02*
X166035000Y-79788748D01*
%TO.C,R3*%
X120530000Y-58513641D02*
X120530000Y-58206359D01*
X119770000Y-58513641D02*
X119770000Y-58206359D01*
%TO.C,C21*%
X139092164Y-56340000D02*
X139307836Y-56340000D01*
X139092164Y-57060000D02*
X139307836Y-57060000D01*
%TO.C,C24*%
X122663748Y-75510000D02*
X124086252Y-75510000D01*
X122663748Y-77330000D02*
X124086252Y-77330000D01*
%TO.C,C7*%
X142240000Y-54122164D02*
X142240000Y-54337836D01*
X142960000Y-54122164D02*
X142960000Y-54337836D01*
%TO.C,J2*%
X156545000Y-103360000D02*
X156545000Y-104480000D01*
X157440000Y-108480000D02*
X156920000Y-108480000D01*
X146010000Y-104480000D02*
X146010000Y-108480000D01*
X169260323Y-103360000D02*
X169229677Y-103360000D01*
X165060000Y-108480000D02*
X164540000Y-108480000D01*
X160355000Y-103360000D02*
X160355000Y-104480000D01*
X147670323Y-103360000D02*
X147639677Y-103360000D01*
X168350000Y-108480000D02*
X168350000Y-104480000D01*
X154900000Y-104480000D02*
X154900000Y-108480000D01*
X162895000Y-103360000D02*
X162895000Y-104480000D01*
X171845000Y-104480000D02*
X145055000Y-104480000D01*
X171150000Y-100890000D02*
X171910000Y-100890000D01*
X146385000Y-103360000D02*
X146385000Y-104480000D01*
X145055000Y-103360000D02*
X145130323Y-103360000D01*
X154020323Y-103360000D02*
X153989677Y-103360000D01*
X169245000Y-103360000D02*
X169245000Y-104480000D01*
X170140000Y-108480000D02*
X169620000Y-108480000D01*
X170990000Y-104480000D02*
X170990000Y-108480000D01*
X149820000Y-104480000D02*
X149820000Y-108480000D01*
X168870000Y-104480000D02*
X168870000Y-108480000D01*
X152750323Y-103360000D02*
X152719677Y-103360000D01*
X162520000Y-108480000D02*
X162000000Y-108480000D01*
X165450323Y-103360000D02*
X165419677Y-103360000D01*
X153630000Y-108480000D02*
X153110000Y-108480000D01*
X157830323Y-103360000D02*
X157799677Y-103360000D01*
X148940323Y-103360000D02*
X148909677Y-103360000D01*
X167600000Y-108480000D02*
X167080000Y-108480000D01*
X150210323Y-103360000D02*
X150179677Y-103360000D01*
X159980000Y-104480000D02*
X159980000Y-108480000D01*
X166330000Y-104480000D02*
X166330000Y-108480000D01*
X147655000Y-103360000D02*
X147655000Y-104480000D01*
X163270000Y-108480000D02*
X163270000Y-104480000D01*
X170530323Y-103360000D02*
X170499677Y-103360000D01*
X145055000Y-104480000D02*
X145055000Y-103360000D01*
X150570000Y-108480000D02*
X150570000Y-104480000D01*
X171410000Y-108480000D02*
X170890000Y-108480000D01*
X167080000Y-108480000D02*
X167080000Y-104480000D01*
X171350000Y-104480000D02*
X171350000Y-108480000D01*
X164540000Y-108480000D02*
X164540000Y-104480000D01*
X159085000Y-103360000D02*
X159085000Y-104480000D01*
X153630000Y-104480000D02*
X153630000Y-108480000D01*
X166705000Y-103360000D02*
X166705000Y-104480000D01*
X157815000Y-103360000D02*
X157815000Y-104480000D01*
X161250000Y-104480000D02*
X161250000Y-108480000D01*
X155650000Y-108480000D02*
X155650000Y-104480000D01*
X157440000Y-104480000D02*
X157440000Y-108480000D01*
X159980000Y-108480000D02*
X159460000Y-108480000D01*
X159100323Y-103360000D02*
X159069677Y-103360000D01*
X161250000Y-108480000D02*
X160730000Y-108480000D01*
X149300000Y-108480000D02*
X149300000Y-104480000D01*
X152360000Y-104480000D02*
X152360000Y-108480000D01*
X170140000Y-104480000D02*
X170140000Y-108480000D01*
X170515000Y-103360000D02*
X170515000Y-104480000D01*
X166720323Y-103360000D02*
X166689677Y-103360000D01*
X163790000Y-108480000D02*
X163270000Y-108480000D01*
X169620000Y-108480000D02*
X169620000Y-104480000D01*
X167975000Y-103360000D02*
X167975000Y-104480000D01*
X146400323Y-103360000D02*
X146369677Y-103360000D01*
X155275000Y-103360000D02*
X155275000Y-104480000D01*
X154900000Y-108480000D02*
X154380000Y-108480000D01*
X166330000Y-108480000D02*
X165810000Y-108480000D01*
X164180323Y-103360000D02*
X164149677Y-103360000D01*
X165435000Y-103360000D02*
X165435000Y-104480000D01*
X147280000Y-104480000D02*
X147280000Y-108480000D01*
X152360000Y-108480000D02*
X151840000Y-108480000D01*
X168870000Y-108480000D02*
X168350000Y-108480000D01*
X162000000Y-108480000D02*
X162000000Y-104480000D01*
X156170000Y-104480000D02*
X156170000Y-108480000D01*
X151480323Y-103360000D02*
X151449677Y-103360000D01*
X153110000Y-108480000D02*
X153110000Y-104480000D01*
X152735000Y-103360000D02*
X152735000Y-104480000D01*
X165060000Y-104480000D02*
X165060000Y-108480000D01*
X160730000Y-108480000D02*
X160730000Y-104480000D01*
X146760000Y-108480000D02*
X146760000Y-104480000D01*
X158710000Y-108480000D02*
X158190000Y-108480000D01*
X158190000Y-108480000D02*
X158190000Y-104480000D01*
X159460000Y-108480000D02*
X159460000Y-104480000D01*
X163790000Y-104480000D02*
X163790000Y-108480000D01*
X171110000Y-104480000D02*
X171110000Y-108480000D01*
X161625000Y-103360000D02*
X161625000Y-104480000D01*
X170890000Y-108480000D02*
X170890000Y-104480000D01*
X158710000Y-104480000D02*
X158710000Y-108480000D01*
X145490000Y-108480000D02*
X145490000Y-104480000D01*
X154005000Y-103360000D02*
X154005000Y-104480000D01*
X161640323Y-103360000D02*
X161609677Y-103360000D01*
X156170000Y-108480000D02*
X155650000Y-108480000D01*
X171845000Y-103360000D02*
X171845000Y-104480000D01*
X156560323Y-103360000D02*
X156529677Y-103360000D01*
X162910323Y-103360000D02*
X162879677Y-103360000D01*
X160370323Y-103360000D02*
X160339677Y-103360000D01*
X171769677Y-103360000D02*
X171845000Y-103360000D01*
X162520000Y-104480000D02*
X162520000Y-108480000D01*
X155290323Y-103360000D02*
X155259677Y-103360000D01*
X156920000Y-108480000D02*
X156920000Y-104480000D01*
X151840000Y-108480000D02*
X151840000Y-104480000D01*
X165810000Y-108480000D02*
X165810000Y-104480000D01*
X171910000Y-100890000D02*
X171910000Y-101650000D01*
X148925000Y-103360000D02*
X148925000Y-104480000D01*
X154380000Y-108480000D02*
X154380000Y-104480000D01*
X167990323Y-103360000D02*
X167959677Y-103360000D01*
X148550000Y-108480000D02*
X148030000Y-108480000D01*
X164165000Y-103360000D02*
X164165000Y-104480000D01*
X171230000Y-104480000D02*
X171230000Y-108480000D01*
X151465000Y-103360000D02*
X151465000Y-104480000D01*
X151090000Y-108480000D02*
X150570000Y-108480000D01*
X151090000Y-104480000D02*
X151090000Y-108480000D01*
X146010000Y-108480000D02*
X145490000Y-108480000D01*
X148550000Y-104480000D02*
X148550000Y-108480000D01*
X147280000Y-108480000D02*
X146760000Y-108480000D01*
X148030000Y-108480000D02*
X148030000Y-104480000D01*
X149820000Y-108480000D02*
X149300000Y-108480000D01*
X171410000Y-104480000D02*
X171410000Y-108480000D01*
X150195000Y-103360000D02*
X150195000Y-104480000D01*
X167600000Y-104480000D02*
X167600000Y-108480000D01*
%TO.C,R37*%
X176536359Y-82020000D02*
X176843641Y-82020000D01*
X176536359Y-82780000D02*
X176843641Y-82780000D01*
%TO.C,J9*%
X171330000Y-75130000D02*
X171330000Y-72530000D01*
X168670000Y-75130000D02*
X168670000Y-72530000D01*
X171330000Y-76400000D02*
X171330000Y-77730000D01*
X171330000Y-72530000D02*
X168670000Y-72530000D01*
X171330000Y-75130000D02*
X168670000Y-75130000D01*
X171330000Y-77730000D02*
X170000000Y-77730000D01*
%TO.C,R45*%
X176536359Y-62480000D02*
X176843641Y-62480000D01*
X176536359Y-61720000D02*
X176843641Y-61720000D01*
%TO.C,R47*%
X176636359Y-56620000D02*
X176943641Y-56620000D01*
X176636359Y-57380000D02*
X176943641Y-57380000D01*
%TO.C,R7*%
X149396359Y-61880000D02*
X149703641Y-61880000D01*
X149396359Y-61120000D02*
X149703641Y-61120000D01*
D10*
%TO.C,U6*%
X158890000Y-77125000D02*
X158890000Y-72975000D01*
X164040000Y-77125000D02*
X163895000Y-77125000D01*
X158940000Y-77125000D02*
X158940000Y-78525000D01*
X158890000Y-77125000D02*
X158940000Y-77125000D01*
X164040000Y-72975000D02*
X163895000Y-72975000D01*
X164040000Y-77125000D02*
X164040000Y-72975000D01*
X158890000Y-72975000D02*
X159035000Y-72975000D01*
D11*
%TO.C,C25*%
X162985000Y-65451252D02*
X162985000Y-64928748D01*
X161515000Y-65451252D02*
X161515000Y-64928748D01*
%TO.C,R32*%
X176536359Y-97320000D02*
X176843641Y-97320000D01*
X176536359Y-98080000D02*
X176843641Y-98080000D01*
%TO.C,R40*%
X176536359Y-74420000D02*
X176843641Y-74420000D01*
X176536359Y-75180000D02*
X176843641Y-75180000D01*
%TO.C,R35*%
X176556359Y-87880000D02*
X176863641Y-87880000D01*
X176556359Y-87120000D02*
X176863641Y-87120000D01*
%TO.C,FB1*%
X137812258Y-54877500D02*
X137337742Y-54877500D01*
X137812258Y-55922500D02*
X137337742Y-55922500D01*
%TO.C,R8*%
X125870000Y-76056359D02*
X125870000Y-76363641D01*
X126630000Y-76056359D02*
X126630000Y-76363641D01*
%TO.C,Y1*%
X156300000Y-58937500D02*
X156300000Y-50962500D01*
X156300000Y-50962500D02*
X152400000Y-50962500D01*
X152400000Y-50962500D02*
X152400000Y-58937500D01*
%TO.C,U3*%
X140790000Y-57190000D02*
X140790000Y-57840000D01*
X140790000Y-64410000D02*
X140790000Y-63760000D01*
X141440000Y-64410000D02*
X140790000Y-64410000D01*
X147360000Y-57190000D02*
X148010000Y-57190000D01*
X148010000Y-57190000D02*
X148010000Y-57840000D01*
X147360000Y-64410000D02*
X148010000Y-64410000D01*
X141440000Y-57190000D02*
X140790000Y-57190000D01*
%TO.C,R41*%
X176536359Y-72580000D02*
X176843641Y-72580000D01*
X176536359Y-71820000D02*
X176843641Y-71820000D01*
%TO.C,C23*%
X119261252Y-76955000D02*
X118738748Y-76955000D01*
X119261252Y-75485000D02*
X118738748Y-75485000D01*
%TO.C,FB3*%
X169762742Y-71522500D02*
X170237258Y-71522500D01*
X169762742Y-70477500D02*
X170237258Y-70477500D01*
%TO.C,C26*%
X163640000Y-66526252D02*
X163640000Y-65103748D01*
X165460000Y-66526252D02*
X165460000Y-65103748D01*
%TO.C,U4*%
X128175000Y-61125000D02*
X128175000Y-60865000D01*
X125450000Y-61125000D02*
X128175000Y-61125000D01*
X122725000Y-61125000D02*
X122725000Y-60865000D01*
X128175000Y-55675000D02*
X128175000Y-55935000D01*
X125450000Y-55675000D02*
X128175000Y-55675000D01*
X122725000Y-55935000D02*
X121050000Y-55935000D01*
X122725000Y-55675000D02*
X122725000Y-55935000D01*
X125450000Y-55675000D02*
X122725000Y-55675000D01*
X125450000Y-61125000D02*
X122725000Y-61125000D01*
%TO.C,J3*%
X182170000Y-101530000D02*
X182170000Y-98930000D01*
X179570000Y-98930000D02*
X179570000Y-50610000D01*
X184770000Y-50610000D02*
X179570000Y-50610000D01*
X184770000Y-101530000D02*
X182170000Y-101530000D01*
X179570000Y-101530000D02*
X179570000Y-100200000D01*
X180900000Y-101530000D02*
X179570000Y-101530000D01*
X184770000Y-101530000D02*
X184770000Y-50610000D01*
X182170000Y-98930000D02*
X179570000Y-98930000D01*
%TO.C,R1*%
X144906359Y-52720000D02*
X145213641Y-52720000D01*
X144906359Y-53480000D02*
X145213641Y-53480000D01*
%TO.C,C20*%
X157290000Y-57889664D02*
X157290000Y-58105336D01*
X156570000Y-57889664D02*
X156570000Y-58105336D01*
%TO.C,J5*%
X130830000Y-50570000D02*
X130830000Y-53170000D01*
X128230000Y-47970000D02*
X118010000Y-47970000D01*
X130830000Y-53170000D02*
X118010000Y-53170000D01*
X128230000Y-50570000D02*
X130830000Y-50570000D01*
X130830000Y-47970000D02*
X130830000Y-49300000D01*
X118010000Y-47970000D02*
X118010000Y-53170000D01*
X129500000Y-47970000D02*
X130830000Y-47970000D01*
X128230000Y-47970000D02*
X128230000Y-50570000D01*
%TO.C,J1*%
X142200000Y-108480000D02*
X141680000Y-108480000D01*
X123150000Y-104480000D02*
X123150000Y-108480000D01*
X127335000Y-103360000D02*
X127335000Y-104480000D01*
X129890323Y-103360000D02*
X129859677Y-103360000D01*
X135850000Y-108480000D02*
X135330000Y-108480000D01*
X119340000Y-104480000D02*
X119340000Y-108480000D01*
X143970000Y-100890000D02*
X143970000Y-101650000D01*
X134970323Y-103360000D02*
X134939677Y-103360000D01*
X117550000Y-108480000D02*
X117550000Y-104480000D01*
X140930000Y-108480000D02*
X140410000Y-108480000D01*
X130250000Y-108480000D02*
X130250000Y-104480000D01*
X132790000Y-108480000D02*
X132790000Y-104480000D01*
X123540323Y-103360000D02*
X123509677Y-103360000D01*
X126960000Y-108480000D02*
X126440000Y-108480000D01*
X124795000Y-103360000D02*
X124795000Y-104480000D01*
X138765000Y-103360000D02*
X138765000Y-104480000D01*
X132415000Y-103360000D02*
X132415000Y-104480000D01*
X117115000Y-103360000D02*
X117190323Y-103360000D01*
X122630000Y-108480000D02*
X122630000Y-104480000D01*
X142950000Y-108480000D02*
X142950000Y-104480000D01*
X136225000Y-103360000D02*
X136225000Y-104480000D01*
X121880000Y-104480000D02*
X121880000Y-108480000D01*
X141680000Y-108480000D02*
X141680000Y-104480000D01*
X124420000Y-108480000D02*
X123900000Y-108480000D01*
X142200000Y-104480000D02*
X142200000Y-108480000D01*
X118070000Y-108480000D02*
X117550000Y-108480000D01*
X143470000Y-104480000D02*
X143470000Y-108480000D01*
X120985000Y-103360000D02*
X120985000Y-104480000D01*
X123900000Y-108480000D02*
X123900000Y-104480000D01*
X128980000Y-108480000D02*
X128980000Y-104480000D01*
X128605000Y-103360000D02*
X128605000Y-104480000D01*
X119730323Y-103360000D02*
X119699677Y-103360000D01*
X129875000Y-103360000D02*
X129875000Y-104480000D01*
X138390000Y-104480000D02*
X138390000Y-108480000D01*
X137120000Y-108480000D02*
X136600000Y-108480000D01*
X126080323Y-103360000D02*
X126049677Y-103360000D01*
X136600000Y-108480000D02*
X136600000Y-104480000D01*
X140410000Y-108480000D02*
X140410000Y-104480000D01*
X118070000Y-104480000D02*
X118070000Y-108480000D01*
X143290000Y-104480000D02*
X143290000Y-108480000D01*
X136240323Y-103360000D02*
X136209677Y-103360000D01*
X123525000Y-103360000D02*
X123525000Y-104480000D01*
X134580000Y-104480000D02*
X134580000Y-108480000D01*
X140930000Y-104480000D02*
X140930000Y-108480000D01*
X141305000Y-103360000D02*
X141305000Y-104480000D01*
X139660000Y-104480000D02*
X139660000Y-108480000D01*
X121000323Y-103360000D02*
X120969677Y-103360000D01*
X117115000Y-104480000D02*
X117115000Y-103360000D01*
X123150000Y-108480000D02*
X122630000Y-108480000D01*
X121360000Y-108480000D02*
X121360000Y-104480000D01*
X131160323Y-103360000D02*
X131129677Y-103360000D01*
X142575000Y-103360000D02*
X142575000Y-104480000D01*
X143905000Y-104480000D02*
X117115000Y-104480000D01*
X128230000Y-108480000D02*
X127710000Y-108480000D01*
X131520000Y-108480000D02*
X131520000Y-104480000D01*
X134580000Y-108480000D02*
X134060000Y-108480000D01*
X138390000Y-108480000D02*
X137870000Y-108480000D01*
X143470000Y-108480000D02*
X142950000Y-108480000D01*
X143050000Y-104480000D02*
X143050000Y-108480000D01*
X140050323Y-103360000D02*
X140019677Y-103360000D01*
X137870000Y-108480000D02*
X137870000Y-104480000D01*
X125690000Y-108480000D02*
X125170000Y-108480000D01*
X135330000Y-108480000D02*
X135330000Y-104480000D01*
X139660000Y-108480000D02*
X139140000Y-108480000D01*
X133685000Y-103360000D02*
X133685000Y-104480000D01*
X134955000Y-103360000D02*
X134955000Y-104480000D01*
X118445000Y-103360000D02*
X118445000Y-104480000D01*
X137120000Y-104480000D02*
X137120000Y-108480000D01*
X143410000Y-104480000D02*
X143410000Y-108480000D01*
X118820000Y-108480000D02*
X118820000Y-104480000D01*
X119715000Y-103360000D02*
X119715000Y-104480000D01*
X133700323Y-103360000D02*
X133669677Y-103360000D01*
X120090000Y-108480000D02*
X120090000Y-104480000D01*
X132430323Y-103360000D02*
X132399677Y-103360000D01*
X131145000Y-103360000D02*
X131145000Y-104480000D01*
X138780323Y-103360000D02*
X138749677Y-103360000D01*
X133310000Y-108480000D02*
X132790000Y-108480000D01*
X121880000Y-108480000D02*
X121360000Y-108480000D01*
X118460323Y-103360000D02*
X118429677Y-103360000D01*
X143210000Y-100890000D02*
X143970000Y-100890000D01*
X125690000Y-104480000D02*
X125690000Y-108480000D01*
X124810323Y-103360000D02*
X124779677Y-103360000D01*
X129500000Y-108480000D02*
X128980000Y-108480000D01*
X120610000Y-108480000D02*
X120090000Y-108480000D01*
X142590323Y-103360000D02*
X142559677Y-103360000D01*
X129500000Y-104480000D02*
X129500000Y-108480000D01*
X122255000Y-103360000D02*
X122255000Y-104480000D01*
X122270323Y-103360000D02*
X122239677Y-103360000D01*
X132040000Y-104480000D02*
X132040000Y-108480000D01*
X125170000Y-108480000D02*
X125170000Y-104480000D01*
X137495000Y-103360000D02*
X137495000Y-104480000D01*
X140035000Y-103360000D02*
X140035000Y-104480000D01*
X127350323Y-103360000D02*
X127319677Y-103360000D01*
X119340000Y-108480000D02*
X118820000Y-108480000D01*
X141320323Y-103360000D02*
X141289677Y-103360000D01*
X143905000Y-103360000D02*
X143905000Y-104480000D01*
X143170000Y-104480000D02*
X143170000Y-108480000D01*
X132040000Y-108480000D02*
X131520000Y-108480000D01*
X143829677Y-103360000D02*
X143905000Y-103360000D01*
X134060000Y-108480000D02*
X134060000Y-104480000D01*
X128620323Y-103360000D02*
X128589677Y-103360000D01*
X126440000Y-108480000D02*
X126440000Y-104480000D01*
X137510323Y-103360000D02*
X137479677Y-103360000D01*
X139140000Y-108480000D02*
X139140000Y-104480000D01*
X126065000Y-103360000D02*
X126065000Y-104480000D01*
X128230000Y-104480000D02*
X128230000Y-108480000D01*
X130770000Y-104480000D02*
X130770000Y-108480000D01*
X120610000Y-104480000D02*
X120610000Y-108480000D01*
X127710000Y-108480000D02*
X127710000Y-104480000D01*
X135850000Y-104480000D02*
X135850000Y-108480000D01*
X124420000Y-104480000D02*
X124420000Y-108480000D01*
X133310000Y-104480000D02*
X133310000Y-108480000D01*
X130770000Y-108480000D02*
X130250000Y-108480000D01*
X126960000Y-104480000D02*
X126960000Y-108480000D01*
%TO.C,X1*%
X158450000Y-60860000D02*
X158450000Y-61170000D01*
X152450000Y-61170000D02*
X153050000Y-61170000D01*
X153050000Y-68760000D02*
X153050000Y-68450000D01*
X158450000Y-68450000D02*
X158450000Y-68760000D01*
X153050000Y-63370000D02*
X152450000Y-63370000D01*
X158450000Y-63370000D02*
X158450000Y-66250000D01*
X153050000Y-61170000D02*
X153050000Y-60860000D01*
X158450000Y-68760000D02*
X153050000Y-68760000D01*
X153050000Y-66250000D02*
X153050000Y-63370000D01*
X153050000Y-60860000D02*
X158450000Y-60860000D01*
%TO.C,C18*%
X144712164Y-66140000D02*
X144927836Y-66140000D01*
X144712164Y-66860000D02*
X144927836Y-66860000D01*
%TO.C,U2*%
X127250000Y-65383750D02*
X127250000Y-63833750D01*
X116850000Y-73233750D02*
X117800000Y-73233750D01*
X127250000Y-63833750D02*
X126400000Y-63833750D01*
X127250000Y-73233750D02*
X126300000Y-73233750D01*
X116850000Y-63833750D02*
X117700000Y-63833750D01*
X127250000Y-71733750D02*
X127250000Y-73233750D01*
X116850000Y-65333750D02*
X116850000Y-63833750D01*
X116850000Y-71733750D02*
X116850000Y-73233750D01*
X117800000Y-73233750D02*
X117800000Y-74633750D01*
%TO.C,J8*%
X164670000Y-72570000D02*
X166000000Y-72570000D01*
X164670000Y-75170000D02*
X164670000Y-77770000D01*
X167330000Y-75170000D02*
X167330000Y-77770000D01*
X164670000Y-75170000D02*
X167330000Y-75170000D01*
X164670000Y-73900000D02*
X164670000Y-72570000D01*
X164670000Y-77770000D02*
X167330000Y-77770000D01*
%TO.C,R36*%
X176536359Y-85380000D02*
X176843641Y-85380000D01*
X176536359Y-84620000D02*
X176843641Y-84620000D01*
D12*
%TO.C,J4*%
X138025000Y-47200000D02*
X138025000Y-47430000D01*
X150875000Y-47200000D02*
X150875000Y-47430000D01*
X138605000Y-51650000D02*
X138025000Y-51650000D01*
X150875000Y-51650000D02*
X148945000Y-51650000D01*
X150875000Y-49870000D02*
X150875000Y-51650000D01*
X138025000Y-51650000D02*
X138025000Y-49870000D01*
X138025000Y-47200000D02*
X150875000Y-47200000D01*
D13*
X148525000Y-53000000D02*
G75*
G03*
X148525000Y-53000000I-100000J0D01*
G01*
D11*
%TO.C,C11*%
X144712164Y-67860000D02*
X144927836Y-67860000D01*
X144712164Y-67140000D02*
X144927836Y-67140000D01*
%TO.C,U1*%
X133900000Y-69700000D02*
X132700000Y-69700000D01*
X156100000Y-69900000D02*
X156100000Y-93100000D01*
X132900000Y-93100000D02*
X132900000Y-69900000D01*
X132900000Y-69900000D02*
X156100000Y-69900000D01*
X132700000Y-69700000D02*
X132700000Y-70900000D01*
X156100000Y-93100000D02*
X132900000Y-93100000D01*
%TO.C,C10*%
X140812164Y-65640000D02*
X141027836Y-65640000D01*
X140812164Y-66360000D02*
X141027836Y-66360000D01*
%TO.C,R31*%
X167730000Y-64583641D02*
X167730000Y-64276359D01*
X166970000Y-64583641D02*
X166970000Y-64276359D01*
%TO.C,J7*%
X170530000Y-59960000D02*
X170530000Y-57360000D01*
X170530000Y-59960000D02*
X167870000Y-59960000D01*
X170530000Y-61230000D02*
X170530000Y-62560000D01*
X170530000Y-57360000D02*
X167870000Y-57360000D01*
X170530000Y-62560000D02*
X169200000Y-62560000D01*
X167870000Y-59960000D02*
X167870000Y-57360000D01*
%TO.C,C30*%
X170111252Y-69785000D02*
X169588748Y-69785000D01*
X170111252Y-68315000D02*
X169588748Y-68315000D01*
%TO.C,C6*%
X143960000Y-54122164D02*
X143960000Y-54337836D01*
X143240000Y-54122164D02*
X143240000Y-54337836D01*
%TO.C,C15*%
X125362164Y-61440000D02*
X125577836Y-61440000D01*
X125362164Y-62160000D02*
X125577836Y-62160000D01*
%TO.C,C12*%
X139162164Y-61290000D02*
X139377836Y-61290000D01*
X139162164Y-62010000D02*
X139377836Y-62010000D01*
%TO.C,R38*%
X176536359Y-79520000D02*
X176843641Y-79520000D01*
X176536359Y-80280000D02*
X176843641Y-80280000D01*
%TO.C,R42*%
X176536359Y-69320000D02*
X176843641Y-69320000D01*
X176536359Y-70080000D02*
X176843641Y-70080000D01*
%TO.C,R10*%
X165920000Y-64296359D02*
X165920000Y-64603641D01*
X166680000Y-64296359D02*
X166680000Y-64603641D01*
%TO.C,C27*%
X159211252Y-80935000D02*
X158688748Y-80935000D01*
X159211252Y-79465000D02*
X158688748Y-79465000D01*
%TD*%
%LPC*%
D14*
%TO.C,C5*%
X137410000Y-56700000D03*
X136450000Y-56700000D03*
%TD*%
D15*
%TO.C,C28*%
X161500000Y-80200000D03*
X163400000Y-80200000D03*
%TD*%
D16*
%TO.C,J6*%
X129950000Y-67925000D03*
D17*
X129950000Y-65385000D03*
%TD*%
D18*
%TO.C,C19*%
X156930000Y-54127500D03*
X156930000Y-53167500D03*
%TD*%
%TO.C,C22*%
X159800000Y-65080000D03*
X159800000Y-64120000D03*
%TD*%
D19*
%TO.C,R44*%
X176180000Y-64600000D03*
X177200000Y-64600000D03*
%TD*%
%TO.C,R39*%
X176180000Y-77300000D03*
X177200000Y-77300000D03*
%TD*%
%TO.C,R33*%
X176180000Y-92600000D03*
X177200000Y-92600000D03*
%TD*%
D20*
%TO.C,FB2*%
X136750000Y-53850000D03*
X138400000Y-53850000D03*
%TD*%
D19*
%TO.C,R46*%
X176180000Y-59600000D03*
X177200000Y-59600000D03*
%TD*%
D21*
%TO.C,C13*%
X138740000Y-58000000D03*
X139700000Y-58000000D03*
%TD*%
D14*
%TO.C,C17*%
X150010000Y-57150000D03*
X149050000Y-57150000D03*
%TD*%
D22*
%TO.C,TP1*%
X134750000Y-66700000D03*
%TD*%
D14*
%TO.C,C9*%
X145560000Y-54100000D03*
X144600000Y-54100000D03*
%TD*%
D23*
%TO.C,R4*%
X130650000Y-57670000D03*
X130650000Y-56650000D03*
%TD*%
D24*
%TO.C,C16*%
X141600000Y-53740000D03*
X141600000Y-54700000D03*
%TD*%
D14*
%TO.C,C14*%
X150000000Y-56150000D03*
X149040000Y-56150000D03*
%TD*%
D25*
%TO.C,U5*%
X162290000Y-61790000D03*
X163560000Y-61790000D03*
X164830000Y-61790000D03*
X166100000Y-61790000D03*
X166100000Y-56290000D03*
X164830000Y-56290000D03*
X163560000Y-56290000D03*
X162290000Y-56290000D03*
%TD*%
D19*
%TO.C,R43*%
X176180000Y-67200000D03*
X177200000Y-67200000D03*
%TD*%
%TO.C,R34*%
X176180000Y-90000000D03*
X177200000Y-90000000D03*
%TD*%
D21*
%TO.C,C8*%
X138740000Y-59000000D03*
X139700000Y-59000000D03*
%TD*%
D23*
%TO.C,R9*%
X127250000Y-76720000D03*
X127250000Y-75700000D03*
%TD*%
D19*
%TO.C,R48*%
X176280000Y-54500000D03*
X177300000Y-54500000D03*
%TD*%
D26*
%TO.C,C29*%
X165300000Y-81000000D03*
X165300000Y-79100000D03*
%TD*%
D23*
%TO.C,R3*%
X120150000Y-58870000D03*
X120150000Y-57850000D03*
%TD*%
D21*
%TO.C,C21*%
X138720000Y-56700000D03*
X139680000Y-56700000D03*
%TD*%
D27*
%TO.C,C24*%
X121900000Y-76420000D03*
X124850000Y-76420000D03*
%TD*%
D24*
%TO.C,C7*%
X142600000Y-53750000D03*
X142600000Y-54710000D03*
%TD*%
D28*
%TO.C,J2*%
X171150000Y-101650000D03*
D29*
X171150000Y-102920000D03*
X169880000Y-101650000D03*
X169880000Y-102920000D03*
X168610000Y-101650000D03*
X168610000Y-102920000D03*
X167340000Y-101650000D03*
X167340000Y-102920000D03*
X166070000Y-101650000D03*
X166070000Y-102920000D03*
X164800000Y-101650000D03*
X164800000Y-102920000D03*
X163530000Y-101650000D03*
X163530000Y-102920000D03*
X162260000Y-101650000D03*
X162260000Y-102920000D03*
X160990000Y-101650000D03*
X160990000Y-102920000D03*
X159720000Y-101650000D03*
X159720000Y-102920000D03*
X158450000Y-101650000D03*
X158450000Y-102920000D03*
X157180000Y-101650000D03*
X157180000Y-102920000D03*
X155910000Y-101650000D03*
X155910000Y-102920000D03*
X154640000Y-101650000D03*
X154640000Y-102920000D03*
X153370000Y-101650000D03*
X153370000Y-102920000D03*
X152100000Y-101650000D03*
X152100000Y-102920000D03*
X150830000Y-101650000D03*
X150830000Y-102920000D03*
X149560000Y-101650000D03*
X149560000Y-102920000D03*
X148290000Y-101650000D03*
X148290000Y-102920000D03*
X147020000Y-101650000D03*
X147020000Y-102920000D03*
X145750000Y-101650000D03*
X145750000Y-102920000D03*
%TD*%
D19*
%TO.C,R37*%
X176180000Y-82400000D03*
X177200000Y-82400000D03*
%TD*%
D16*
%TO.C,J9*%
X170000000Y-76400000D03*
D17*
X170000000Y-73860000D03*
%TD*%
D19*
%TO.C,R45*%
X176180000Y-62100000D03*
X177200000Y-62100000D03*
%TD*%
%TO.C,R47*%
X176280000Y-57000000D03*
X177300000Y-57000000D03*
%TD*%
%TO.C,R7*%
X149040000Y-61500000D03*
X150060000Y-61500000D03*
%TD*%
D25*
%TO.C,U6*%
X159560000Y-77800000D03*
X160830000Y-77800000D03*
X162100000Y-77800000D03*
X163370000Y-77800000D03*
X163370000Y-72300000D03*
X162100000Y-72300000D03*
X160830000Y-72300000D03*
X159560000Y-72300000D03*
%TD*%
D26*
%TO.C,C25*%
X162250000Y-66140000D03*
X162250000Y-64240000D03*
%TD*%
D19*
%TO.C,R32*%
X176180000Y-97700000D03*
X177200000Y-97700000D03*
%TD*%
%TO.C,R40*%
X176180000Y-74800000D03*
X177200000Y-74800000D03*
%TD*%
%TO.C,R35*%
X176200000Y-87500000D03*
X177220000Y-87500000D03*
%TD*%
D30*
%TO.C,FB1*%
X138400000Y-55400000D03*
X136750000Y-55400000D03*
%TD*%
D31*
%TO.C,R8*%
X126250000Y-75700000D03*
X126250000Y-76720000D03*
%TD*%
D32*
%TO.C,Y1*%
X154350000Y-52825000D03*
X154350000Y-58650000D03*
%TD*%
D33*
%TO.C,U3*%
X147837500Y-63400000D03*
X147837500Y-63000000D03*
X147837500Y-62600000D03*
X147837500Y-62200000D03*
X147837500Y-61800000D03*
X147837500Y-61400000D03*
X147837500Y-61000000D03*
X147837500Y-60600000D03*
X147837500Y-60200000D03*
X147837500Y-59800000D03*
X147837500Y-59400000D03*
X147837500Y-59000000D03*
X147837500Y-58600000D03*
X147837500Y-58200000D03*
D34*
X147000000Y-57362500D03*
X146600000Y-57362500D03*
X146200000Y-57362500D03*
X145800000Y-57362500D03*
X145400000Y-57362500D03*
X145000000Y-57362500D03*
X144600000Y-57362500D03*
X144200000Y-57362500D03*
X143800000Y-57362500D03*
X143400000Y-57362500D03*
X143000000Y-57362500D03*
X142600000Y-57362500D03*
X142200000Y-57362500D03*
X141800000Y-57362500D03*
D33*
X140962500Y-58200000D03*
X140962500Y-58600000D03*
X140962500Y-59000000D03*
X140962500Y-59400000D03*
X140962500Y-59800000D03*
X140962500Y-60200000D03*
X140962500Y-60600000D03*
X140962500Y-61000000D03*
X140962500Y-61400000D03*
X140962500Y-61800000D03*
X140962500Y-62200000D03*
X140962500Y-62600000D03*
X140962500Y-63000000D03*
X140962500Y-63400000D03*
D34*
X141800000Y-64237500D03*
X142200000Y-64237500D03*
X142600000Y-64237500D03*
X143000000Y-64237500D03*
X143400000Y-64237500D03*
X143800000Y-64237500D03*
X144200000Y-64237500D03*
X144600000Y-64237500D03*
X145000000Y-64237500D03*
X145400000Y-64237500D03*
X145800000Y-64237500D03*
X146200000Y-64237500D03*
X146600000Y-64237500D03*
X147000000Y-64237500D03*
D35*
X144400000Y-60800000D03*
%TD*%
D19*
%TO.C,R41*%
X176180000Y-72200000D03*
X177200000Y-72200000D03*
%TD*%
D36*
%TO.C,C23*%
X119950000Y-76220000D03*
X118050000Y-76220000D03*
%TD*%
D20*
%TO.C,FB3*%
X169175000Y-71000000D03*
X170825000Y-71000000D03*
%TD*%
D37*
%TO.C,C26*%
X164550000Y-67290000D03*
X164550000Y-64340000D03*
%TD*%
D38*
%TO.C,U4*%
X121850000Y-56495000D03*
X121850000Y-57765000D03*
X121850000Y-59035000D03*
X121850000Y-60305000D03*
X129050000Y-60305000D03*
X129050000Y-59035000D03*
X129050000Y-57765000D03*
X129050000Y-56495000D03*
%TD*%
D16*
%TO.C,J3*%
X180900000Y-100200000D03*
D17*
X183440000Y-100200000D03*
X180900000Y-97660000D03*
X183440000Y-97660000D03*
X180900000Y-95120000D03*
X183440000Y-95120000D03*
X180900000Y-92580000D03*
X183440000Y-92580000D03*
X180900000Y-90040000D03*
X183440000Y-90040000D03*
X180900000Y-87500000D03*
X183440000Y-87500000D03*
X180900000Y-84960000D03*
X183440000Y-84960000D03*
X180900000Y-82420000D03*
X183440000Y-82420000D03*
X180900000Y-79880000D03*
X183440000Y-79880000D03*
X180900000Y-77340000D03*
X183440000Y-77340000D03*
X180900000Y-74800000D03*
X183440000Y-74800000D03*
X180900000Y-72260000D03*
X183440000Y-72260000D03*
X180900000Y-69720000D03*
X183440000Y-69720000D03*
X180900000Y-67180000D03*
X183440000Y-67180000D03*
X180900000Y-64640000D03*
X183440000Y-64640000D03*
X180900000Y-62100000D03*
X183440000Y-62100000D03*
X180900000Y-59560000D03*
X183440000Y-59560000D03*
X180900000Y-57020000D03*
X183440000Y-57020000D03*
X180900000Y-54480000D03*
X183440000Y-54480000D03*
X180900000Y-51940000D03*
X183440000Y-51940000D03*
%TD*%
D19*
%TO.C,R1*%
X144550000Y-53100000D03*
X145570000Y-53100000D03*
%TD*%
D24*
%TO.C,C20*%
X156930000Y-57517500D03*
X156930000Y-58477500D03*
%TD*%
D16*
%TO.C,J5*%
X129500000Y-49300000D03*
D17*
X129500000Y-51840000D03*
X126960000Y-49300000D03*
X126960000Y-51840000D03*
X124420000Y-49300000D03*
X124420000Y-51840000D03*
X121880000Y-49300000D03*
X121880000Y-51840000D03*
X119340000Y-49300000D03*
X119340000Y-51840000D03*
%TD*%
D28*
%TO.C,J1*%
X143210000Y-101650000D03*
D29*
X143210000Y-102920000D03*
X141940000Y-101650000D03*
X141940000Y-102920000D03*
X140670000Y-101650000D03*
X140670000Y-102920000D03*
X139400000Y-101650000D03*
X139400000Y-102920000D03*
X138130000Y-101650000D03*
X138130000Y-102920000D03*
X136860000Y-101650000D03*
X136860000Y-102920000D03*
X135590000Y-101650000D03*
X135590000Y-102920000D03*
X134320000Y-101650000D03*
X134320000Y-102920000D03*
X133050000Y-101650000D03*
X133050000Y-102920000D03*
X131780000Y-101650000D03*
X131780000Y-102920000D03*
X130510000Y-101650000D03*
X130510000Y-102920000D03*
X129240000Y-101650000D03*
X129240000Y-102920000D03*
X127970000Y-101650000D03*
X127970000Y-102920000D03*
X126700000Y-101650000D03*
X126700000Y-102920000D03*
X125430000Y-101650000D03*
X125430000Y-102920000D03*
X124160000Y-101650000D03*
X124160000Y-102920000D03*
X122890000Y-101650000D03*
X122890000Y-102920000D03*
X121620000Y-101650000D03*
X121620000Y-102920000D03*
X120350000Y-101650000D03*
X120350000Y-102920000D03*
X119080000Y-101650000D03*
X119080000Y-102920000D03*
X117810000Y-101650000D03*
X117810000Y-102920000D03*
%TD*%
D39*
%TO.C,X1*%
X153650000Y-62270000D03*
X153650000Y-67350000D03*
X157850000Y-67350000D03*
X157850000Y-62270000D03*
%TD*%
D21*
%TO.C,C18*%
X144340000Y-66500000D03*
X145300000Y-66500000D03*
%TD*%
D40*
%TO.C,U2*%
X118650000Y-74033750D03*
X120350000Y-74033750D03*
D41*
X118850000Y-64783750D03*
X118900000Y-68883750D03*
X120950000Y-64783750D03*
X123100000Y-68883750D03*
X125150000Y-64783750D03*
X123100000Y-70833750D03*
X123050000Y-64783750D03*
X125200000Y-68883750D03*
X121000000Y-68883750D03*
D40*
X122050000Y-74033750D03*
D41*
X125200000Y-70833750D03*
X125200000Y-66733750D03*
X121000000Y-66733750D03*
X123100000Y-66733750D03*
X118900000Y-66733750D03*
X121000000Y-70833750D03*
D42*
X122050000Y-67840000D03*
D41*
X118900000Y-70833750D03*
D40*
X123750000Y-74033750D03*
X125450000Y-74033750D03*
%TD*%
D16*
%TO.C,J8*%
X166000000Y-73900000D03*
D17*
X166000000Y-76440000D03*
%TD*%
D19*
%TO.C,R36*%
X176180000Y-85000000D03*
X177200000Y-85000000D03*
%TD*%
D43*
%TO.C,J4*%
X148425000Y-51325000D03*
X147775000Y-51325000D03*
X147125000Y-51325000D03*
X146475000Y-51325000D03*
X145825000Y-51325000D03*
X141725000Y-51325000D03*
X141075000Y-51325000D03*
X140425000Y-51325000D03*
X139775000Y-51325000D03*
X139125000Y-51325000D03*
D44*
X150725000Y-48650000D03*
X138175000Y-48650000D03*
%TD*%
D21*
%TO.C,C11*%
X144340000Y-67500000D03*
X145300000Y-67500000D03*
%TD*%
D45*
%TO.C,U1*%
X134000000Y-71000000D03*
X135000000Y-71000000D03*
X136000000Y-71000000D03*
X137000000Y-71000000D03*
X138000000Y-71000000D03*
X139000000Y-71000000D03*
X140000000Y-71000000D03*
X141000000Y-71000000D03*
X142000000Y-71000000D03*
X143000000Y-71000000D03*
X144000000Y-71000000D03*
X145000000Y-71000000D03*
X146000000Y-71000000D03*
X147000000Y-71000000D03*
X148000000Y-71000000D03*
X149000000Y-71000000D03*
X150000000Y-71000000D03*
X151000000Y-71000000D03*
X152000000Y-71000000D03*
X153000000Y-71000000D03*
X154000000Y-71000000D03*
X155000000Y-71000000D03*
X134000000Y-91000000D03*
X135000000Y-91000000D03*
X136000000Y-91000000D03*
X137000000Y-91000000D03*
X138000000Y-91000000D03*
X139000000Y-91000000D03*
X140000000Y-91000000D03*
X141000000Y-91000000D03*
X142000000Y-91000000D03*
X143000000Y-91000000D03*
X144000000Y-91000000D03*
X145000000Y-91000000D03*
X146000000Y-91000000D03*
X147000000Y-91000000D03*
X148000000Y-91000000D03*
X149000000Y-91000000D03*
X150000000Y-91000000D03*
X151000000Y-91000000D03*
X152000000Y-91000000D03*
X153000000Y-91000000D03*
X154000000Y-91000000D03*
X155000000Y-91000000D03*
X134000000Y-92000000D03*
X135000000Y-92000000D03*
X136000000Y-92000000D03*
X137000000Y-92000000D03*
X138000000Y-92000000D03*
X139000000Y-92000000D03*
X140000000Y-92000000D03*
X141000000Y-92000000D03*
X142000000Y-92000000D03*
X143000000Y-92000000D03*
X144000000Y-92000000D03*
X145000000Y-92000000D03*
X146000000Y-92000000D03*
X147000000Y-92000000D03*
X148000000Y-92000000D03*
X149000000Y-92000000D03*
X150000000Y-92000000D03*
X151000000Y-92000000D03*
X152000000Y-92000000D03*
X153000000Y-92000000D03*
X154000000Y-92000000D03*
X155000000Y-92000000D03*
X134000000Y-72000000D03*
X135000000Y-72000000D03*
X136000000Y-72000000D03*
X137000000Y-72000000D03*
X138000000Y-72000000D03*
X139000000Y-72000000D03*
X140000000Y-72000000D03*
X141000000Y-72000000D03*
X142000000Y-72000000D03*
X143000000Y-72000000D03*
X144000000Y-72000000D03*
X145000000Y-72000000D03*
X146000000Y-72000000D03*
X147000000Y-72000000D03*
X148000000Y-72000000D03*
X149000000Y-72000000D03*
X150000000Y-72000000D03*
X151000000Y-72000000D03*
X152000000Y-72000000D03*
X153000000Y-72000000D03*
X154000000Y-72000000D03*
X155000000Y-72000000D03*
X134000000Y-73000000D03*
X135000000Y-73000000D03*
X136000000Y-73000000D03*
X137000000Y-73000000D03*
X138000000Y-73000000D03*
X139000000Y-73000000D03*
X140000000Y-73000000D03*
X141000000Y-73000000D03*
X142000000Y-73000000D03*
X143000000Y-73000000D03*
X144000000Y-73000000D03*
X145000000Y-73000000D03*
X146000000Y-73000000D03*
X147000000Y-73000000D03*
X148000000Y-73000000D03*
X149000000Y-73000000D03*
X150000000Y-73000000D03*
X151000000Y-73000000D03*
X152000000Y-73000000D03*
X153000000Y-73000000D03*
X154000000Y-73000000D03*
X155000000Y-73000000D03*
X134000000Y-74000000D03*
X135000000Y-74000000D03*
X136000000Y-74000000D03*
X137000000Y-74000000D03*
X138000000Y-74000000D03*
X139000000Y-74000000D03*
X140000000Y-74000000D03*
X141000000Y-74000000D03*
X142000000Y-74000000D03*
X143000000Y-74000000D03*
X144000000Y-74000000D03*
X145000000Y-74000000D03*
X146000000Y-74000000D03*
X147000000Y-74000000D03*
X148000000Y-74000000D03*
X149000000Y-74000000D03*
X150000000Y-74000000D03*
X151000000Y-74000000D03*
X152000000Y-74000000D03*
X153000000Y-74000000D03*
X154000000Y-74000000D03*
X155000000Y-74000000D03*
X134000000Y-75000000D03*
X135000000Y-75000000D03*
X136000000Y-75000000D03*
X137000000Y-75000000D03*
X138000000Y-75000000D03*
X139000000Y-75000000D03*
X140000000Y-75000000D03*
X141000000Y-75000000D03*
X142000000Y-75000000D03*
X143000000Y-75000000D03*
X144000000Y-75000000D03*
X145000000Y-75000000D03*
X146000000Y-75000000D03*
X147000000Y-75000000D03*
X148000000Y-75000000D03*
X149000000Y-75000000D03*
X150000000Y-75000000D03*
X151000000Y-75000000D03*
X152000000Y-75000000D03*
X153000000Y-75000000D03*
X154000000Y-75000000D03*
X155000000Y-75000000D03*
X134000000Y-76000000D03*
X135000000Y-76000000D03*
X136000000Y-76000000D03*
X137000000Y-76000000D03*
X138000000Y-76000000D03*
X139000000Y-76000000D03*
X140000000Y-76000000D03*
X141000000Y-76000000D03*
X142000000Y-76000000D03*
X143000000Y-76000000D03*
X144000000Y-76000000D03*
X145000000Y-76000000D03*
X146000000Y-76000000D03*
X147000000Y-76000000D03*
X148000000Y-76000000D03*
X149000000Y-76000000D03*
X150000000Y-76000000D03*
X151000000Y-76000000D03*
X152000000Y-76000000D03*
X153000000Y-76000000D03*
X154000000Y-76000000D03*
X155000000Y-76000000D03*
X134000000Y-77000000D03*
X135000000Y-77000000D03*
X136000000Y-77000000D03*
X137000000Y-77000000D03*
X138000000Y-77000000D03*
X139000000Y-77000000D03*
X140000000Y-77000000D03*
X141000000Y-77000000D03*
X142000000Y-77000000D03*
X143000000Y-77000000D03*
X144000000Y-77000000D03*
X145000000Y-77000000D03*
X146000000Y-77000000D03*
X147000000Y-77000000D03*
X148000000Y-77000000D03*
X149000000Y-77000000D03*
X150000000Y-77000000D03*
X151000000Y-77000000D03*
X152000000Y-77000000D03*
X153000000Y-77000000D03*
X154000000Y-77000000D03*
X155000000Y-77000000D03*
X134000000Y-78000000D03*
X135000000Y-78000000D03*
X136000000Y-78000000D03*
X137000000Y-78000000D03*
X138000000Y-78000000D03*
X139000000Y-78000000D03*
X140000000Y-78000000D03*
X141000000Y-78000000D03*
X142000000Y-78000000D03*
X143000000Y-78000000D03*
X144000000Y-78000000D03*
X145000000Y-78000000D03*
X146000000Y-78000000D03*
X147000000Y-78000000D03*
X148000000Y-78000000D03*
X149000000Y-78000000D03*
X150000000Y-78000000D03*
X151000000Y-78000000D03*
X152000000Y-78000000D03*
X153000000Y-78000000D03*
X154000000Y-78000000D03*
X155000000Y-78000000D03*
X134000000Y-79000000D03*
X135000000Y-79000000D03*
X136000000Y-79000000D03*
X137000000Y-79000000D03*
X138000000Y-79000000D03*
X139000000Y-79000000D03*
X140000000Y-79000000D03*
X141000000Y-79000000D03*
X142000000Y-79000000D03*
X143000000Y-79000000D03*
X144000000Y-79000000D03*
X145000000Y-79000000D03*
X146000000Y-79000000D03*
X147000000Y-79000000D03*
X148000000Y-79000000D03*
X149000000Y-79000000D03*
X150000000Y-79000000D03*
X151000000Y-79000000D03*
X152000000Y-79000000D03*
X153000000Y-79000000D03*
X154000000Y-79000000D03*
X155000000Y-79000000D03*
X134000000Y-80000000D03*
X135000000Y-80000000D03*
X136000000Y-80000000D03*
X137000000Y-80000000D03*
X138000000Y-80000000D03*
X139000000Y-80000000D03*
X140000000Y-80000000D03*
X141000000Y-80000000D03*
X142000000Y-80000000D03*
X143000000Y-80000000D03*
X144000000Y-80000000D03*
X145000000Y-80000000D03*
X146000000Y-80000000D03*
X147000000Y-80000000D03*
X148000000Y-80000000D03*
X149000000Y-80000000D03*
X150000000Y-80000000D03*
X151000000Y-80000000D03*
X152000000Y-80000000D03*
X153000000Y-80000000D03*
X154000000Y-80000000D03*
X155000000Y-80000000D03*
X134000000Y-81000000D03*
X135000000Y-81000000D03*
X136000000Y-81000000D03*
X137000000Y-81000000D03*
X138000000Y-81000000D03*
X139000000Y-81000000D03*
X140000000Y-81000000D03*
X141000000Y-81000000D03*
X142000000Y-81000000D03*
X143000000Y-81000000D03*
X144000000Y-81000000D03*
X145000000Y-81000000D03*
X146000000Y-81000000D03*
X147000000Y-81000000D03*
X148000000Y-81000000D03*
X149000000Y-81000000D03*
X150000000Y-81000000D03*
X151000000Y-81000000D03*
X152000000Y-81000000D03*
X153000000Y-81000000D03*
X154000000Y-81000000D03*
X155000000Y-81000000D03*
X134000000Y-82000000D03*
X135000000Y-82000000D03*
X136000000Y-82000000D03*
X137000000Y-82000000D03*
X138000000Y-82000000D03*
X139000000Y-82000000D03*
X140000000Y-82000000D03*
X141000000Y-82000000D03*
X142000000Y-82000000D03*
X143000000Y-82000000D03*
X144000000Y-82000000D03*
X145000000Y-82000000D03*
X146000000Y-82000000D03*
X147000000Y-82000000D03*
X148000000Y-82000000D03*
X149000000Y-82000000D03*
X150000000Y-82000000D03*
X151000000Y-82000000D03*
X152000000Y-82000000D03*
X153000000Y-82000000D03*
X154000000Y-82000000D03*
X155000000Y-82000000D03*
X134000000Y-83000000D03*
X135000000Y-83000000D03*
X136000000Y-83000000D03*
X137000000Y-83000000D03*
X138000000Y-83000000D03*
X139000000Y-83000000D03*
X140000000Y-83000000D03*
X141000000Y-83000000D03*
X142000000Y-83000000D03*
X143000000Y-83000000D03*
X144000000Y-83000000D03*
X145000000Y-83000000D03*
X146000000Y-83000000D03*
X147000000Y-83000000D03*
X148000000Y-83000000D03*
X149000000Y-83000000D03*
X150000000Y-83000000D03*
X151000000Y-83000000D03*
X152000000Y-83000000D03*
X153000000Y-83000000D03*
X154000000Y-83000000D03*
X155000000Y-83000000D03*
X134000000Y-84000000D03*
X135000000Y-84000000D03*
X136000000Y-84000000D03*
X137000000Y-84000000D03*
X138000000Y-84000000D03*
X139000000Y-84000000D03*
X140000000Y-84000000D03*
X141000000Y-84000000D03*
X142000000Y-84000000D03*
X143000000Y-84000000D03*
X144000000Y-84000000D03*
X145000000Y-84000000D03*
X146000000Y-84000000D03*
X147000000Y-84000000D03*
X148000000Y-84000000D03*
X149000000Y-84000000D03*
X150000000Y-84000000D03*
X151000000Y-84000000D03*
X152000000Y-84000000D03*
X153000000Y-84000000D03*
X154000000Y-84000000D03*
X155000000Y-84000000D03*
X134000000Y-85000000D03*
X135000000Y-85000000D03*
X136000000Y-85000000D03*
X137000000Y-85000000D03*
X138000000Y-85000000D03*
X139000000Y-85000000D03*
X140000000Y-85000000D03*
X141000000Y-85000000D03*
X142000000Y-85000000D03*
X143000000Y-85000000D03*
X144000000Y-85000000D03*
X145000000Y-85000000D03*
X146000000Y-85000000D03*
X147000000Y-85000000D03*
X148000000Y-85000000D03*
X149000000Y-85000000D03*
X150000000Y-85000000D03*
X151000000Y-85000000D03*
X152000000Y-85000000D03*
X153000000Y-85000000D03*
X154000000Y-85000000D03*
X155000000Y-85000000D03*
X134000000Y-86000000D03*
X135000000Y-86000000D03*
X136000000Y-86000000D03*
X137000000Y-86000000D03*
X138000000Y-86000000D03*
X139000000Y-86000000D03*
X140000000Y-86000000D03*
X141000000Y-86000000D03*
X142000000Y-86000000D03*
X143000000Y-86000000D03*
X144000000Y-86000000D03*
X145000000Y-86000000D03*
X146000000Y-86000000D03*
X147000000Y-86000000D03*
X148000000Y-86000000D03*
X149000000Y-86000000D03*
X150000000Y-86000000D03*
X151000000Y-86000000D03*
X152000000Y-86000000D03*
X153000000Y-86000000D03*
X154000000Y-86000000D03*
X155000000Y-86000000D03*
X134000000Y-87000000D03*
X135000000Y-87000000D03*
X136000000Y-87000000D03*
X137000000Y-87000000D03*
X138000000Y-87000000D03*
X139000000Y-87000000D03*
X140000000Y-87000000D03*
X141000000Y-87000000D03*
X142000000Y-87000000D03*
X143000000Y-87000000D03*
X144000000Y-87000000D03*
X145000000Y-87000000D03*
X146000000Y-87000000D03*
X147000000Y-87000000D03*
X148000000Y-87000000D03*
X149000000Y-87000000D03*
X150000000Y-87000000D03*
X151000000Y-87000000D03*
X152000000Y-87000000D03*
X153000000Y-87000000D03*
X154000000Y-87000000D03*
X155000000Y-87000000D03*
X134000000Y-88000000D03*
X135000000Y-88000000D03*
X136000000Y-88000000D03*
X137000000Y-88000000D03*
X138000000Y-88000000D03*
X139000000Y-88000000D03*
X140000000Y-88000000D03*
X141000000Y-88000000D03*
X142000000Y-88000000D03*
X143000000Y-88000000D03*
X144000000Y-88000000D03*
X145000000Y-88000000D03*
X146000000Y-88000000D03*
X147000000Y-88000000D03*
X148000000Y-88000000D03*
X149000000Y-88000000D03*
X150000000Y-88000000D03*
X151000000Y-88000000D03*
X152000000Y-88000000D03*
X153000000Y-88000000D03*
X154000000Y-88000000D03*
X155000000Y-88000000D03*
X134000000Y-89000000D03*
X135000000Y-89000000D03*
X136000000Y-89000000D03*
X137000000Y-89000000D03*
X138000000Y-89000000D03*
X139000000Y-89000000D03*
X140000000Y-89000000D03*
X141000000Y-89000000D03*
X142000000Y-89000000D03*
X143000000Y-89000000D03*
X144000000Y-89000000D03*
X145000000Y-89000000D03*
X146000000Y-89000000D03*
X147000000Y-89000000D03*
X148000000Y-89000000D03*
X149000000Y-89000000D03*
X150000000Y-89000000D03*
X151000000Y-89000000D03*
X152000000Y-89000000D03*
X153000000Y-89000000D03*
X154000000Y-89000000D03*
X155000000Y-89000000D03*
X134000000Y-90000000D03*
X135000000Y-90000000D03*
X136000000Y-90000000D03*
X137000000Y-90000000D03*
X138000000Y-90000000D03*
X139000000Y-90000000D03*
X140000000Y-90000000D03*
X141000000Y-90000000D03*
X142000000Y-90000000D03*
X143000000Y-90000000D03*
X144000000Y-90000000D03*
X145000000Y-90000000D03*
X146000000Y-90000000D03*
X147000000Y-90000000D03*
X148000000Y-90000000D03*
X149000000Y-90000000D03*
X150000000Y-90000000D03*
X151000000Y-90000000D03*
X152000000Y-90000000D03*
X153000000Y-90000000D03*
X154000000Y-90000000D03*
X155000000Y-90000000D03*
%TD*%
D21*
%TO.C,C10*%
X140440000Y-66000000D03*
X141400000Y-66000000D03*
%TD*%
D23*
%TO.C,R31*%
X167350000Y-64940000D03*
X167350000Y-63920000D03*
%TD*%
D16*
%TO.C,J7*%
X169200000Y-61230000D03*
D17*
X169200000Y-58690000D03*
%TD*%
D36*
%TO.C,C30*%
X170800000Y-69050000D03*
X168900000Y-69050000D03*
%TD*%
D24*
%TO.C,C6*%
X143600000Y-53750000D03*
X143600000Y-54710000D03*
%TD*%
D21*
%TO.C,C15*%
X124990000Y-61800000D03*
X125950000Y-61800000D03*
%TD*%
%TO.C,C12*%
X138790000Y-61650000D03*
X139750000Y-61650000D03*
%TD*%
D19*
%TO.C,R38*%
X176180000Y-79900000D03*
X177200000Y-79900000D03*
%TD*%
%TO.C,R42*%
X176180000Y-69700000D03*
X177200000Y-69700000D03*
%TD*%
D31*
%TO.C,R10*%
X166300000Y-63940000D03*
X166300000Y-64960000D03*
%TD*%
D36*
%TO.C,C27*%
X159900000Y-80200000D03*
X158000000Y-80200000D03*
%TD*%
M02*
