M48
; DRILL file {KiCad 6.0.10-86aedd382b~118~ubuntu20.04.1} date Sun 05 Mar 2023 12:00:34 AM PST
; FORMAT={-:-/ absolute / inch / decimal}
; #@! TF.CreationDate,2023-03-05T00:00:34-08:00
; #@! TF.GenerationSoftware,Kicad,Pcbnew,6.0.10-86aedd382b~118~ubuntu20.04.1
; #@! TF.FileFunction,Plated,1,4,PTH
FMAT,2
INCH
; #@! TA.AperFunction,Plated,PTH,ViaDrill
T1C0.0079
; #@! TA.AperFunction,Plated,PTH,ComponentDrill
T2C0.0079
; #@! TA.AperFunction,Plated,PTH,ViaDrill
T3C0.0157
; #@! TA.AperFunction,Plated,PTH,ViaDrill
T4C0.0197
; #@! TA.AperFunction,Plated,PTH,ComponentDrill
T5C0.0197
; #@! TA.AperFunction,Plated,PTH,ViaDrill
T6C0.0200
; #@! TA.AperFunction,Plated,PTH,ComponentDrill
T7C0.0256
; #@! TA.AperFunction,Plated,PTH,ComponentDrill
T8C0.0394
%
G90
G05
T1
X5.1988Y-1.9705
X5.2224Y-1.9882
X5.2421Y-2.187
X5.2441Y-2.3248
X5.248Y-3.2126
X5.248Y-3.252
X5.248Y-3.2913
X5.248Y-3.3307
X5.248Y-3.3701
X5.248Y-3.4094
X5.248Y-3.4488
X5.248Y-3.4882
X5.248Y-3.5276
X5.2618Y-2.374
X5.2717Y-2.4547
X5.2933Y-3.6024
X5.2953Y-2.7756
X5.2953Y-2.815
X5.2953Y-3.1299
X5.3346Y-2.7756
X5.3346Y-2.815
X5.3346Y-2.8543
X5.3346Y-2.9331
X5.3346Y-3.1299
X5.3366Y-3.6024
X5.3386Y-3.2087
X5.3386Y-3.248
X5.3386Y-3.2874
X5.3386Y-3.3268
X5.3386Y-3.3661
X5.3386Y-3.4055
X5.3386Y-3.4449
X5.3386Y-3.4843
X5.3386Y-3.5236
X5.3386Y-3.563
X5.3504Y-2.626
X5.3701Y-3.3661
X5.374Y-2.8543
X5.374Y-2.8937
X5.374Y-2.9331
X5.374Y-3.1299
X5.374Y-3.1634
X5.374Y-3.2087
X5.374Y-3.2874
X5.374Y-3.4055
X5.374Y-3.4449
X5.374Y-3.4843
X5.374Y-3.5236
X5.376Y-3.252
X5.378Y-3.3268
X5.4134Y-3.0118
X5.4134Y-3.1299
X5.4134Y-3.1634
X5.4134Y-3.2087
X5.4134Y-3.2874
X5.4134Y-3.3268
X5.4134Y-3.3622
X5.4134Y-3.4055
X5.4134Y-3.4449
X5.4134Y-3.4843
X5.4134Y-3.5236
X5.4154Y-3.25
X5.4528Y-2.8543
X5.4528Y-2.9291
X5.4528Y-3.1299
X5.4528Y-3.1693
X5.4528Y-3.2087
X5.4528Y-3.248
X5.4528Y-3.2874
X5.4528Y-3.3268
X5.4528Y-3.4055
X5.4528Y-3.4449
X5.4528Y-3.4843
X5.4547Y-3.3661
X5.4902Y-3.2874
X5.4902Y-3.3268
X5.4902Y-3.4035
X5.4921Y-2.8543
X5.4921Y-2.9331
X5.4921Y-3.1299
X5.4921Y-3.1693
X5.4921Y-3.2087
X5.4921Y-3.248
X5.4921Y-3.3661
X5.4921Y-3.4843
X5.4961Y-2.9724
X5.5295Y-3.3327
X5.5315Y-2.9724
X5.5315Y-3.0118
X5.5315Y-3.0906
X5.5315Y-3.1299
X5.5315Y-3.2087
X5.5315Y-3.248
X5.5315Y-3.2854
X5.5315Y-3.4055
X5.5315Y-3.4843
X5.5669Y-3.3327
X5.5689Y-3.1339
X5.5709Y-2.8543
X5.5709Y-3.2087
X5.5709Y-3.248
X5.5709Y-3.2874
X5.5709Y-3.563
X5.6043Y-3.2539
X5.6043Y-3.2933
X5.6043Y-3.3307
X5.6063Y-3.1339
X5.6083Y-3.0906
X5.6083Y-3.1693
X5.6083Y-3.2087
X5.6102Y-2.8543
X5.6102Y-2.8937
X5.6102Y-3.0118
X5.6102Y-3.0512
X5.6102Y-3.3681
X5.6496Y-2.8543
X5.6496Y-2.8937
X5.6496Y-2.9331
X5.6496Y-3.0118
X5.6496Y-3.0512
X5.6496Y-3.0906
X5.6496Y-3.1299
X5.6496Y-3.1693
X5.6496Y-3.2087
X5.6496Y-3.248
X5.6496Y-3.2874
X5.6496Y-3.3268
X5.6496Y-3.3661
X5.6496Y-3.4449
X5.6496Y-3.4843
X5.689Y-2.8543
X5.689Y-3.0906
X5.689Y-3.1299
X5.689Y-3.1693
X5.689Y-3.2087
X5.689Y-3.248
X5.689Y-3.2874
X5.689Y-3.5236
X5.7244Y-3.3661
X5.7264Y-3.3268
X5.7283Y-2.8543
X5.7283Y-3.0118
X5.7283Y-3.0512
X5.7283Y-3.0906
X5.7283Y-3.1299
X5.7283Y-3.1693
X5.7283Y-3.2087
X5.7283Y-3.248
X5.7283Y-3.2874
X5.7283Y-3.5236
X5.7657Y-3.1299
X5.7657Y-3.1693
X5.7657Y-3.2087
X5.7657Y-3.248
X5.7677Y-2.8937
X5.7677Y-2.9331
X5.7677Y-3.0118
X5.7677Y-3.0512
X5.7677Y-3.0906
X5.7677Y-3.2894
X5.7677Y-3.3268
X5.7677Y-3.3661
X5.7677Y-3.4449
X5.7677Y-3.4843
X5.8071Y-2.8937
X5.8071Y-3.0118
X5.8071Y-3.1299
X5.8071Y-3.1693
X5.8071Y-3.2087
X5.8071Y-3.248
X5.8071Y-3.2874
X5.8071Y-3.3661
X5.8425Y-3.2894
X5.8445Y-3.2461
X5.8465Y-3.0118
X5.8465Y-3.1299
X5.8465Y-3.1693
X5.8465Y-3.3661
X5.8465Y-3.5236
X5.8474Y-3.2077
X5.874Y-2.3051
X5.876Y-2.3406
X5.8858Y-2.9331
X5.8858Y-3.1299
X5.8858Y-3.1693
X5.8858Y-3.248
X5.8858Y-3.2874
X5.8858Y-3.4055
X5.8868Y-3.2077
X5.8878Y-3.4449
X5.8898Y-2.9724
X5.8976Y-2.3228
X5.9193Y-2.9331
X5.9193Y-2.9724
X5.9193Y-3.248
X5.9252Y-2.8937
X5.9252Y-3.0138
X5.9252Y-3.0906
X5.9252Y-3.1299
X5.9252Y-3.1693
X5.9252Y-3.3661
X5.9252Y-3.4055
X5.9252Y-3.4449
X5.9272Y-3.4862
X5.9626Y-2.9724
X5.9646Y-2.8937
X5.9646Y-3.0906
X5.9646Y-3.1299
X5.9646Y-3.2874
X5.9646Y-3.4449
X5.9646Y-3.563
X5.998Y-3.2087
X5.998Y-3.248
X6.0039Y-2.8543
X6.0039Y-3.0118
X6.0039Y-3.0906
X6.0039Y-3.1299
X6.0039Y-3.3602
X6.0039Y-3.4055
X6.0039Y-3.4843
X6.0039Y-3.563
X6.0049Y-2.8927
X6.0059Y-2.9724
X6.0394Y-3.2087
X6.0394Y-3.2874
X6.0394Y-3.3268
X6.0394Y-3.3661
X6.0394Y-3.4055
X6.0394Y-3.4449
X6.0394Y-3.4843
X6.0394Y-3.5236
X6.0394Y-3.563
X6.0433Y-2.8543
X6.0433Y-2.9331
X6.0433Y-2.9724
X6.0433Y-3.0512
X6.0433Y-3.0906
X6.0433Y-3.1693
X6.0433Y-3.6417
X6.0443Y-2.8927
X6.0797Y-3.5659
X6.0827Y-2.7756
X6.0827Y-2.815
X6.0846Y-2.8524
X6.0846Y-2.8917
X6.0846Y-2.9311
X6.0846Y-2.9705
X6.0846Y-3.0098
X6.0846Y-3.0492
X6.0846Y-3.0886
X6.0846Y-3.128
X6.0846Y-3.6043
X6.122Y-2.7756
X6.122Y-3.2087
X6.124Y-2.815
X6.124Y-2.8524
X6.124Y-2.8917
X6.124Y-2.9311
X6.124Y-2.9705
X6.124Y-3.0098
X6.124Y-3.0492
X6.124Y-3.0886
X6.124Y-3.128
X6.124Y-3.6024
X6.1339Y-3.2835
X6.1339Y-3.3228
X6.1339Y-3.3622
X6.1339Y-3.4016
X6.1339Y-3.4409
X6.1339Y-3.4803
X6.1339Y-3.5197
X6.1339Y-3.5591
X6.1555Y-3.1457
X6.9094Y-2.1457
X6.9094Y-2.2441
X6.9094Y-2.3465
X6.9094Y-2.4449
X6.9094Y-2.5433
X6.9094Y-2.6457
X6.9094Y-2.7441
X6.9094Y-2.8425
X6.9094Y-2.9449
X6.9094Y-3.0433
X6.9094Y-3.1457
X6.9094Y-3.2441
X6.9094Y-3.3465
X6.9094Y-3.4449
X6.9094Y-3.5433
X6.9094Y-3.6457
X6.9094Y-3.8465
T2
X4.6791Y-2.5505
X4.6811Y-2.6273
X4.6811Y-2.712
X4.6811Y-2.7887
X4.7618Y-2.5505
X4.7638Y-2.6273
X4.7638Y-2.712
X4.7638Y-2.7887
X4.8445Y-2.5505
X4.8465Y-2.6273
X4.8465Y-2.712
X4.8465Y-2.7887
X4.9272Y-2.5505
X4.9291Y-2.6273
X4.9291Y-2.712
X4.9291Y-2.7887
T3
X4.862Y-2.3742
X4.9587Y-2.374
X5.335Y-2.2323
X5.3839Y-2.0768
X5.4331Y-2.3031
X5.4429Y-2.0276
X5.4488Y-2.0846
X5.4567Y-2.4606
X5.4921Y-2.4606
X5.5276Y-1.9685
X5.5295Y-2.5669
X5.5536Y-2.2614
X5.5925Y-2.5748
X5.6555Y-2.6575
X5.6693Y-2.2087
X5.685Y-2.3937
X5.7146Y-2.5855
X5.7263Y-2.2201
X5.7401Y-1.9685
X5.752Y-2.6043
X5.8012Y-2.2205
X5.9154Y-2.4587
X5.9272Y-2.2913
X5.9744Y-2.6516
X6.1783Y-2.1979
X6.1811Y-3.1693
X6.2874Y-2.4508
X6.2913Y-2.6004
X6.2953Y-3.2244
X6.3346Y-2.3622
X6.3583Y-3.2244
X6.3898Y-2.1102
X6.3898Y-2.3071
X6.4409Y-2.1102
X6.4409Y-2.3071
X6.4882Y-2.1102
X6.4882Y-2.3071
X6.5079Y-3.2264
X6.5394Y-2.1102
X6.5394Y-2.3071
T4
X6.2815Y-2.7736
X6.3323Y-2.7752
X6.3815Y-2.7752
X6.4307Y-2.7752
X6.4331Y-3.2244
X6.7244Y-2.6555
T6
X5.5512Y-2.7441
X5.6102Y-3.6732
X5.8071Y-3.6732
X5.8681Y-2.7402
X6.7323Y-3.689
T7
X4.6382Y-4.002
X4.6382Y-4.052
X4.6882Y-4.002
X4.6882Y-4.052
X4.7382Y-4.002
X4.7382Y-4.052
X4.7882Y-4.002
X4.7882Y-4.052
X4.8382Y-4.002
X4.8382Y-4.052
X4.8882Y-4.002
X4.8882Y-4.052
X4.9382Y-4.002
X4.9382Y-4.052
X4.9882Y-4.002
X4.9882Y-4.052
X5.0382Y-4.002
X5.0382Y-4.052
X5.0882Y-4.002
X5.0882Y-4.052
X5.1382Y-4.002
X5.1382Y-4.052
X5.1882Y-4.002
X5.1882Y-4.052
X5.2382Y-4.002
X5.2382Y-4.052
X5.2882Y-4.002
X5.2882Y-4.052
X5.3382Y-4.002
X5.3382Y-4.052
X5.3882Y-4.002
X5.3882Y-4.052
X5.4382Y-4.002
X5.4382Y-4.052
X5.4882Y-4.002
X5.4882Y-4.052
X5.5382Y-4.002
X5.5382Y-4.052
X5.5882Y-4.002
X5.5882Y-4.052
X5.6382Y-4.002
X5.6382Y-4.052
X5.7382Y-4.002
X5.7382Y-4.052
X5.7882Y-4.002
X5.7882Y-4.052
X5.8382Y-4.002
X5.8382Y-4.052
X5.8882Y-4.002
X5.8882Y-4.052
X5.9382Y-4.002
X5.9382Y-4.052
X5.9882Y-4.002
X5.9882Y-4.052
X6.0382Y-4.002
X6.0382Y-4.052
X6.0882Y-4.002
X6.0882Y-4.052
X6.1382Y-4.002
X6.1382Y-4.052
X6.1882Y-4.002
X6.1882Y-4.052
X6.2382Y-4.002
X6.2382Y-4.052
X6.2882Y-4.002
X6.2882Y-4.052
X6.3382Y-4.002
X6.3382Y-4.052
X6.3882Y-4.002
X6.3882Y-4.052
X6.4382Y-4.002
X6.4382Y-4.052
X6.4882Y-4.002
X6.4882Y-4.052
X6.5382Y-4.002
X6.5382Y-4.052
X6.5882Y-4.002
X6.5882Y-4.052
X6.6382Y-4.002
X6.6382Y-4.052
X6.6882Y-4.002
X6.6882Y-4.052
X6.7382Y-4.002
X6.7382Y-4.052
T8
X4.6984Y-1.9409
X4.6984Y-2.0409
X4.7984Y-1.9409
X4.7984Y-2.0409
X4.8984Y-1.9409
X4.8984Y-2.0409
X4.9984Y-1.9409
X4.9984Y-2.0409
X5.0984Y-1.9409
X5.0984Y-2.0409
X5.1161Y-2.5742
X5.1161Y-2.6742
X6.5354Y-2.9094
X6.5354Y-3.0094
X6.6614Y-2.3106
X6.6614Y-2.4106
X6.6929Y-2.9079
X6.6929Y-3.0079
X7.122Y-2.0449
X7.122Y-2.1449
X7.122Y-2.2449
X7.122Y-2.3449
X7.122Y-2.4449
X7.122Y-2.5449
X7.122Y-2.6449
X7.122Y-2.7449
X7.122Y-2.8449
X7.122Y-2.9449
X7.122Y-3.0449
X7.122Y-3.1449
X7.122Y-3.2449
X7.122Y-3.3449
X7.122Y-3.4449
X7.122Y-3.5449
X7.122Y-3.6449
X7.122Y-3.7449
X7.122Y-3.8449
X7.122Y-3.9449
X7.222Y-2.0449
X7.222Y-2.1449
X7.222Y-2.2449
X7.222Y-2.3449
X7.222Y-2.4449
X7.222Y-2.5449
X7.222Y-2.6449
X7.222Y-2.7449
X7.222Y-2.8449
X7.222Y-2.9449
X7.222Y-3.0449
X7.222Y-3.1449
X7.222Y-3.2449
X7.222Y-3.3449
X7.222Y-3.4449
X7.222Y-3.5449
X7.222Y-3.6449
X7.222Y-3.7449
X7.222Y-3.8449
X7.222Y-3.9449
T5
G00X5.44Y-1.9311
M15
G01X5.44Y-1.8996
M16
G05
G00X5.9341Y-1.9311
M15
G01X5.9341Y-1.8996
M16
G05
T0
M30
