%TF.GenerationSoftware,KiCad,Pcbnew,6.0.10-86aedd382b~118~ubuntu20.04.1*%
%TF.CreationDate,2023-03-04T23:04:57-08:00*%
%TF.ProjectId,ep2c35_trial,65703263-3335-45f7-9472-69616c2e6b69,rev?*%
%TF.SameCoordinates,Original*%
%TF.FileFunction,Paste,Top*%
%TF.FilePolarity,Positive*%
%FSLAX46Y46*%
G04 Gerber Fmt 4.6, Leading zero omitted, Abs format (unit mm)*
G04 Created by KiCad (PCBNEW 6.0.10-86aedd382b~118~ubuntu20.04.1) date 2023-03-04 23:04:57*
%MOMM*%
%LPD*%
G01*
G04 APERTURE LIST*
G04 Aperture macros list*
%AMRoundRect*
0 Rectangle with rounded corners*
0 $1 Rounding radius*
0 $2 $3 $4 $5 $6 $7 $8 $9 X,Y pos of 4 corners*
0 Add a 4 corners polygon primitive as box body*
4,1,4,$2,$3,$4,$5,$6,$7,$8,$9,$2,$3,0*
0 Add four circle primitives for the rounded corners*
1,1,$1+$1,$2,$3*
1,1,$1+$1,$4,$5*
1,1,$1+$1,$6,$7*
1,1,$1+$1,$8,$9*
0 Add four rect primitives between the rounded corners*
20,1,$1+$1,$2,$3,$4,$5,0*
20,1,$1+$1,$4,$5,$6,$7,0*
20,1,$1+$1,$6,$7,$8,$9,0*
20,1,$1+$1,$8,$9,$2,$3,0*%
G04 Aperture macros list end*
%ADD10RoundRect,0.140000X0.140000X0.170000X-0.140000X0.170000X-0.140000X-0.170000X0.140000X-0.170000X0*%
%ADD11RoundRect,0.250000X-0.250000X-0.475000X0.250000X-0.475000X0.250000X0.475000X-0.250000X0.475000X0*%
%ADD12RoundRect,0.140000X0.170000X-0.140000X0.170000X0.140000X-0.170000X0.140000X-0.170000X-0.140000X0*%
%ADD13RoundRect,0.135000X-0.135000X-0.185000X0.135000X-0.185000X0.135000X0.185000X-0.135000X0.185000X0*%
%ADD14RoundRect,0.200000X-0.200000X-0.275000X0.200000X-0.275000X0.200000X0.275000X-0.200000X0.275000X0*%
%ADD15RoundRect,0.140000X-0.140000X-0.170000X0.140000X-0.170000X0.140000X0.170000X-0.140000X0.170000X0*%
%ADD16RoundRect,0.135000X0.185000X-0.135000X0.185000X0.135000X-0.185000X0.135000X-0.185000X-0.135000X0*%
%ADD17RoundRect,0.140000X-0.170000X0.140000X-0.170000X-0.140000X0.170000X-0.140000X0.170000X0.140000X0*%
%ADD18R,0.700000X2.200000*%
%ADD19RoundRect,0.250000X0.475000X-0.250000X0.475000X0.250000X-0.475000X0.250000X-0.475000X-0.250000X0*%
%ADD20RoundRect,0.250000X-0.325000X-0.650000X0.325000X-0.650000X0.325000X0.650000X-0.325000X0.650000X0*%
%ADD21RoundRect,0.200000X0.200000X0.275000X-0.200000X0.275000X-0.200000X-0.275000X0.200000X-0.275000X0*%
%ADD22RoundRect,0.135000X-0.185000X0.135000X-0.185000X-0.135000X0.185000X-0.135000X0.185000X0.135000X0*%
%ADD23R,2.500000X3.325000*%
%ADD24RoundRect,0.243363X0.306637X0.456637X-0.306637X0.456637X-0.306637X-0.456637X0.306637X-0.456637X0*%
%ADD25RoundRect,0.243363X0.306637X0.451637X-0.306637X0.451637X-0.306637X-0.451637X0.306637X-0.451637X0*%
%ADD26RoundRect,0.050000X0.387500X0.050000X-0.387500X0.050000X-0.387500X-0.050000X0.387500X-0.050000X0*%
%ADD27RoundRect,0.050000X0.050000X0.387500X-0.050000X0.387500X-0.050000X-0.387500X0.050000X-0.387500X0*%
%ADD28RoundRect,0.250000X0.250000X0.475000X-0.250000X0.475000X-0.250000X-0.475000X0.250000X-0.475000X0*%
%ADD29RoundRect,0.250000X0.650000X-0.325000X0.650000X0.325000X-0.650000X0.325000X-0.650000X-0.325000X0*%
%ADD30RoundRect,0.150000X-0.650000X-0.150000X0.650000X-0.150000X0.650000X0.150000X-0.650000X0.150000X0*%
%ADD31R,2.000000X1.800000*%
%ADD32R,1.700000X1.700000*%
%ADD33R,1.700000X1.600000*%
%ADD34R,1.200000X1.200000*%
%ADD35R,0.400000X1.350000*%
%ADD36C,0.500000*%
G04 APERTURE END LIST*
D10*
%TO.C,C5*%
X137410000Y-56700000D03*
X136450000Y-56700000D03*
%TD*%
D11*
%TO.C,C28*%
X161500000Y-80200000D03*
X163400000Y-80200000D03*
%TD*%
D12*
%TO.C,C19*%
X156930000Y-54127500D03*
X156930000Y-53167500D03*
%TD*%
%TO.C,C22*%
X159800000Y-65080000D03*
X159800000Y-64120000D03*
%TD*%
D13*
%TO.C,R44*%
X176180000Y-64600000D03*
X177200000Y-64600000D03*
%TD*%
%TO.C,R39*%
X176180000Y-77300000D03*
X177200000Y-77300000D03*
%TD*%
%TO.C,R33*%
X176180000Y-92600000D03*
X177200000Y-92600000D03*
%TD*%
D14*
%TO.C,FB2*%
X136750000Y-53850000D03*
X138400000Y-53850000D03*
%TD*%
D13*
%TO.C,R46*%
X176180000Y-59600000D03*
X177200000Y-59600000D03*
%TD*%
D15*
%TO.C,C13*%
X138740000Y-58000000D03*
X139700000Y-58000000D03*
%TD*%
D10*
%TO.C,C17*%
X150010000Y-57150000D03*
X149050000Y-57150000D03*
%TD*%
%TO.C,C9*%
X145560000Y-54100000D03*
X144600000Y-54100000D03*
%TD*%
D16*
%TO.C,R4*%
X130650000Y-57670000D03*
X130650000Y-56650000D03*
%TD*%
D17*
%TO.C,C16*%
X141600000Y-53740000D03*
X141600000Y-54700000D03*
%TD*%
D10*
%TO.C,C14*%
X150000000Y-56150000D03*
X149040000Y-56150000D03*
%TD*%
D18*
%TO.C,U5*%
X162290000Y-61790000D03*
X163560000Y-61790000D03*
X164830000Y-61790000D03*
X166100000Y-61790000D03*
X166100000Y-56290000D03*
X164830000Y-56290000D03*
X163560000Y-56290000D03*
X162290000Y-56290000D03*
%TD*%
D13*
%TO.C,R43*%
X176180000Y-67200000D03*
X177200000Y-67200000D03*
%TD*%
%TO.C,R34*%
X176180000Y-90000000D03*
X177200000Y-90000000D03*
%TD*%
D15*
%TO.C,C8*%
X138740000Y-59000000D03*
X139700000Y-59000000D03*
%TD*%
D16*
%TO.C,R9*%
X127250000Y-76720000D03*
X127250000Y-75700000D03*
%TD*%
D13*
%TO.C,R48*%
X176280000Y-54500000D03*
X177300000Y-54500000D03*
%TD*%
D19*
%TO.C,C29*%
X165300000Y-81000000D03*
X165300000Y-79100000D03*
%TD*%
D16*
%TO.C,R3*%
X120150000Y-58870000D03*
X120150000Y-57850000D03*
%TD*%
D15*
%TO.C,C21*%
X138720000Y-56700000D03*
X139680000Y-56700000D03*
%TD*%
D20*
%TO.C,C24*%
X121900000Y-76420000D03*
X124850000Y-76420000D03*
%TD*%
D17*
%TO.C,C7*%
X142600000Y-53750000D03*
X142600000Y-54710000D03*
%TD*%
D13*
%TO.C,R37*%
X176180000Y-82400000D03*
X177200000Y-82400000D03*
%TD*%
%TO.C,R45*%
X176180000Y-62100000D03*
X177200000Y-62100000D03*
%TD*%
%TO.C,R47*%
X176280000Y-57000000D03*
X177300000Y-57000000D03*
%TD*%
%TO.C,R7*%
X149040000Y-61500000D03*
X150060000Y-61500000D03*
%TD*%
D18*
%TO.C,U6*%
X159560000Y-77800000D03*
X160830000Y-77800000D03*
X162100000Y-77800000D03*
X163370000Y-77800000D03*
X163370000Y-72300000D03*
X162100000Y-72300000D03*
X160830000Y-72300000D03*
X159560000Y-72300000D03*
%TD*%
D19*
%TO.C,C25*%
X162250000Y-66140000D03*
X162250000Y-64240000D03*
%TD*%
D13*
%TO.C,R32*%
X176180000Y-97700000D03*
X177200000Y-97700000D03*
%TD*%
%TO.C,R40*%
X176180000Y-74800000D03*
X177200000Y-74800000D03*
%TD*%
%TO.C,R35*%
X176200000Y-87500000D03*
X177220000Y-87500000D03*
%TD*%
D21*
%TO.C,FB1*%
X138400000Y-55400000D03*
X136750000Y-55400000D03*
%TD*%
D22*
%TO.C,R8*%
X126250000Y-75700000D03*
X126250000Y-76720000D03*
%TD*%
D23*
%TO.C,Y1*%
X154350000Y-52825000D03*
X154350000Y-58650000D03*
%TD*%
D24*
%TO.C,U3*%
X145650000Y-60795000D03*
D25*
X144400000Y-62330000D03*
X144400000Y-59275000D03*
D24*
X145650000Y-59270000D03*
D25*
X144400000Y-60800000D03*
X143150000Y-60800000D03*
X143150000Y-62330000D03*
D24*
X145650000Y-62325000D03*
D25*
X143150000Y-59275000D03*
D26*
X147837500Y-63400000D03*
X147837500Y-63000000D03*
X147837500Y-62600000D03*
X147837500Y-62200000D03*
X147837500Y-61800000D03*
X147837500Y-61400000D03*
X147837500Y-61000000D03*
X147837500Y-60600000D03*
X147837500Y-60200000D03*
X147837500Y-59800000D03*
X147837500Y-59400000D03*
X147837500Y-59000000D03*
X147837500Y-58600000D03*
X147837500Y-58200000D03*
D27*
X147000000Y-57362500D03*
X146600000Y-57362500D03*
X146200000Y-57362500D03*
X145800000Y-57362500D03*
X145400000Y-57362500D03*
X145000000Y-57362500D03*
X144600000Y-57362500D03*
X144200000Y-57362500D03*
X143800000Y-57362500D03*
X143400000Y-57362500D03*
X143000000Y-57362500D03*
X142600000Y-57362500D03*
X142200000Y-57362500D03*
X141800000Y-57362500D03*
D26*
X140962500Y-58200000D03*
X140962500Y-58600000D03*
X140962500Y-59000000D03*
X140962500Y-59400000D03*
X140962500Y-59800000D03*
X140962500Y-60200000D03*
X140962500Y-60600000D03*
X140962500Y-61000000D03*
X140962500Y-61400000D03*
X140962500Y-61800000D03*
X140962500Y-62200000D03*
X140962500Y-62600000D03*
X140962500Y-63000000D03*
X140962500Y-63400000D03*
D27*
X141800000Y-64237500D03*
X142200000Y-64237500D03*
X142600000Y-64237500D03*
X143000000Y-64237500D03*
X143400000Y-64237500D03*
X143800000Y-64237500D03*
X144200000Y-64237500D03*
X144600000Y-64237500D03*
X145000000Y-64237500D03*
X145400000Y-64237500D03*
X145800000Y-64237500D03*
X146200000Y-64237500D03*
X146600000Y-64237500D03*
X147000000Y-64237500D03*
%TD*%
D13*
%TO.C,R41*%
X176180000Y-72200000D03*
X177200000Y-72200000D03*
%TD*%
D28*
%TO.C,C23*%
X119950000Y-76220000D03*
X118050000Y-76220000D03*
%TD*%
D14*
%TO.C,FB3*%
X169175000Y-71000000D03*
X170825000Y-71000000D03*
%TD*%
D29*
%TO.C,C26*%
X164550000Y-67290000D03*
X164550000Y-64340000D03*
%TD*%
D30*
%TO.C,U4*%
X121850000Y-56495000D03*
X121850000Y-57765000D03*
X121850000Y-59035000D03*
X121850000Y-60305000D03*
X129050000Y-60305000D03*
X129050000Y-59035000D03*
X129050000Y-57765000D03*
X129050000Y-56495000D03*
%TD*%
D13*
%TO.C,R1*%
X144550000Y-53100000D03*
X145570000Y-53100000D03*
%TD*%
D17*
%TO.C,C20*%
X156930000Y-57517500D03*
X156930000Y-58477500D03*
%TD*%
D31*
%TO.C,X1*%
X153650000Y-62270000D03*
X153650000Y-67350000D03*
X157850000Y-67350000D03*
X157850000Y-62270000D03*
%TD*%
D15*
%TO.C,C18*%
X144340000Y-66500000D03*
X145300000Y-66500000D03*
%TD*%
D32*
%TO.C,U2*%
X125200000Y-66783750D03*
D33*
X121000000Y-64833750D03*
D32*
X121000000Y-68883750D03*
D33*
X118900000Y-70833750D03*
X118900000Y-64833750D03*
D32*
X118900000Y-68883750D03*
D33*
X125200000Y-70833750D03*
X123100000Y-70833750D03*
D32*
X121000000Y-66783750D03*
X123100000Y-68883750D03*
X125200000Y-68883750D03*
D33*
X121000000Y-70833750D03*
D32*
X118900000Y-66783750D03*
D33*
X123100000Y-64833750D03*
X125200000Y-64833750D03*
D32*
X123100000Y-66783750D03*
D34*
X118650000Y-74033750D03*
X120350000Y-74033750D03*
X122050000Y-74033750D03*
X123750000Y-74033750D03*
X125450000Y-74033750D03*
%TD*%
D13*
%TO.C,R36*%
X176180000Y-85000000D03*
X177200000Y-85000000D03*
%TD*%
D35*
%TO.C,J4*%
X148425000Y-51325000D03*
X147775000Y-51325000D03*
X147125000Y-51325000D03*
X146475000Y-51325000D03*
X145825000Y-51325000D03*
X141725000Y-51325000D03*
X141075000Y-51325000D03*
X140425000Y-51325000D03*
X139775000Y-51325000D03*
X139125000Y-51325000D03*
%TD*%
D15*
%TO.C,C11*%
X144340000Y-67500000D03*
X145300000Y-67500000D03*
%TD*%
D36*
%TO.C,U1*%
X134000000Y-71000000D03*
X135000000Y-71000000D03*
X136000000Y-71000000D03*
X137000000Y-71000000D03*
X138000000Y-71000000D03*
X139000000Y-71000000D03*
X140000000Y-71000000D03*
X141000000Y-71000000D03*
X142000000Y-71000000D03*
X143000000Y-71000000D03*
X144000000Y-71000000D03*
X145000000Y-71000000D03*
X146000000Y-71000000D03*
X147000000Y-71000000D03*
X148000000Y-71000000D03*
X149000000Y-71000000D03*
X150000000Y-71000000D03*
X151000000Y-71000000D03*
X152000000Y-71000000D03*
X153000000Y-71000000D03*
X154000000Y-71000000D03*
X155000000Y-71000000D03*
X134000000Y-91000000D03*
X135000000Y-91000000D03*
X136000000Y-91000000D03*
X137000000Y-91000000D03*
X138000000Y-91000000D03*
X139000000Y-91000000D03*
X140000000Y-91000000D03*
X141000000Y-91000000D03*
X142000000Y-91000000D03*
X143000000Y-91000000D03*
X144000000Y-91000000D03*
X145000000Y-91000000D03*
X146000000Y-91000000D03*
X147000000Y-91000000D03*
X148000000Y-91000000D03*
X149000000Y-91000000D03*
X150000000Y-91000000D03*
X151000000Y-91000000D03*
X152000000Y-91000000D03*
X153000000Y-91000000D03*
X154000000Y-91000000D03*
X155000000Y-91000000D03*
X134000000Y-92000000D03*
X135000000Y-92000000D03*
X136000000Y-92000000D03*
X137000000Y-92000000D03*
X138000000Y-92000000D03*
X139000000Y-92000000D03*
X140000000Y-92000000D03*
X141000000Y-92000000D03*
X142000000Y-92000000D03*
X143000000Y-92000000D03*
X144000000Y-92000000D03*
X145000000Y-92000000D03*
X146000000Y-92000000D03*
X147000000Y-92000000D03*
X148000000Y-92000000D03*
X149000000Y-92000000D03*
X150000000Y-92000000D03*
X151000000Y-92000000D03*
X152000000Y-92000000D03*
X153000000Y-92000000D03*
X154000000Y-92000000D03*
X155000000Y-92000000D03*
X134000000Y-72000000D03*
X135000000Y-72000000D03*
X136000000Y-72000000D03*
X137000000Y-72000000D03*
X138000000Y-72000000D03*
X139000000Y-72000000D03*
X140000000Y-72000000D03*
X141000000Y-72000000D03*
X142000000Y-72000000D03*
X143000000Y-72000000D03*
X144000000Y-72000000D03*
X145000000Y-72000000D03*
X146000000Y-72000000D03*
X147000000Y-72000000D03*
X148000000Y-72000000D03*
X149000000Y-72000000D03*
X150000000Y-72000000D03*
X151000000Y-72000000D03*
X152000000Y-72000000D03*
X153000000Y-72000000D03*
X154000000Y-72000000D03*
X155000000Y-72000000D03*
X134000000Y-73000000D03*
X135000000Y-73000000D03*
X136000000Y-73000000D03*
X137000000Y-73000000D03*
X138000000Y-73000000D03*
X139000000Y-73000000D03*
X140000000Y-73000000D03*
X141000000Y-73000000D03*
X142000000Y-73000000D03*
X143000000Y-73000000D03*
X144000000Y-73000000D03*
X145000000Y-73000000D03*
X146000000Y-73000000D03*
X147000000Y-73000000D03*
X148000000Y-73000000D03*
X149000000Y-73000000D03*
X150000000Y-73000000D03*
X151000000Y-73000000D03*
X152000000Y-73000000D03*
X153000000Y-73000000D03*
X154000000Y-73000000D03*
X155000000Y-73000000D03*
X134000000Y-74000000D03*
X135000000Y-74000000D03*
X136000000Y-74000000D03*
X137000000Y-74000000D03*
X138000000Y-74000000D03*
X139000000Y-74000000D03*
X140000000Y-74000000D03*
X141000000Y-74000000D03*
X142000000Y-74000000D03*
X143000000Y-74000000D03*
X144000000Y-74000000D03*
X145000000Y-74000000D03*
X146000000Y-74000000D03*
X147000000Y-74000000D03*
X148000000Y-74000000D03*
X149000000Y-74000000D03*
X150000000Y-74000000D03*
X151000000Y-74000000D03*
X152000000Y-74000000D03*
X153000000Y-74000000D03*
X154000000Y-74000000D03*
X155000000Y-74000000D03*
X134000000Y-75000000D03*
X135000000Y-75000000D03*
X136000000Y-75000000D03*
X137000000Y-75000000D03*
X138000000Y-75000000D03*
X139000000Y-75000000D03*
X140000000Y-75000000D03*
X141000000Y-75000000D03*
X142000000Y-75000000D03*
X143000000Y-75000000D03*
X144000000Y-75000000D03*
X145000000Y-75000000D03*
X146000000Y-75000000D03*
X147000000Y-75000000D03*
X148000000Y-75000000D03*
X149000000Y-75000000D03*
X150000000Y-75000000D03*
X151000000Y-75000000D03*
X152000000Y-75000000D03*
X153000000Y-75000000D03*
X154000000Y-75000000D03*
X155000000Y-75000000D03*
X134000000Y-76000000D03*
X135000000Y-76000000D03*
X136000000Y-76000000D03*
X137000000Y-76000000D03*
X138000000Y-76000000D03*
X139000000Y-76000000D03*
X140000000Y-76000000D03*
X141000000Y-76000000D03*
X142000000Y-76000000D03*
X143000000Y-76000000D03*
X144000000Y-76000000D03*
X145000000Y-76000000D03*
X146000000Y-76000000D03*
X147000000Y-76000000D03*
X148000000Y-76000000D03*
X149000000Y-76000000D03*
X150000000Y-76000000D03*
X151000000Y-76000000D03*
X152000000Y-76000000D03*
X153000000Y-76000000D03*
X154000000Y-76000000D03*
X155000000Y-76000000D03*
X134000000Y-77000000D03*
X135000000Y-77000000D03*
X136000000Y-77000000D03*
X137000000Y-77000000D03*
X138000000Y-77000000D03*
X139000000Y-77000000D03*
X140000000Y-77000000D03*
X141000000Y-77000000D03*
X142000000Y-77000000D03*
X143000000Y-77000000D03*
X144000000Y-77000000D03*
X145000000Y-77000000D03*
X146000000Y-77000000D03*
X147000000Y-77000000D03*
X148000000Y-77000000D03*
X149000000Y-77000000D03*
X150000000Y-77000000D03*
X151000000Y-77000000D03*
X152000000Y-77000000D03*
X153000000Y-77000000D03*
X154000000Y-77000000D03*
X155000000Y-77000000D03*
X134000000Y-78000000D03*
X135000000Y-78000000D03*
X136000000Y-78000000D03*
X137000000Y-78000000D03*
X138000000Y-78000000D03*
X139000000Y-78000000D03*
X140000000Y-78000000D03*
X141000000Y-78000000D03*
X142000000Y-78000000D03*
X143000000Y-78000000D03*
X144000000Y-78000000D03*
X145000000Y-78000000D03*
X146000000Y-78000000D03*
X147000000Y-78000000D03*
X148000000Y-78000000D03*
X149000000Y-78000000D03*
X150000000Y-78000000D03*
X151000000Y-78000000D03*
X152000000Y-78000000D03*
X153000000Y-78000000D03*
X154000000Y-78000000D03*
X155000000Y-78000000D03*
X134000000Y-79000000D03*
X135000000Y-79000000D03*
X136000000Y-79000000D03*
X137000000Y-79000000D03*
X138000000Y-79000000D03*
X139000000Y-79000000D03*
X140000000Y-79000000D03*
X141000000Y-79000000D03*
X142000000Y-79000000D03*
X143000000Y-79000000D03*
X144000000Y-79000000D03*
X145000000Y-79000000D03*
X146000000Y-79000000D03*
X147000000Y-79000000D03*
X148000000Y-79000000D03*
X149000000Y-79000000D03*
X150000000Y-79000000D03*
X151000000Y-79000000D03*
X152000000Y-79000000D03*
X153000000Y-79000000D03*
X154000000Y-79000000D03*
X155000000Y-79000000D03*
X134000000Y-80000000D03*
X135000000Y-80000000D03*
X136000000Y-80000000D03*
X137000000Y-80000000D03*
X138000000Y-80000000D03*
X139000000Y-80000000D03*
X140000000Y-80000000D03*
X141000000Y-80000000D03*
X142000000Y-80000000D03*
X143000000Y-80000000D03*
X144000000Y-80000000D03*
X145000000Y-80000000D03*
X146000000Y-80000000D03*
X147000000Y-80000000D03*
X148000000Y-80000000D03*
X149000000Y-80000000D03*
X150000000Y-80000000D03*
X151000000Y-80000000D03*
X152000000Y-80000000D03*
X153000000Y-80000000D03*
X154000000Y-80000000D03*
X155000000Y-80000000D03*
X134000000Y-81000000D03*
X135000000Y-81000000D03*
X136000000Y-81000000D03*
X137000000Y-81000000D03*
X138000000Y-81000000D03*
X139000000Y-81000000D03*
X140000000Y-81000000D03*
X141000000Y-81000000D03*
X142000000Y-81000000D03*
X143000000Y-81000000D03*
X144000000Y-81000000D03*
X145000000Y-81000000D03*
X146000000Y-81000000D03*
X147000000Y-81000000D03*
X148000000Y-81000000D03*
X149000000Y-81000000D03*
X150000000Y-81000000D03*
X151000000Y-81000000D03*
X152000000Y-81000000D03*
X153000000Y-81000000D03*
X154000000Y-81000000D03*
X155000000Y-81000000D03*
X134000000Y-82000000D03*
X135000000Y-82000000D03*
X136000000Y-82000000D03*
X137000000Y-82000000D03*
X138000000Y-82000000D03*
X139000000Y-82000000D03*
X140000000Y-82000000D03*
X141000000Y-82000000D03*
X142000000Y-82000000D03*
X143000000Y-82000000D03*
X144000000Y-82000000D03*
X145000000Y-82000000D03*
X146000000Y-82000000D03*
X147000000Y-82000000D03*
X148000000Y-82000000D03*
X149000000Y-82000000D03*
X150000000Y-82000000D03*
X151000000Y-82000000D03*
X152000000Y-82000000D03*
X153000000Y-82000000D03*
X154000000Y-82000000D03*
X155000000Y-82000000D03*
X134000000Y-83000000D03*
X135000000Y-83000000D03*
X136000000Y-83000000D03*
X137000000Y-83000000D03*
X138000000Y-83000000D03*
X139000000Y-83000000D03*
X140000000Y-83000000D03*
X141000000Y-83000000D03*
X142000000Y-83000000D03*
X143000000Y-83000000D03*
X144000000Y-83000000D03*
X145000000Y-83000000D03*
X146000000Y-83000000D03*
X147000000Y-83000000D03*
X148000000Y-83000000D03*
X149000000Y-83000000D03*
X150000000Y-83000000D03*
X151000000Y-83000000D03*
X152000000Y-83000000D03*
X153000000Y-83000000D03*
X154000000Y-83000000D03*
X155000000Y-83000000D03*
X134000000Y-84000000D03*
X135000000Y-84000000D03*
X136000000Y-84000000D03*
X137000000Y-84000000D03*
X138000000Y-84000000D03*
X139000000Y-84000000D03*
X140000000Y-84000000D03*
X141000000Y-84000000D03*
X142000000Y-84000000D03*
X143000000Y-84000000D03*
X144000000Y-84000000D03*
X145000000Y-84000000D03*
X146000000Y-84000000D03*
X147000000Y-84000000D03*
X148000000Y-84000000D03*
X149000000Y-84000000D03*
X150000000Y-84000000D03*
X151000000Y-84000000D03*
X152000000Y-84000000D03*
X153000000Y-84000000D03*
X154000000Y-84000000D03*
X155000000Y-84000000D03*
X134000000Y-85000000D03*
X135000000Y-85000000D03*
X136000000Y-85000000D03*
X137000000Y-85000000D03*
X138000000Y-85000000D03*
X139000000Y-85000000D03*
X140000000Y-85000000D03*
X141000000Y-85000000D03*
X142000000Y-85000000D03*
X143000000Y-85000000D03*
X144000000Y-85000000D03*
X145000000Y-85000000D03*
X146000000Y-85000000D03*
X147000000Y-85000000D03*
X148000000Y-85000000D03*
X149000000Y-85000000D03*
X150000000Y-85000000D03*
X151000000Y-85000000D03*
X152000000Y-85000000D03*
X153000000Y-85000000D03*
X154000000Y-85000000D03*
X155000000Y-85000000D03*
X134000000Y-86000000D03*
X135000000Y-86000000D03*
X136000000Y-86000000D03*
X137000000Y-86000000D03*
X138000000Y-86000000D03*
X139000000Y-86000000D03*
X140000000Y-86000000D03*
X141000000Y-86000000D03*
X142000000Y-86000000D03*
X143000000Y-86000000D03*
X144000000Y-86000000D03*
X145000000Y-86000000D03*
X146000000Y-86000000D03*
X147000000Y-86000000D03*
X148000000Y-86000000D03*
X149000000Y-86000000D03*
X150000000Y-86000000D03*
X151000000Y-86000000D03*
X152000000Y-86000000D03*
X153000000Y-86000000D03*
X154000000Y-86000000D03*
X155000000Y-86000000D03*
X134000000Y-87000000D03*
X135000000Y-87000000D03*
X136000000Y-87000000D03*
X137000000Y-87000000D03*
X138000000Y-87000000D03*
X139000000Y-87000000D03*
X140000000Y-87000000D03*
X141000000Y-87000000D03*
X142000000Y-87000000D03*
X143000000Y-87000000D03*
X144000000Y-87000000D03*
X145000000Y-87000000D03*
X146000000Y-87000000D03*
X147000000Y-87000000D03*
X148000000Y-87000000D03*
X149000000Y-87000000D03*
X150000000Y-87000000D03*
X151000000Y-87000000D03*
X152000000Y-87000000D03*
X153000000Y-87000000D03*
X154000000Y-87000000D03*
X155000000Y-87000000D03*
X134000000Y-88000000D03*
X135000000Y-88000000D03*
X136000000Y-88000000D03*
X137000000Y-88000000D03*
X138000000Y-88000000D03*
X139000000Y-88000000D03*
X140000000Y-88000000D03*
X141000000Y-88000000D03*
X142000000Y-88000000D03*
X143000000Y-88000000D03*
X144000000Y-88000000D03*
X145000000Y-88000000D03*
X146000000Y-88000000D03*
X147000000Y-88000000D03*
X148000000Y-88000000D03*
X149000000Y-88000000D03*
X150000000Y-88000000D03*
X151000000Y-88000000D03*
X152000000Y-88000000D03*
X153000000Y-88000000D03*
X154000000Y-88000000D03*
X155000000Y-88000000D03*
X134000000Y-89000000D03*
X135000000Y-89000000D03*
X136000000Y-89000000D03*
X137000000Y-89000000D03*
X138000000Y-89000000D03*
X139000000Y-89000000D03*
X140000000Y-89000000D03*
X141000000Y-89000000D03*
X142000000Y-89000000D03*
X143000000Y-89000000D03*
X144000000Y-89000000D03*
X145000000Y-89000000D03*
X146000000Y-89000000D03*
X147000000Y-89000000D03*
X148000000Y-89000000D03*
X149000000Y-89000000D03*
X150000000Y-89000000D03*
X151000000Y-89000000D03*
X152000000Y-89000000D03*
X153000000Y-89000000D03*
X154000000Y-89000000D03*
X155000000Y-89000000D03*
X134000000Y-90000000D03*
X135000000Y-90000000D03*
X136000000Y-90000000D03*
X137000000Y-90000000D03*
X138000000Y-90000000D03*
X139000000Y-90000000D03*
X140000000Y-90000000D03*
X141000000Y-90000000D03*
X142000000Y-90000000D03*
X143000000Y-90000000D03*
X144000000Y-90000000D03*
X145000000Y-90000000D03*
X146000000Y-90000000D03*
X147000000Y-90000000D03*
X148000000Y-90000000D03*
X149000000Y-90000000D03*
X150000000Y-90000000D03*
X151000000Y-90000000D03*
X152000000Y-90000000D03*
X153000000Y-90000000D03*
X154000000Y-90000000D03*
X155000000Y-90000000D03*
%TD*%
D15*
%TO.C,C10*%
X140440000Y-66000000D03*
X141400000Y-66000000D03*
%TD*%
D16*
%TO.C,R31*%
X167350000Y-64940000D03*
X167350000Y-63920000D03*
%TD*%
D28*
%TO.C,C30*%
X170800000Y-69050000D03*
X168900000Y-69050000D03*
%TD*%
D17*
%TO.C,C6*%
X143600000Y-53750000D03*
X143600000Y-54710000D03*
%TD*%
D15*
%TO.C,C15*%
X124990000Y-61800000D03*
X125950000Y-61800000D03*
%TD*%
%TO.C,C12*%
X138790000Y-61650000D03*
X139750000Y-61650000D03*
%TD*%
D13*
%TO.C,R38*%
X176180000Y-79900000D03*
X177200000Y-79900000D03*
%TD*%
%TO.C,R42*%
X176180000Y-69700000D03*
X177200000Y-69700000D03*
%TD*%
D22*
%TO.C,R10*%
X166300000Y-63940000D03*
X166300000Y-64960000D03*
%TD*%
D28*
%TO.C,C27*%
X159900000Y-80200000D03*
X158000000Y-80200000D03*
%TD*%
M02*
