%TF.GenerationSoftware,KiCad,Pcbnew,6.0.10-86aedd382b~118~ubuntu20.04.1*%
%TF.CreationDate,2023-03-04T23:04:57-08:00*%
%TF.ProjectId,ep2c35_trial,65703263-3335-45f7-9472-69616c2e6b69,rev?*%
%TF.SameCoordinates,Original*%
%TF.FileFunction,Soldermask,Bot*%
%TF.FilePolarity,Negative*%
%FSLAX46Y46*%
G04 Gerber Fmt 4.6, Leading zero omitted, Abs format (unit mm)*
G04 Created by KiCad (PCBNEW 6.0.10-86aedd382b~118~ubuntu20.04.1) date 2023-03-04 23:04:57*
%MOMM*%
%LPD*%
G01*
G04 APERTURE LIST*
G04 Aperture macros list*
%AMRoundRect*
0 Rectangle with rounded corners*
0 $1 Rounding radius*
0 $2 $3 $4 $5 $6 $7 $8 $9 X,Y pos of 4 corners*
0 Add a 4 corners polygon primitive as box body*
4,1,4,$2,$3,$4,$5,$6,$7,$8,$9,$2,$3,0*
0 Add four circle primitives for the rounded corners*
1,1,$1+$1,$2,$3*
1,1,$1+$1,$4,$5*
1,1,$1+$1,$6,$7*
1,1,$1+$1,$8,$9*
0 Add four rect primitives between the rounded corners*
20,1,$1+$1,$2,$3,$4,$5,0*
20,1,$1+$1,$4,$5,$6,$7,0*
20,1,$1+$1,$6,$7,$8,$9,0*
20,1,$1+$1,$8,$9,$2,$3,0*%
G04 Aperture macros list end*
%ADD10R,1.700000X1.700000*%
%ADD11O,1.700000X1.700000*%
%ADD12R,1.000000X1.000000*%
%ADD13O,1.000000X1.000000*%
%ADD14C,0.460000*%
%ADD15O,0.900000X1.800000*%
%ADD16RoundRect,0.140000X-0.140000X-0.170000X0.140000X-0.170000X0.140000X0.170000X-0.140000X0.170000X0*%
%ADD17RoundRect,0.135000X0.135000X0.185000X-0.135000X0.185000X-0.135000X-0.185000X0.135000X-0.185000X0*%
%ADD18RoundRect,0.135000X-0.135000X-0.185000X0.135000X-0.185000X0.135000X0.185000X-0.135000X0.185000X0*%
%ADD19RoundRect,0.140000X0.170000X-0.140000X0.170000X0.140000X-0.170000X0.140000X-0.170000X-0.140000X0*%
%ADD20RoundRect,0.140000X0.140000X0.170000X-0.140000X0.170000X-0.140000X-0.170000X0.140000X-0.170000X0*%
%ADD21RoundRect,0.140000X-0.170000X0.140000X-0.170000X-0.140000X0.170000X-0.140000X0.170000X0.140000X0*%
%ADD22RoundRect,0.135000X-0.185000X0.135000X-0.185000X-0.135000X0.185000X-0.135000X0.185000X0.135000X0*%
G04 APERTURE END LIST*
D10*
%TO.C,J6*%
X129950000Y-67925000D03*
D11*
X129950000Y-65385000D03*
%TD*%
D12*
%TO.C,J2*%
X171150000Y-101650000D03*
D13*
X171150000Y-102920000D03*
X169880000Y-101650000D03*
X169880000Y-102920000D03*
X168610000Y-101650000D03*
X168610000Y-102920000D03*
X167340000Y-101650000D03*
X167340000Y-102920000D03*
X166070000Y-101650000D03*
X166070000Y-102920000D03*
X164800000Y-101650000D03*
X164800000Y-102920000D03*
X163530000Y-101650000D03*
X163530000Y-102920000D03*
X162260000Y-101650000D03*
X162260000Y-102920000D03*
X160990000Y-101650000D03*
X160990000Y-102920000D03*
X159720000Y-101650000D03*
X159720000Y-102920000D03*
X158450000Y-101650000D03*
X158450000Y-102920000D03*
X157180000Y-101650000D03*
X157180000Y-102920000D03*
X155910000Y-101650000D03*
X155910000Y-102920000D03*
X154640000Y-101650000D03*
X154640000Y-102920000D03*
X153370000Y-101650000D03*
X153370000Y-102920000D03*
X152100000Y-101650000D03*
X152100000Y-102920000D03*
X150830000Y-101650000D03*
X150830000Y-102920000D03*
X149560000Y-101650000D03*
X149560000Y-102920000D03*
X148290000Y-101650000D03*
X148290000Y-102920000D03*
X147020000Y-101650000D03*
X147020000Y-102920000D03*
X145750000Y-101650000D03*
X145750000Y-102920000D03*
%TD*%
D10*
%TO.C,J9*%
X170000000Y-76400000D03*
D11*
X170000000Y-73860000D03*
%TD*%
D10*
%TO.C,J3*%
X180900000Y-100200000D03*
D11*
X183440000Y-100200000D03*
X180900000Y-97660000D03*
X183440000Y-97660000D03*
X180900000Y-95120000D03*
X183440000Y-95120000D03*
X180900000Y-92580000D03*
X183440000Y-92580000D03*
X180900000Y-90040000D03*
X183440000Y-90040000D03*
X180900000Y-87500000D03*
X183440000Y-87500000D03*
X180900000Y-84960000D03*
X183440000Y-84960000D03*
X180900000Y-82420000D03*
X183440000Y-82420000D03*
X180900000Y-79880000D03*
X183440000Y-79880000D03*
X180900000Y-77340000D03*
X183440000Y-77340000D03*
X180900000Y-74800000D03*
X183440000Y-74800000D03*
X180900000Y-72260000D03*
X183440000Y-72260000D03*
X180900000Y-69720000D03*
X183440000Y-69720000D03*
X180900000Y-67180000D03*
X183440000Y-67180000D03*
X180900000Y-64640000D03*
X183440000Y-64640000D03*
X180900000Y-62100000D03*
X183440000Y-62100000D03*
X180900000Y-59560000D03*
X183440000Y-59560000D03*
X180900000Y-57020000D03*
X183440000Y-57020000D03*
X180900000Y-54480000D03*
X183440000Y-54480000D03*
X180900000Y-51940000D03*
X183440000Y-51940000D03*
%TD*%
D10*
%TO.C,J5*%
X129500000Y-49300000D03*
D11*
X129500000Y-51840000D03*
X126960000Y-49300000D03*
X126960000Y-51840000D03*
X124420000Y-49300000D03*
X124420000Y-51840000D03*
X121880000Y-49300000D03*
X121880000Y-51840000D03*
X119340000Y-49300000D03*
X119340000Y-51840000D03*
%TD*%
D12*
%TO.C,J1*%
X143210000Y-101650000D03*
D13*
X143210000Y-102920000D03*
X141940000Y-101650000D03*
X141940000Y-102920000D03*
X140670000Y-101650000D03*
X140670000Y-102920000D03*
X139400000Y-101650000D03*
X139400000Y-102920000D03*
X138130000Y-101650000D03*
X138130000Y-102920000D03*
X136860000Y-101650000D03*
X136860000Y-102920000D03*
X135590000Y-101650000D03*
X135590000Y-102920000D03*
X134320000Y-101650000D03*
X134320000Y-102920000D03*
X133050000Y-101650000D03*
X133050000Y-102920000D03*
X131780000Y-101650000D03*
X131780000Y-102920000D03*
X130510000Y-101650000D03*
X130510000Y-102920000D03*
X129240000Y-101650000D03*
X129240000Y-102920000D03*
X127970000Y-101650000D03*
X127970000Y-102920000D03*
X126700000Y-101650000D03*
X126700000Y-102920000D03*
X125430000Y-101650000D03*
X125430000Y-102920000D03*
X124160000Y-101650000D03*
X124160000Y-102920000D03*
X122890000Y-101650000D03*
X122890000Y-102920000D03*
X121620000Y-101650000D03*
X121620000Y-102920000D03*
X120350000Y-101650000D03*
X120350000Y-102920000D03*
X119080000Y-101650000D03*
X119080000Y-102920000D03*
X117810000Y-101650000D03*
X117810000Y-102920000D03*
%TD*%
D14*
%TO.C,U2*%
X118850000Y-64783750D03*
X118900000Y-68883750D03*
X120950000Y-64783750D03*
X123100000Y-68883750D03*
X125150000Y-64783750D03*
X123100000Y-70833750D03*
X123050000Y-64783750D03*
X125200000Y-68883750D03*
X121000000Y-68883750D03*
X125200000Y-70833750D03*
X125200000Y-66733750D03*
X121000000Y-66733750D03*
X123100000Y-66733750D03*
X118900000Y-66733750D03*
X121000000Y-70833750D03*
X118900000Y-70833750D03*
%TD*%
D10*
%TO.C,J8*%
X166000000Y-73900000D03*
D11*
X166000000Y-76440000D03*
%TD*%
D15*
%TO.C,J4*%
X150725000Y-48650000D03*
X138175000Y-48650000D03*
%TD*%
D10*
%TO.C,J7*%
X169200000Y-61230000D03*
D11*
X169200000Y-58690000D03*
%TD*%
D16*
%TO.C,C67*%
X154150000Y-70850000D03*
X155110000Y-70850000D03*
%TD*%
D17*
%TO.C,R24*%
X135020000Y-87000000D03*
X134000000Y-87000000D03*
%TD*%
%TO.C,R23*%
X135020000Y-88000000D03*
X134000000Y-88000000D03*
%TD*%
%TO.C,R30*%
X135000000Y-82000000D03*
X133980000Y-82000000D03*
%TD*%
D18*
%TO.C,R14*%
X153980000Y-86000000D03*
X155000000Y-86000000D03*
%TD*%
D19*
%TO.C,C70*%
X140150000Y-78850000D03*
X140150000Y-77890000D03*
%TD*%
D18*
%TO.C,R12*%
X153980000Y-84000000D03*
X155000000Y-84000000D03*
%TD*%
D20*
%TO.C,C46*%
X147000000Y-82000000D03*
X146040000Y-82000000D03*
%TD*%
D21*
%TO.C,C58*%
X146050000Y-87920000D03*
X146050000Y-88880000D03*
%TD*%
D20*
%TO.C,C68*%
X153200000Y-80800000D03*
X152240000Y-80800000D03*
%TD*%
D17*
%TO.C,R26*%
X135020000Y-85000000D03*
X134000000Y-85000000D03*
%TD*%
D20*
%TO.C,C39*%
X142970000Y-84000000D03*
X142010000Y-84000000D03*
%TD*%
%TO.C,C43*%
X142970000Y-85000000D03*
X142010000Y-85000000D03*
%TD*%
D16*
%TO.C,C57*%
X140000000Y-84000000D03*
X140960000Y-84000000D03*
%TD*%
D20*
%TO.C,C66*%
X139110000Y-72850000D03*
X138150000Y-72850000D03*
%TD*%
D18*
%TO.C,R20*%
X153980000Y-82000000D03*
X155000000Y-82000000D03*
%TD*%
D17*
%TO.C,R22*%
X135020000Y-89000000D03*
X134000000Y-89000000D03*
%TD*%
%TO.C,R28*%
X135020000Y-83000000D03*
X134000000Y-83000000D03*
%TD*%
%TO.C,R27*%
X135000000Y-84000000D03*
X133980000Y-84000000D03*
%TD*%
D21*
%TO.C,C31*%
X139000000Y-75040000D03*
X139000000Y-76000000D03*
%TD*%
D16*
%TO.C,C37*%
X142010000Y-81000000D03*
X142970000Y-81000000D03*
%TD*%
D20*
%TO.C,C62*%
X152000000Y-77000000D03*
X151040000Y-77000000D03*
%TD*%
%TO.C,C60*%
X135100000Y-70850000D03*
X134140000Y-70850000D03*
%TD*%
D19*
%TO.C,C50*%
X135000000Y-92000000D03*
X135000000Y-91040000D03*
%TD*%
D16*
%TO.C,C42*%
X142010000Y-82000000D03*
X142970000Y-82000000D03*
%TD*%
%TO.C,C61*%
X150190000Y-73800000D03*
X151150000Y-73800000D03*
%TD*%
D19*
%TO.C,C1*%
X149000000Y-75960000D03*
X149000000Y-75000000D03*
%TD*%
D20*
%TO.C,C45*%
X147000000Y-81000000D03*
X146040000Y-81000000D03*
%TD*%
%TO.C,C44*%
X147000000Y-80050000D03*
X146040000Y-80050000D03*
%TD*%
D21*
%TO.C,C36*%
X140000000Y-87000000D03*
X140000000Y-87960000D03*
%TD*%
D16*
%TO.C,C54*%
X137000000Y-85950000D03*
X137960000Y-85950000D03*
%TD*%
D19*
%TO.C,C59*%
X149050000Y-83850000D03*
X149050000Y-82890000D03*
%TD*%
D18*
%TO.C,R18*%
X153980000Y-90000000D03*
X155000000Y-90000000D03*
%TD*%
D21*
%TO.C,C55*%
X142850000Y-87950000D03*
X142850000Y-88910000D03*
%TD*%
D19*
%TO.C,C63*%
X143150000Y-74810000D03*
X143150000Y-73850000D03*
%TD*%
%TO.C,C64*%
X146150000Y-74830000D03*
X146150000Y-73870000D03*
%TD*%
D21*
%TO.C,C33*%
X148000000Y-87000000D03*
X148000000Y-87960000D03*
%TD*%
D16*
%TO.C,C53*%
X151920000Y-86000000D03*
X152880000Y-86000000D03*
%TD*%
D20*
%TO.C,C51*%
X154950000Y-91100000D03*
X153990000Y-91100000D03*
%TD*%
D19*
%TO.C,C2*%
X148000000Y-75950000D03*
X148000000Y-74990000D03*
%TD*%
D17*
%TO.C,R21*%
X135000000Y-90000000D03*
X133980000Y-90000000D03*
%TD*%
D16*
%TO.C,C40*%
X142020000Y-80000000D03*
X142980000Y-80000000D03*
%TD*%
D21*
%TO.C,C34*%
X149000000Y-87000000D03*
X149000000Y-87960000D03*
%TD*%
D18*
%TO.C,R17*%
X153980000Y-89000000D03*
X155000000Y-89000000D03*
%TD*%
%TO.C,R16*%
X153980000Y-88000000D03*
X155000000Y-88000000D03*
%TD*%
D22*
%TO.C,R5*%
X152850000Y-81980000D03*
X152850000Y-83000000D03*
%TD*%
D16*
%TO.C,C49*%
X144970000Y-86000000D03*
X145930000Y-86000000D03*
%TD*%
D18*
%TO.C,R11*%
X153980000Y-83000000D03*
X155000000Y-83000000D03*
%TD*%
D22*
%TO.C,R6*%
X150850000Y-81980000D03*
X150850000Y-83000000D03*
%TD*%
D18*
%TO.C,R2*%
X136000000Y-80850000D03*
X137020000Y-80850000D03*
%TD*%
D21*
%TO.C,C35*%
X141050000Y-87020000D03*
X141050000Y-87980000D03*
%TD*%
D19*
%TO.C,C3*%
X150900000Y-75960000D03*
X150900000Y-75000000D03*
%TD*%
D18*
%TO.C,R15*%
X153980000Y-87000000D03*
X155000000Y-87000000D03*
%TD*%
D16*
%TO.C,C69*%
X144150000Y-90100000D03*
X145110000Y-90100000D03*
%TD*%
D20*
%TO.C,C38*%
X142960000Y-79000000D03*
X142000000Y-79000000D03*
%TD*%
D19*
%TO.C,C4*%
X152000000Y-75960000D03*
X152000000Y-75000000D03*
%TD*%
D16*
%TO.C,C65*%
X144200000Y-73200000D03*
X145160000Y-73200000D03*
%TD*%
%TO.C,C56*%
X136190000Y-81950000D03*
X137150000Y-81950000D03*
%TD*%
D17*
%TO.C,R25*%
X135020000Y-86000000D03*
X134000000Y-86000000D03*
%TD*%
D18*
%TO.C,R19*%
X151730000Y-90200000D03*
X152750000Y-90200000D03*
%TD*%
D16*
%TO.C,C48*%
X145000000Y-85000000D03*
X145960000Y-85000000D03*
%TD*%
D18*
%TO.C,R13*%
X153980000Y-85000000D03*
X155000000Y-85000000D03*
%TD*%
D21*
%TO.C,C32*%
X138000000Y-75000000D03*
X138000000Y-75960000D03*
%TD*%
D20*
%TO.C,C47*%
X147000000Y-83000000D03*
X146040000Y-83000000D03*
%TD*%
D17*
%TO.C,R29*%
X137250000Y-90200000D03*
X136230000Y-90200000D03*
%TD*%
D19*
%TO.C,C52*%
X150100000Y-88960000D03*
X150100000Y-88000000D03*
%TD*%
D16*
%TO.C,C41*%
X142010000Y-83000000D03*
X142970000Y-83000000D03*
%TD*%
M02*
