%TF.GenerationSoftware,KiCad,Pcbnew,6.0.10-86aedd382b~118~ubuntu20.04.1*%
%TF.CreationDate,2023-03-04T23:04:57-08:00*%
%TF.ProjectId,ep2c35_trial,65703263-3335-45f7-9472-69616c2e6b69,rev?*%
%TF.SameCoordinates,Original*%
%TF.FileFunction,Paste,Bot*%
%TF.FilePolarity,Positive*%
%FSLAX46Y46*%
G04 Gerber Fmt 4.6, Leading zero omitted, Abs format (unit mm)*
G04 Created by KiCad (PCBNEW 6.0.10-86aedd382b~118~ubuntu20.04.1) date 2023-03-04 23:04:57*
%MOMM*%
%LPD*%
G01*
G04 APERTURE LIST*
G04 Aperture macros list*
%AMRoundRect*
0 Rectangle with rounded corners*
0 $1 Rounding radius*
0 $2 $3 $4 $5 $6 $7 $8 $9 X,Y pos of 4 corners*
0 Add a 4 corners polygon primitive as box body*
4,1,4,$2,$3,$4,$5,$6,$7,$8,$9,$2,$3,0*
0 Add four circle primitives for the rounded corners*
1,1,$1+$1,$2,$3*
1,1,$1+$1,$4,$5*
1,1,$1+$1,$6,$7*
1,1,$1+$1,$8,$9*
0 Add four rect primitives between the rounded corners*
20,1,$1+$1,$2,$3,$4,$5,0*
20,1,$1+$1,$4,$5,$6,$7,0*
20,1,$1+$1,$6,$7,$8,$9,0*
20,1,$1+$1,$8,$9,$2,$3,0*%
G04 Aperture macros list end*
%ADD10RoundRect,0.140000X-0.140000X-0.170000X0.140000X-0.170000X0.140000X0.170000X-0.140000X0.170000X0*%
%ADD11RoundRect,0.135000X0.135000X0.185000X-0.135000X0.185000X-0.135000X-0.185000X0.135000X-0.185000X0*%
%ADD12RoundRect,0.135000X-0.135000X-0.185000X0.135000X-0.185000X0.135000X0.185000X-0.135000X0.185000X0*%
%ADD13RoundRect,0.140000X0.170000X-0.140000X0.170000X0.140000X-0.170000X0.140000X-0.170000X-0.140000X0*%
%ADD14RoundRect,0.140000X0.140000X0.170000X-0.140000X0.170000X-0.140000X-0.170000X0.140000X-0.170000X0*%
%ADD15RoundRect,0.140000X-0.170000X0.140000X-0.170000X-0.140000X0.170000X-0.140000X0.170000X0.140000X0*%
%ADD16RoundRect,0.135000X-0.185000X0.135000X-0.185000X-0.135000X0.185000X-0.135000X0.185000X0.135000X0*%
G04 APERTURE END LIST*
D10*
%TO.C,C67*%
X154150000Y-70850000D03*
X155110000Y-70850000D03*
%TD*%
D11*
%TO.C,R24*%
X135020000Y-87000000D03*
X134000000Y-87000000D03*
%TD*%
%TO.C,R23*%
X135020000Y-88000000D03*
X134000000Y-88000000D03*
%TD*%
%TO.C,R30*%
X135000000Y-82000000D03*
X133980000Y-82000000D03*
%TD*%
D12*
%TO.C,R14*%
X153980000Y-86000000D03*
X155000000Y-86000000D03*
%TD*%
D13*
%TO.C,C70*%
X140150000Y-78850000D03*
X140150000Y-77890000D03*
%TD*%
D12*
%TO.C,R12*%
X153980000Y-84000000D03*
X155000000Y-84000000D03*
%TD*%
D14*
%TO.C,C46*%
X147000000Y-82000000D03*
X146040000Y-82000000D03*
%TD*%
D15*
%TO.C,C58*%
X146050000Y-87920000D03*
X146050000Y-88880000D03*
%TD*%
D14*
%TO.C,C68*%
X153200000Y-80800000D03*
X152240000Y-80800000D03*
%TD*%
D11*
%TO.C,R26*%
X135020000Y-85000000D03*
X134000000Y-85000000D03*
%TD*%
D14*
%TO.C,C39*%
X142970000Y-84000000D03*
X142010000Y-84000000D03*
%TD*%
%TO.C,C43*%
X142970000Y-85000000D03*
X142010000Y-85000000D03*
%TD*%
D10*
%TO.C,C57*%
X140000000Y-84000000D03*
X140960000Y-84000000D03*
%TD*%
D14*
%TO.C,C66*%
X139110000Y-72850000D03*
X138150000Y-72850000D03*
%TD*%
D12*
%TO.C,R20*%
X153980000Y-82000000D03*
X155000000Y-82000000D03*
%TD*%
D11*
%TO.C,R22*%
X135020000Y-89000000D03*
X134000000Y-89000000D03*
%TD*%
%TO.C,R28*%
X135020000Y-83000000D03*
X134000000Y-83000000D03*
%TD*%
%TO.C,R27*%
X135000000Y-84000000D03*
X133980000Y-84000000D03*
%TD*%
D15*
%TO.C,C31*%
X139000000Y-75040000D03*
X139000000Y-76000000D03*
%TD*%
D10*
%TO.C,C37*%
X142010000Y-81000000D03*
X142970000Y-81000000D03*
%TD*%
D14*
%TO.C,C62*%
X152000000Y-77000000D03*
X151040000Y-77000000D03*
%TD*%
%TO.C,C60*%
X135100000Y-70850000D03*
X134140000Y-70850000D03*
%TD*%
D13*
%TO.C,C50*%
X135000000Y-92000000D03*
X135000000Y-91040000D03*
%TD*%
D10*
%TO.C,C42*%
X142010000Y-82000000D03*
X142970000Y-82000000D03*
%TD*%
%TO.C,C61*%
X150190000Y-73800000D03*
X151150000Y-73800000D03*
%TD*%
D13*
%TO.C,C1*%
X149000000Y-75960000D03*
X149000000Y-75000000D03*
%TD*%
D14*
%TO.C,C45*%
X147000000Y-81000000D03*
X146040000Y-81000000D03*
%TD*%
%TO.C,C44*%
X147000000Y-80050000D03*
X146040000Y-80050000D03*
%TD*%
D15*
%TO.C,C36*%
X140000000Y-87000000D03*
X140000000Y-87960000D03*
%TD*%
D10*
%TO.C,C54*%
X137000000Y-85950000D03*
X137960000Y-85950000D03*
%TD*%
D13*
%TO.C,C59*%
X149050000Y-83850000D03*
X149050000Y-82890000D03*
%TD*%
D12*
%TO.C,R18*%
X153980000Y-90000000D03*
X155000000Y-90000000D03*
%TD*%
D15*
%TO.C,C55*%
X142850000Y-87950000D03*
X142850000Y-88910000D03*
%TD*%
D13*
%TO.C,C63*%
X143150000Y-74810000D03*
X143150000Y-73850000D03*
%TD*%
%TO.C,C64*%
X146150000Y-74830000D03*
X146150000Y-73870000D03*
%TD*%
D15*
%TO.C,C33*%
X148000000Y-87000000D03*
X148000000Y-87960000D03*
%TD*%
D10*
%TO.C,C53*%
X151920000Y-86000000D03*
X152880000Y-86000000D03*
%TD*%
D14*
%TO.C,C51*%
X154950000Y-91100000D03*
X153990000Y-91100000D03*
%TD*%
D13*
%TO.C,C2*%
X148000000Y-75950000D03*
X148000000Y-74990000D03*
%TD*%
D11*
%TO.C,R21*%
X135000000Y-90000000D03*
X133980000Y-90000000D03*
%TD*%
D10*
%TO.C,C40*%
X142020000Y-80000000D03*
X142980000Y-80000000D03*
%TD*%
D15*
%TO.C,C34*%
X149000000Y-87000000D03*
X149000000Y-87960000D03*
%TD*%
D12*
%TO.C,R17*%
X153980000Y-89000000D03*
X155000000Y-89000000D03*
%TD*%
%TO.C,R16*%
X153980000Y-88000000D03*
X155000000Y-88000000D03*
%TD*%
D16*
%TO.C,R5*%
X152850000Y-81980000D03*
X152850000Y-83000000D03*
%TD*%
D10*
%TO.C,C49*%
X144970000Y-86000000D03*
X145930000Y-86000000D03*
%TD*%
D12*
%TO.C,R11*%
X153980000Y-83000000D03*
X155000000Y-83000000D03*
%TD*%
D16*
%TO.C,R6*%
X150850000Y-81980000D03*
X150850000Y-83000000D03*
%TD*%
D12*
%TO.C,R2*%
X136000000Y-80850000D03*
X137020000Y-80850000D03*
%TD*%
D15*
%TO.C,C35*%
X141050000Y-87020000D03*
X141050000Y-87980000D03*
%TD*%
D13*
%TO.C,C3*%
X150900000Y-75960000D03*
X150900000Y-75000000D03*
%TD*%
D12*
%TO.C,R15*%
X153980000Y-87000000D03*
X155000000Y-87000000D03*
%TD*%
D10*
%TO.C,C69*%
X144150000Y-90100000D03*
X145110000Y-90100000D03*
%TD*%
D14*
%TO.C,C38*%
X142960000Y-79000000D03*
X142000000Y-79000000D03*
%TD*%
D13*
%TO.C,C4*%
X152000000Y-75960000D03*
X152000000Y-75000000D03*
%TD*%
D10*
%TO.C,C65*%
X144200000Y-73200000D03*
X145160000Y-73200000D03*
%TD*%
%TO.C,C56*%
X136190000Y-81950000D03*
X137150000Y-81950000D03*
%TD*%
D11*
%TO.C,R25*%
X135020000Y-86000000D03*
X134000000Y-86000000D03*
%TD*%
D12*
%TO.C,R19*%
X151730000Y-90200000D03*
X152750000Y-90200000D03*
%TD*%
D10*
%TO.C,C48*%
X145000000Y-85000000D03*
X145960000Y-85000000D03*
%TD*%
D12*
%TO.C,R13*%
X153980000Y-85000000D03*
X155000000Y-85000000D03*
%TD*%
D15*
%TO.C,C32*%
X138000000Y-75000000D03*
X138000000Y-75960000D03*
%TD*%
D14*
%TO.C,C47*%
X147000000Y-83000000D03*
X146040000Y-83000000D03*
%TD*%
D11*
%TO.C,R29*%
X137250000Y-90200000D03*
X136230000Y-90200000D03*
%TD*%
D13*
%TO.C,C52*%
X150100000Y-88960000D03*
X150100000Y-88000000D03*
%TD*%
D10*
%TO.C,C41*%
X142010000Y-83000000D03*
X142970000Y-83000000D03*
%TD*%
M02*
